<svg xmlns="http://www.w3.org/2000/svg" xmlns:xlink="http://www.w3.org/1999/xlink" width="500" zoomAndPan="magnify" viewBox="0 0 375 374.999991" height="500" preserveAspectRatio="xMidYMid meet" version="1.0"><defs><clipPath id="0bef1b6645"><path d="M 187.5 0 C 83.945312 0 0 83.945312 0 187.5 C 0 291.054688 83.945312 375 187.5 375 C 291.054688 375 375 291.054688 375 187.5 C 375 83.945312 291.054688 0 187.5 0 Z M 187.5 0 " clip-rule="nonzero"/></clipPath><clipPath id="a26f356373"><path d="M 0 0 L 375 0 L 375 375 L 0 375 Z M 0 0 " clip-rule="nonzero"/></clipPath><clipPath id="1de870f231"><path d="M 187.5 0 C 83.945312 0 0 83.945312 0 187.5 C 0 291.054688 83.945312 375 187.5 375 C 291.054688 375 375 291.054688 375 187.5 C 375 83.945312 291.054688 0 187.5 0 Z M 187.5 0 " clip-rule="nonzero"/></clipPath><clipPath id="d47fbe912f"><rect x="0" width="375" y="0" height="375"/></clipPath><clipPath id="7fe3b97979"><path d="M 165 104 L 339 104 L 339 337 L 165 337 Z M 165 104 " clip-rule="nonzero"/></clipPath><clipPath id="1c41c075fc"><path d="M 279.238281 87.941406 L 354.753906 132.390625 L 224.875 353.035156 L 149.359375 308.585938 Z M 279.238281 87.941406 " clip-rule="nonzero"/></clipPath><clipPath id="d2ebb6ec80"><path d="M 316.996094 110.164062 C 327.011719 116.058594 334.273438 125.691406 337.183594 136.941406 C 340.097656 148.1875 338.421875 160.132812 332.527344 170.148438 L 247.15625 315.183594 C 241.261719 325.195312 231.632812 332.457031 220.382812 335.371094 C 209.132812 338.285156 197.1875 336.609375 187.175781 330.714844 C 177.160156 324.820312 169.898438 315.1875 166.984375 303.9375 C 164.074219 292.691406 165.746094 280.746094 171.640625 270.730469 L 257.015625 125.699219 C 262.910156 115.683594 272.539062 108.421875 283.789062 105.507812 C 295.039062 102.597656 306.984375 104.269531 316.996094 110.164062 Z M 316.996094 110.164062 " clip-rule="nonzero"/></clipPath><clipPath id="c3193a4748"><path d="M 0 0 L 174 0 L 174 233 L 0 233 Z M 0 0 " clip-rule="nonzero"/></clipPath><clipPath id="2000545339"><path d="M 114.238281 -16.058594 L 189.753906 28.390625 L 59.875 249.035156 L -15.640625 204.585938 Z M 114.238281 -16.058594 " clip-rule="nonzero"/></clipPath><clipPath id="7bf18c5d90"><path d="M 151.996094 6.164062 C 162.011719 12.058594 169.273438 21.691406 172.183594 32.941406 C 175.097656 44.1875 173.421875 56.132812 167.527344 66.148438 L 82.15625 211.183594 C 76.261719 221.195312 66.632812 228.457031 55.382812 231.371094 C 44.132812 234.285156 32.1875 232.609375 22.175781 226.714844 C 12.160156 220.820312 4.898438 211.1875 1.984375 199.9375 C -0.925781 188.691406 0.746094 176.746094 6.640625 166.730469 L 92.015625 21.699219 C 97.910156 11.683594 107.539062 4.421875 118.789062 1.507812 C 130.039062 -1.402344 141.984375 0.269531 151.996094 6.164062 Z M 151.996094 6.164062 " clip-rule="nonzero"/></clipPath><clipPath id="3fd6435277"><rect x="0" width="174" y="0" height="233"/></clipPath><clipPath id="15e640d967"><path d="M 45.527344 101.949219 L 133.332031 101.949219 L 133.332031 189.75 L 45.527344 189.75 Z M 45.527344 101.949219 " clip-rule="nonzero"/></clipPath><clipPath id="8ba62b9280"><path d="M 89.429688 101.949219 C 65.183594 101.949219 45.527344 121.601562 45.527344 145.847656 C 45.527344 170.09375 65.183594 189.75 89.429688 189.75 C 113.675781 189.75 133.332031 170.09375 133.332031 145.847656 C 133.332031 121.601562 113.675781 101.949219 89.429688 101.949219 Z M 89.429688 101.949219 " clip-rule="nonzero"/></clipPath><clipPath id="b8585b8d72"><path d="M 0.527344 0.949219 L 88.332031 0.949219 L 88.332031 88.75 L 0.527344 88.75 Z M 0.527344 0.949219 " clip-rule="nonzero"/></clipPath><clipPath id="197c07eef0"><path d="M 44.429688 0.949219 C 20.183594 0.949219 0.527344 20.601562 0.527344 44.847656 C 0.527344 69.09375 20.183594 88.75 44.429688 88.75 C 68.675781 88.75 88.332031 69.09375 88.332031 44.847656 C 88.332031 20.601562 68.675781 0.949219 44.429688 0.949219 Z M 44.429688 0.949219 " clip-rule="nonzero"/></clipPath><clipPath id="4f09c8b3f6"><rect x="0" width="89" y="0" height="89"/></clipPath></defs><g clip-path="url(#0bef1b6645)"><g transform="matrix(1, 0, 0, 1, 0, 0)"><g clip-path="url(#d47fbe912f)"><g clip-path="url(#a26f356373)"><g clip-path="url(#1de870f231)"><rect x="-82.5" width="540" fill="#110e60" height="539.999987" y="-82.499998" fill-opacity="1"/></g></g></g></g></g><g clip-path="url(#7fe3b97979)"><g clip-path="url(#1c41c075fc)"><g clip-path="url(#d2ebb6ec80)"><g transform="matrix(1, 0, 0, 1, 165, 104)"><g clip-path="url(#3fd6435277)"><g clip-path="url(#c3193a4748)"><g clip-path="url(#2000545339)"><g clip-path="url(#7bf18c5d90)"><path fill="#ffffff" d="M 114.238281 -16.058594 L 189.753906 28.390625 L 59.875 249.035156 L -15.640625 204.585938 Z M 114.238281 -16.058594 " fill-opacity="1" fill-rule="nonzero"/></g></g></g></g></g></g></g></g><g clip-path="url(#15e640d967)"><g clip-path="url(#8ba62b9280)"><g transform="matrix(1, 0, 0, 1, 45, 101)"><g clip-path="url(#4f09c8b3f6)"><g clip-path="url(#b8585b8d72)"><g clip-path="url(#197c07eef0)"><path fill="#ffffff" d="M 0.527344 0.949219 L 88.332031 0.949219 L 88.332031 88.75 L 0.527344 88.75 Z M 0.527344 0.949219 " fill-opacity="1" fill-rule="nonzero"/></g></g></g></g></g></g></svg>