<svg xmlns="http://www.w3.org/2000/svg" xmlns:xlink="http://www.w3.org/1999/xlink" width="940" zoomAndPan="magnify" viewBox="0 0 705 591.000005" height="788" preserveAspectRatio="xMidYMid meet" version="1.0"><defs><g/><clipPath id="4f1a3e41f9"><path d="M 59.59375 191.996094 L 244.511719 191.996094 L 244.511719 376.910156 L 59.59375 376.910156 Z M 59.59375 191.996094 " clip-rule="nonzero"/></clipPath><clipPath id="5f0958ff13"><path d="M 152.054688 191.996094 C 100.988281 191.996094 59.59375 233.390625 59.59375 284.453125 C 59.59375 335.515625 100.988281 376.910156 152.054688 376.910156 C 203.117188 376.910156 244.511719 335.515625 244.511719 284.453125 C 244.511719 233.390625 203.117188 191.996094 152.054688 191.996094 Z M 152.054688 191.996094 " clip-rule="nonzero"/></clipPath><clipPath id="664468d8b4"><path d="M 0.59375 0.996094 L 185.511719 0.996094 L 185.511719 185.910156 L 0.59375 185.910156 Z M 0.59375 0.996094 " clip-rule="nonzero"/></clipPath><clipPath id="e6dd02ec1b"><path d="M 93.054688 0.996094 C 41.988281 0.996094 0.59375 42.390625 0.59375 93.453125 C 0.59375 144.515625 41.988281 185.910156 93.054688 185.910156 C 144.117188 185.910156 185.511719 144.515625 185.511719 93.453125 C 185.511719 42.390625 144.117188 0.996094 93.054688 0.996094 Z M 93.054688 0.996094 " clip-rule="nonzero"/></clipPath><clipPath id="334c20edd2"><rect x="0" width="186" y="0" height="186"/></clipPath><clipPath id="6834db53ec"><path d="M 141 238 L 227 238 L 227 354 L 141 354 Z M 141 238 " clip-rule="nonzero"/></clipPath><clipPath id="11667deb5c"><path d="M 197.519531 230.800781 L 234.757812 252.722656 L 170.714844 361.523438 L 133.476562 339.601562 Z M 197.519531 230.800781 " clip-rule="nonzero"/></clipPath><clipPath id="27daada015"><path d="M 216.140625 241.761719 C 221.078125 244.667969 224.65625 249.417969 226.09375 254.964844 C 227.53125 260.511719 226.703125 266.402344 223.796875 271.339844 L 181.699219 342.855469 C 178.792969 347.792969 174.042969 351.375 168.496094 352.8125 C 162.949219 354.246094 157.0625 353.421875 152.121094 350.515625 C 147.183594 347.609375 143.605469 342.859375 142.167969 337.3125 C 140.730469 331.765625 141.558594 325.875 144.464844 320.9375 L 186.5625 249.421875 C 189.46875 244.484375 194.21875 240.902344 199.765625 239.464844 C 205.3125 238.027344 211.199219 238.855469 216.140625 241.761719 Z M 216.140625 241.761719 " clip-rule="nonzero"/></clipPath><clipPath id="ad3ec05de0"><path d="M 0 0 L 86 0 L 86 116 L 0 116 Z M 0 0 " clip-rule="nonzero"/></clipPath><clipPath id="d514ead6a6"><path d="M 56.519531 -7.199219 L 93.757812 14.722656 L 29.714844 123.523438 L -7.523438 101.601562 Z M 56.519531 -7.199219 " clip-rule="nonzero"/></clipPath><clipPath id="65023b964d"><path d="M 75.140625 3.761719 C 80.078125 6.667969 83.65625 11.417969 85.09375 16.964844 C 86.53125 22.511719 85.703125 28.402344 82.796875 33.339844 L 40.699219 104.855469 C 37.792969 109.792969 33.042969 113.375 27.496094 114.8125 C 21.949219 116.246094 16.0625 115.421875 11.121094 112.515625 C 6.183594 109.609375 2.605469 104.859375 1.167969 99.3125 C -0.269531 93.765625 0.558594 87.875 3.464844 82.9375 L 45.5625 11.421875 C 48.46875 6.484375 53.21875 2.902344 58.765625 1.464844 C 64.3125 0.0273438 70.199219 0.855469 75.140625 3.761719 Z M 75.140625 3.761719 " clip-rule="nonzero"/></clipPath><clipPath id="2165c74cbd"><rect x="0" width="86" y="0" height="116"/></clipPath><clipPath id="32ff008e96"><path d="M 79.410156 237.414062 L 122.835938 237.414062 L 122.835938 280.839844 L 79.410156 280.839844 Z M 79.410156 237.414062 " clip-rule="nonzero"/></clipPath><clipPath id="dccc405c0f"><rect x="0" width="401" y="0" height="116"/></clipPath><clipPath id="3d6589f27e"><rect x="0" width="347" y="0" height="41"/></clipPath></defs><g clip-path="url(#4f1a3e41f9)"><g clip-path="url(#5f0958ff13)"><g transform="matrix(1, 0, 0, 1, 59, 191)"><g clip-path="url(#334c20edd2)"><g clip-path="url(#664468d8b4)"><g clip-path="url(#e6dd02ec1b)"><path fill="#110e60" d="M 0.59375 0.996094 L 185.511719 0.996094 L 185.511719 185.910156 L 0.59375 185.910156 Z M 0.59375 0.996094 " fill-opacity="1" fill-rule="nonzero"/></g></g></g></g></g></g><g clip-path="url(#6834db53ec)"><g clip-path="url(#11667deb5c)"><g clip-path="url(#27daada015)"><g transform="matrix(1, 0, 0, 1, 141, 238)"><g clip-path="url(#2165c74cbd)"><g clip-path="url(#ad3ec05de0)"><g clip-path="url(#d514ead6a6)"><g clip-path="url(#65023b964d)"><path fill="#ffffff" d="M 56.519531 -7.199219 L 93.757812 14.722656 L 29.714844 123.523438 L -7.523438 101.601562 Z M 56.519531 -7.199219 " fill-opacity="1" fill-rule="nonzero"/></g></g></g></g></g></g></g></g><g clip-path="url(#32ff008e96)"><path fill="#ffffff" d="M 100.972656 237.414062 C 89.082031 237.414062 79.410156 247.085938 79.410156 258.976562 C 79.410156 270.863281 89.082031 280.539062 100.972656 280.539062 C 112.859375 280.539062 122.53125 270.863281 122.53125 258.976562 C 122.53125 247.085938 112.859375 237.414062 100.972656 237.414062 Z M 100.972656 278.851562 C 90.011719 278.851562 81.09375 269.9375 81.09375 258.976562 C 81.09375 248.015625 90.011719 239.097656 100.972656 239.097656 C 111.933594 239.097656 120.847656 248.015625 120.847656 258.976562 C 120.847656 269.9375 111.933594 278.851562 100.972656 278.851562 Z M 100.972656 278.851562 " fill-opacity="1" fill-rule="nonzero"/></g><path fill="#ffffff" d="M 100.972656 240.21875 C 90.628906 240.21875 82.214844 248.632812 82.214844 258.976562 C 82.214844 269.320312 90.628906 277.734375 100.972656 277.734375 C 111.3125 277.734375 119.726562 269.320312 119.726562 258.976562 C 119.730469 248.632812 111.3125 240.21875 100.972656 240.21875 Z M 100.972656 240.21875 " fill-opacity="1" fill-rule="nonzero"/><g transform="matrix(1, 0, 0, 1, 244, 210)"><g clip-path="url(#dccc405c0f)"><g fill="#110e60" fill-opacity="1"><g transform="translate(0.509906, 91.571981)"><g><path d="M 51.953125 0 L 37.421875 0 L 0.953125 -87.078125 L 17.78125 -87.078125 L 44.59375 -20.796875 L 44.84375 -20.921875 L 71.59375 -87.078125 L 88.484375 -87.078125 Z M 51.953125 0 "/></g></g></g><g fill="#110e60" fill-opacity="1"><g transform="translate(82.339888, 91.571981)"><g><path d="M 35.375 1.984375 C 30.945312 1.984375 26.84375 1.085938 23.0625 -0.703125 C 19.289062 -2.492188 16.003906 -4.988281 13.203125 -8.1875 C 10.410156 -11.382812 8.25 -15.09375 6.71875 -19.3125 C 5.1875 -23.539062 4.421875 -28.066406 4.421875 -32.890625 C 4.421875 -37.703125 5.195312 -42.207031 6.75 -46.40625 C 8.300781 -50.613281 10.472656 -54.316406 13.265625 -57.515625 C 16.066406 -60.710938 19.34375 -63.21875 23.09375 -65.03125 C 26.851562 -66.84375 30.925781 -67.75 35.3125 -67.75 C 40.6875 -67.75 45.460938 -66.585938 49.640625 -64.265625 C 53.828125 -61.941406 56.960938 -58.734375 59.046875 -54.640625 L 59.046875 -65.765625 L 73.765625 -65.765625 L 73.765625 0 L 59.046875 0 L 59.046875 -11.0625 C 56.921875 -6.96875 53.773438 -3.769531 49.609375 -1.46875 C 45.453125 0.832031 40.707031 1.984375 35.375 1.984375 Z M 39.09375 -12.34375 C 41.78125 -12.34375 44.296875 -12.863281 46.640625 -13.90625 C 48.984375 -14.957031 51.039062 -16.410156 52.8125 -18.265625 C 54.582031 -20.117188 55.957031 -22.289062 56.9375 -24.78125 C 57.914062 -27.28125 58.40625 -29.984375 58.40625 -32.890625 C 58.40625 -35.742188 57.90625 -38.414062 56.90625 -40.90625 C 55.90625 -43.40625 54.53125 -45.59375 52.78125 -47.46875 C 51.03125 -49.34375 48.984375 -50.800781 46.640625 -51.84375 C 44.296875 -52.894531 41.78125 -53.421875 39.09375 -53.421875 C 35.550781 -53.421875 32.316406 -52.566406 29.390625 -50.859375 C 26.472656 -49.160156 24.140625 -46.773438 22.390625 -43.703125 C 20.640625 -40.628906 19.765625 -37.023438 19.765625 -32.890625 C 19.765625 -28.617188 20.648438 -24.945312 22.421875 -21.875 C 24.191406 -18.8125 26.546875 -16.457031 29.484375 -14.8125 C 32.429688 -13.164062 35.632812 -12.34375 39.09375 -12.34375 Z M 39.09375 -12.34375 "/></g></g></g><g fill="#110e60" fill-opacity="1"><g transform="translate(157.580957, 91.571981)"><g><path d="M 24.5625 0 L 9.078125 0 L 9.078125 -90.140625 L 24.5625 -90.140625 Z M 24.5625 0 "/></g></g></g><g fill="#110e60" fill-opacity="1"><g transform="translate(183.565099, 91.571981)"><g><path d="M 24.5625 22.453125 L 9.078125 22.453125 L 9.078125 -65.765625 L 23.796875 -65.765625 L 23.796875 -54.703125 C 26.191406 -58.671875 29.367188 -61.828125 33.328125 -64.171875 C 37.296875 -66.515625 41.648438 -67.6875 46.390625 -67.6875 C 51.078125 -67.6875 55.367188 -66.78125 59.265625 -64.96875 C 63.171875 -63.15625 66.550781 -60.660156 69.40625 -57.484375 C 72.269531 -54.304688 74.488281 -50.613281 76.0625 -46.40625 C 77.644531 -42.207031 78.4375 -37.703125 78.4375 -32.890625 C 78.4375 -28.066406 77.644531 -23.539062 76.0625 -19.3125 C 74.488281 -15.09375 72.257812 -11.382812 69.375 -8.1875 C 66.5 -4.988281 63.128906 -2.492188 59.265625 -0.703125 C 55.410156 1.085938 51.179688 1.984375 46.578125 1.984375 C 43.378906 1.984375 40.347656 1.457031 37.484375 0.40625 C 34.628906 -0.632812 32.070312 -2.101562 29.8125 -4 C 27.550781 -5.894531 25.695312 -8.101562 24.25 -10.625 L 24.5625 -3 Z M 43.765625 -12.28125 C 47.265625 -12.28125 50.472656 -13.113281 53.390625 -14.78125 C 56.316406 -16.445312 58.660156 -18.820312 60.421875 -21.90625 C 62.191406 -25 63.078125 -28.660156 63.078125 -32.890625 C 63.078125 -37.023438 62.203125 -40.628906 60.453125 -43.703125 C 58.710938 -46.773438 56.378906 -49.160156 53.453125 -50.859375 C 50.535156 -52.566406 47.285156 -53.421875 43.703125 -53.421875 C 41.015625 -53.421875 38.503906 -52.894531 36.171875 -51.84375 C 33.847656 -50.800781 31.800781 -49.34375 30.03125 -47.46875 C 28.269531 -45.59375 26.882812 -43.414062 25.875 -40.9375 C 24.875 -38.46875 24.375 -35.785156 24.375 -32.890625 C 24.375 -29.898438 24.882812 -27.144531 25.90625 -24.625 C 26.9375 -22.113281 28.347656 -19.929688 30.140625 -18.078125 C 31.929688 -16.222656 34 -14.789062 36.34375 -13.78125 C 38.6875 -12.78125 41.160156 -12.28125 43.765625 -12.28125 Z M 43.765625 -12.28125 "/></g></g></g><g fill="#110e60" fill-opacity="1"><g transform="translate(258.806167, 91.571981)"><g><path d="M 24.5625 0 L 9.078125 0 L 9.078125 -65.765625 L 23.921875 -65.765625 L 23.921875 -53.875 C 25.460938 -57.5 27.722656 -60.382812 30.703125 -62.53125 C 33.691406 -64.6875 37.320312 -65.765625 41.59375 -65.765625 L 48.625 -65.765625 L 48.625 -52.46875 L 42.421875 -52.46875 C 38.878906 -52.46875 35.765625 -51.613281 33.078125 -49.90625 C 30.390625 -48.195312 28.296875 -45.722656 26.796875 -42.484375 C 25.304688 -39.242188 24.5625 -35.273438 24.5625 -30.578125 Z M 24.5625 0 "/></g></g></g><g fill="#110e60" fill-opacity="1"><g transform="translate(301.806337, 91.571981)"><g><path d="M 38.96875 1.984375 C 33.976562 1.984375 29.367188 1.085938 25.140625 -0.703125 C 20.921875 -2.492188 17.265625 -4.988281 14.171875 -8.1875 C 11.078125 -11.382812 8.675781 -15.09375 6.96875 -19.3125 C 5.269531 -23.539062 4.421875 -28.066406 4.421875 -32.890625 C 4.421875 -37.703125 5.269531 -42.207031 6.96875 -46.40625 C 8.675781 -50.613281 11.078125 -54.316406 14.171875 -57.515625 C 17.265625 -60.710938 20.921875 -63.21875 25.140625 -65.03125 C 29.367188 -66.84375 34 -67.75 39.03125 -67.75 C 44.101562 -67.75 48.75 -66.84375 52.96875 -65.03125 C 57.195312 -63.21875 60.867188 -60.710938 63.984375 -57.515625 C 67.097656 -54.316406 69.503906 -50.613281 71.203125 -46.40625 C 72.910156 -42.207031 73.765625 -37.703125 73.765625 -32.890625 C 73.765625 -28.023438 72.910156 -23.488281 71.203125 -19.28125 C 69.503906 -15.082031 67.097656 -11.382812 63.984375 -8.1875 C 60.867188 -4.988281 57.1875 -2.492188 52.9375 -0.703125 C 48.695312 1.085938 44.039062 1.984375 38.96875 1.984375 Z M 39.09375 -12.40625 C 42.800781 -12.40625 46.101562 -13.289062 49 -15.0625 C 51.90625 -16.832031 54.195312 -19.253906 55.875 -22.328125 C 57.5625 -25.398438 58.40625 -28.921875 58.40625 -32.890625 C 58.40625 -36.847656 57.5625 -40.375 55.875 -43.46875 C 54.195312 -46.5625 51.90625 -48.992188 49 -50.765625 C 46.101562 -52.535156 42.800781 -53.421875 39.09375 -53.421875 C 35.425781 -53.421875 32.128906 -52.535156 29.203125 -50.765625 C 26.285156 -48.992188 23.984375 -46.5625 22.296875 -43.46875 C 20.609375 -40.375 19.765625 -36.847656 19.765625 -32.890625 C 19.765625 -28.921875 20.609375 -25.398438 22.296875 -22.328125 C 23.984375 -19.253906 26.285156 -16.832031 29.203125 -15.0625 C 32.128906 -13.289062 35.425781 -12.40625 39.09375 -12.40625 Z M 39.09375 -12.40625 "/></g></g></g><g fill="#110e60" fill-opacity="1"><g transform="translate(372.377594, 91.571981)"><g><path d="M 17.203125 1.59375 C 15.421875 1.59375 13.859375 1.207031 12.515625 0.4375 C 11.171875 -0.320312 10.113281 -1.351562 9.34375 -2.65625 C 8.570312 -3.957031 8.1875 -5.375 8.1875 -6.90625 C 8.1875 -8.445312 8.554688 -9.863281 9.296875 -11.15625 C 10.046875 -12.457031 11.101562 -13.492188 12.46875 -14.265625 C 13.84375 -15.035156 15.445312 -15.421875 17.28125 -15.421875 C 19.113281 -15.421875 20.703125 -15.035156 22.046875 -14.265625 C 23.390625 -13.492188 24.441406 -12.457031 25.203125 -11.15625 C 25.972656 -9.863281 26.359375 -8.445312 26.359375 -6.90625 C 26.359375 -4.5625 25.523438 -2.554688 23.859375 -0.890625 C 22.203125 0.765625 19.984375 1.59375 17.203125 1.59375 Z M 17.203125 1.59375 "/></g></g></g></g></g><g transform="matrix(1, 0, 0, 1, 266, 317)"><g clip-path="url(#3d6589f27e)"><g fill="#110e60" fill-opacity="1"><g transform="translate(0.903251, 31.444615)"><g><path d="M 22.234375 -11.296875 C 21.898438 -9.679688 21.300781 -8.175781 20.4375 -6.78125 C 19.59375 -5.40625 18.539062 -4.207031 17.28125 -3.1875 C 16.65625 -2.695312 16 -2.257812 15.3125 -1.875 C 14.632812 -1.488281 13.90625 -1.148438 13.125 -0.859375 C 11.570312 -0.285156 10 0 8.40625 0 L 2.5 0 L 6.875 -22.59375 L 12.796875 -22.59375 C 14.390625 -22.59375 15.851562 -22.304688 17.1875 -21.734375 C 18.507812 -21.160156 19.59375 -20.382812 20.4375 -19.40625 C 21.28125 -18.457031 21.867188 -17.257812 22.203125 -15.8125 C 22.378906 -15.132812 22.472656 -14.414062 22.484375 -13.65625 C 22.492188 -12.90625 22.410156 -12.117188 22.234375 -11.296875 Z M 19.96875 -11.296875 C 20.476562 -13.890625 19.992188 -16.039062 18.515625 -17.75 C 17.046875 -19.425781 15.015625 -20.265625 12.421875 -20.265625 L 8.78125 -20.265625 L 5.28125 -2.328125 L 8.9375 -2.328125 C 11.550781 -2.328125 13.898438 -3.171875 15.984375 -4.859375 C 18.160156 -6.578125 19.488281 -8.722656 19.96875 -11.296875 Z M 19.96875 -11.296875 "/></g></g></g><g fill="#110e60" fill-opacity="1"><g transform="translate(22.438736, 31.444615)"><g><path d="M 12.265625 -11.59375 C 11.835938 -12.082031 11.316406 -12.328125 10.703125 -12.328125 C 10.097656 -12.328125 9.546875 -12.160156 9.046875 -11.828125 C 8.796875 -11.671875 8.5625 -11.484375 8.34375 -11.265625 C 8.125 -11.046875 7.910156 -10.8125 7.703125 -10.5625 C 6.953125 -9.59375 6.46875 -8.507812 6.25 -7.3125 L 4.8125 0 L 2.5 0 L 5.34375 -14.625 L 7.671875 -14.625 L 7.078125 -11.59375 L 7.28125 -12.203125 C 8.40625 -14.015625 9.789062 -14.921875 11.4375 -14.921875 C 11.96875 -14.921875 12.441406 -14.820312 12.859375 -14.625 Z M 12.265625 -11.59375 "/></g></g></g><g fill="#110e60" fill-opacity="1"><g transform="translate(32.77444, 31.444615)"><g><path d="M 8.671875 -19.671875 C 8.890625 -19.390625 8.96875 -19.035156 8.90625 -18.609375 C 8.84375 -18.253906 8.632812 -17.910156 8.28125 -17.578125 C 7.96875 -17.296875 7.585938 -17.15625 7.140625 -17.15625 C 6.722656 -17.15625 6.40625 -17.296875 6.1875 -17.578125 C 5.957031 -17.867188 5.878906 -18.210938 5.953125 -18.609375 C 6.015625 -19.003906 6.222656 -19.359375 6.578125 -19.671875 C 6.890625 -19.960938 7.265625 -20.109375 7.703125 -20.109375 C 8.128906 -20.109375 8.453125 -19.960938 8.671875 -19.671875 Z M 4.984375 0 L 2.65625 0 L 5.515625 -14.625 L 7.84375 -14.625 Z M 4.984375 0 "/></g></g></g><g fill="#110e60" fill-opacity="1"><g transform="translate(40.384971, 31.444615)"><g><path d="M 6.8125 1.390625 L 3.1875 -14.625 L 5.71875 -14.625 L 7.8125 -3.75 L 14.125 -14.625 L 16.65625 -14.625 Z M 6.8125 1.390625 "/></g></g></g><g fill="#110e60" fill-opacity="1"><g transform="translate(54.509322, 31.444615)"><g><path d="M 18.28125 -7.640625 L 18.046875 -6.421875 L 5.1875 -6.421875 C 5.164062 -5.148438 5.5625 -4.117188 6.375 -3.328125 C 7.21875 -2.503906 8.269531 -2.09375 9.53125 -2.09375 C 9.957031 -2.09375 10.378906 -2.132812 10.796875 -2.21875 C 11.222656 -2.3125 11.644531 -2.457031 12.0625 -2.65625 C 12.488281 -2.851562 12.890625 -3.082031 13.265625 -3.34375 C 13.640625 -3.613281 13.984375 -3.925781 14.296875 -4.28125 L 16.953125 -4.28125 C 16.066406 -2.882812 14.914062 -1.789062 13.5 -1 C 12.050781 -0.175781 10.695312 0.234375 9.4375 0.234375 C 8.15625 0.234375 7.09375 0.0351562 6.25 -0.359375 C 5.820312 -0.566406 5.429688 -0.800781 5.078125 -1.0625 C 4.722656 -1.332031 4.40625 -1.644531 4.125 -2 C 2.925781 -3.457031 2.523438 -5.25 2.921875 -7.375 C 3.316406 -9.476562 4.414062 -11.273438 6.21875 -12.765625 C 8.03125 -14.265625 9.976562 -15.015625 12.0625 -15.015625 C 14.101562 -15.015625 15.742188 -14.296875 16.984375 -12.859375 C 18.242188 -11.398438 18.675781 -9.660156 18.28125 -7.640625 Z M 15.953125 -8.40625 C 15.910156 -9.664062 15.488281 -10.695312 14.6875 -11.5 C 13.894531 -12.300781 12.863281 -12.703125 11.59375 -12.703125 C 9.71875 -12.703125 8.054688 -11.835938 6.609375 -10.109375 C 6.171875 -9.578125 5.828125 -9.007812 5.578125 -8.40625 Z M 15.953125 -8.40625 "/></g></g></g><g fill="#110e60" fill-opacity="1"><g transform="translate(72.621727, 31.444615)"><g><path d="M 12.59375 0 L 14.359375 -9.140625 C 14.554688 -10.066406 14.5 -10.875 14.1875 -11.5625 C 13.875 -12.25 13.234375 -12.59375 12.265625 -12.59375 C 11.265625 -12.59375 10.410156 -12.40625 9.703125 -12.03125 C 9.015625 -11.675781 8.414062 -11.1875 7.90625 -10.5625 C 7.019531 -9.476562 6.390625 -7.992188 6.015625 -6.109375 L 4.8125 0 L 2.5 0 L 5.34375 -14.625 L 7.671875 -14.625 L 7.171875 -12.09375 C 7.796875 -12.914062 8.550781 -13.582031 9.4375 -14.09375 C 10.363281 -14.644531 11.328125 -14.921875 12.328125 -14.921875 C 13.390625 -14.921875 14.210938 -14.773438 14.796875 -14.484375 C 15.347656 -14.203125 15.800781 -13.785156 16.15625 -13.234375 C 16.84375 -12.210938 17.019531 -10.847656 16.6875 -9.140625 L 14.921875 0 Z M 12.59375 0 "/></g></g></g><g fill="#110e60" fill-opacity="1"><g transform="translate(89.537722, 31.444615)"><g/></g></g><g fill="#110e60" fill-opacity="1"><g transform="translate(98.510844, 31.444615)"><g><path d="M 4.8125 0 L 2.5 0 L 7.34375 -24.921875 L 9.671875 -24.921875 L 7.171875 -12.125 L 7.671875 -12.625 C 9.359375 -14.175781 11.210938 -14.953125 13.234375 -14.953125 C 15.265625 -14.953125 16.8125 -14.175781 17.875 -12.625 C 18.9375 -11.125 19.269531 -9.351562 18.875 -7.3125 C 18.476562 -5.269531 17.457031 -3.5 15.8125 -2 C 14.132812 -0.445312 12.285156 0.328125 10.265625 0.328125 C 8.234375 0.328125 6.679688 -0.445312 5.609375 -2 L 5.3125 -2.5 Z M 16.546875 -7.3125 C 16.816406 -8.726562 16.5625 -9.96875 15.78125 -11.03125 C 14.988281 -12.09375 13.867188 -12.625 12.421875 -12.625 C 10.960938 -12.625 9.632812 -12.09375 8.4375 -11.03125 C 7.238281 -9.96875 6.507812 -8.726562 6.25 -7.3125 C 5.976562 -5.875 6.222656 -4.632812 6.984375 -3.59375 C 7.773438 -2.53125 8.90625 -2 10.375 -2 C 11.8125 -2 13.128906 -2.53125 14.328125 -3.59375 C 15.546875 -4.675781 16.285156 -5.914062 16.546875 -7.3125 Z M 16.546875 -7.3125 "/></g></g></g><g fill="#110e60" fill-opacity="1"><g transform="translate(117.454092, 31.444615)"><g><path d="M 2.71875 8.3125 L -0.09375 8.3125 L 6.90625 -2.390625 L 3.1875 -14.625 L 5.84375 -14.625 L 8.609375 -4.8125 L 14.71875 -14.625 L 17.3125 -14.625 Z M 2.71875 8.3125 "/></g></g></g><g fill="#110e60" fill-opacity="1"><g transform="translate(131.578443, 31.444615)"><g/></g></g><g fill="#110e60" fill-opacity="1"><g transform="translate(140.551566, 31.444615)"><g><path d="M 7.015625 -11.203125 L 12.265625 -11.203125 C 13.503906 -11.203125 14.65625 -11.644531 15.71875 -12.53125 C 16.757812 -13.4375 17.414062 -14.546875 17.6875 -15.859375 C 17.945312 -17.179688 17.742188 -18.265625 17.078125 -19.109375 C 16.410156 -19.953125 15.394531 -20.375 14.03125 -20.375 L 8.78125 -20.375 Z M 19.96875 -15.78125 C 19.570312 -13.789062 18.554688 -12.15625 16.921875 -10.875 C 15.253906 -9.582031 13.4375 -8.9375 11.46875 -8.9375 L 6.546875 -8.9375 L 4.8125 0 L 2.5 0 L 6.875 -22.59375 L 14.125 -22.59375 C 16.144531 -22.59375 17.71875 -21.960938 18.84375 -20.703125 C 20 -19.421875 20.375 -17.78125 19.96875 -15.78125 Z M 19.96875 -15.78125 "/></g></g></g><g fill="#110e60" fill-opacity="1"><g transform="translate(158.132233, 31.444615)"><g><path d="M 12.265625 -11.59375 C 11.835938 -12.082031 11.316406 -12.328125 10.703125 -12.328125 C 10.097656 -12.328125 9.546875 -12.160156 9.046875 -11.828125 C 8.796875 -11.671875 8.5625 -11.484375 8.34375 -11.265625 C 8.125 -11.046875 7.910156 -10.8125 7.703125 -10.5625 C 6.953125 -9.59375 6.46875 -8.507812 6.25 -7.3125 L 4.8125 0 L 2.5 0 L 5.34375 -14.625 L 7.671875 -14.625 L 7.078125 -11.59375 L 7.28125 -12.203125 C 8.40625 -14.015625 9.789062 -14.921875 11.4375 -14.921875 C 11.96875 -14.921875 12.441406 -14.820312 12.859375 -14.625 Z M 12.265625 -11.59375 "/></g></g></g><g fill="#110e60" fill-opacity="1"><g transform="translate(168.467936, 31.444615)"><g><path d="M 15.890625 -7.375 C 16.171875 -8.8125 15.894531 -10.066406 15.0625 -11.140625 C 14.21875 -12.179688 13.0625 -12.703125 11.59375 -12.703125 C 10.132812 -12.703125 8.785156 -12.179688 7.546875 -11.140625 C 6.328125 -10.117188 5.5625 -8.863281 5.25 -7.375 C 4.988281 -5.914062 5.265625 -4.675781 6.078125 -3.65625 C 6.921875 -2.613281 8.070312 -2.09375 9.53125 -2.09375 C 11 -2.09375 12.351562 -2.613281 13.59375 -3.65625 C 14.851562 -4.71875 15.617188 -5.957031 15.890625 -7.375 Z M 18.21875 -7.375 C 17.8125 -5.25 16.710938 -3.457031 14.921875 -2 C 13.148438 -0.507812 11.210938 0.234375 9.109375 0.234375 C 7.003906 0.234375 5.34375 -0.507812 4.125 -2 C 2.925781 -3.457031 2.523438 -5.25 2.921875 -7.375 C 3.316406 -9.476562 4.414062 -11.273438 6.21875 -12.765625 C 8.03125 -14.265625 9.976562 -15.015625 12.0625 -15.015625 C 14.164062 -15.015625 15.816406 -14.265625 17.015625 -12.765625 C 18.210938 -11.273438 18.613281 -9.476562 18.21875 -7.375 Z M 18.21875 -7.375 "/></g></g></g><g fill="#110e60" fill-opacity="1"><g transform="translate(186.746512, 31.444615)"><g><path d="M 14.75 -22.765625 L 12.765625 -22.765625 C 11.960938 -22.765625 11.421875 -22.585938 11.140625 -22.234375 C 10.804688 -21.835938 10.59375 -21.40625 10.5 -20.9375 L 9.3125 -14.625 L 13.1875 -14.625 L 12.765625 -12.46875 L 8.875 -12.46875 L 6.453125 0 L 4.125 0 L 6.546875 -12.46875 L 3.59375 -12.46875 L 4.015625 -14.625 L 6.984375 -14.625 L 8.078125 -20.265625 C 8.234375 -21.023438 8.445312 -21.691406 8.71875 -22.265625 C 9 -22.835938 9.347656 -23.328125 9.765625 -23.734375 C 10.628906 -24.523438 11.882812 -24.921875 13.53125 -24.921875 L 15.1875 -24.921875 Z M 14.75 -22.765625 "/></g></g></g><g fill="#110e60" fill-opacity="1"><g transform="translate(198.079218, 31.444615)"><g><path d="M 18.28125 -7.640625 L 18.046875 -6.421875 L 5.1875 -6.421875 C 5.164062 -5.148438 5.5625 -4.117188 6.375 -3.328125 C 7.21875 -2.503906 8.269531 -2.09375 9.53125 -2.09375 C 9.957031 -2.09375 10.378906 -2.132812 10.796875 -2.21875 C 11.222656 -2.3125 11.644531 -2.457031 12.0625 -2.65625 C 12.488281 -2.851562 12.890625 -3.082031 13.265625 -3.34375 C 13.640625 -3.613281 13.984375 -3.925781 14.296875 -4.28125 L 16.953125 -4.28125 C 16.066406 -2.882812 14.914062 -1.789062 13.5 -1 C 12.050781 -0.175781 10.695312 0.234375 9.4375 0.234375 C 8.15625 0.234375 7.09375 0.0351562 6.25 -0.359375 C 5.820312 -0.566406 5.429688 -0.800781 5.078125 -1.0625 C 4.722656 -1.332031 4.40625 -1.644531 4.125 -2 C 2.925781 -3.457031 2.523438 -5.25 2.921875 -7.375 C 3.316406 -9.476562 4.414062 -11.273438 6.21875 -12.765625 C 8.03125 -14.265625 9.976562 -15.015625 12.0625 -15.015625 C 14.101562 -15.015625 15.742188 -14.296875 16.984375 -12.859375 C 18.242188 -11.398438 18.675781 -9.660156 18.28125 -7.640625 Z M 15.953125 -8.40625 C 15.910156 -9.664062 15.488281 -10.695312 14.6875 -11.5 C 13.894531 -12.300781 12.863281 -12.703125 11.59375 -12.703125 C 9.71875 -12.703125 8.054688 -11.835938 6.609375 -10.109375 C 6.171875 -9.578125 5.828125 -9.007812 5.578125 -8.40625 Z M 15.953125 -8.40625 "/></g></g></g><g fill="#110e60" fill-opacity="1"><g transform="translate(216.191634, 31.444615)"><g><path d="M 5.015625 -2.09375 C 5.523438 -1.695312 6.234375 -1.5 7.140625 -1.5 C 9.316406 -1.5 10.546875 -2.296875 10.828125 -3.890625 C 10.984375 -4.816406 10.351562 -5.523438 8.9375 -6.015625 C 8.65625 -6.128906 8.347656 -6.234375 8.015625 -6.328125 C 7.679688 -6.429688 7.335938 -6.523438 6.984375 -6.609375 C 6.296875 -6.765625 5.648438 -7 5.046875 -7.3125 C 4.359375 -7.644531 3.875 -8.085938 3.59375 -8.640625 C 3.320312 -9.171875 3.253906 -9.800781 3.390625 -10.53125 C 3.648438 -11.976562 4.378906 -13.078125 5.578125 -13.828125 C 6.734375 -14.578125 8.019531 -14.953125 9.4375 -14.953125 C 10.144531 -14.953125 10.78125 -14.882812 11.34375 -14.75 C 11.914062 -14.625 12.410156 -14.40625 12.828125 -14.09375 C 13.628906 -13.539062 14.050781 -12.507812 14.09375 -11 L 11.59375 -11 C 11.507812 -11.820312 11.234375 -12.363281 10.765625 -12.625 C 10.296875 -12.894531 9.707031 -13.03125 9 -13.03125 C 8.269531 -13.03125 7.617188 -12.875 7.046875 -12.5625 C 6.472656 -12.25 6.117188 -11.757812 5.984375 -11.09375 C 5.847656 -10.4375 5.96875 -9.953125 6.34375 -9.640625 C 6.71875 -9.328125 7.207031 -9.070312 7.8125 -8.875 C 8.125 -8.78125 8.441406 -8.6875 8.765625 -8.59375 C 9.097656 -8.507812 9.441406 -8.425781 9.796875 -8.34375 C 10.148438 -8.25 10.488281 -8.140625 10.8125 -8.015625 C 11.132812 -7.898438 11.441406 -7.765625 11.734375 -7.609375 C 13.085938 -6.878906 13.617188 -5.738281 13.328125 -4.1875 C 13.035156 -2.632812 12.25 -1.472656 10.96875 -0.703125 C 10.300781 -0.328125 9.613281 -0.0351562 8.90625 0.171875 C 8.550781 0.253906 8.1875 0.316406 7.8125 0.359375 C 7.4375 0.410156 7.046875 0.4375 6.640625 0.4375 C 3.273438 0.4375 1.625 -1.070312 1.6875 -4.09375 L 4.15625 -4.09375 C 4.21875 -3.175781 4.503906 -2.507812 5.015625 -2.09375 Z M 5.015625 -2.09375 "/></g></g></g><g fill="#110e60" fill-opacity="1"><g transform="translate(229.551614, 31.444615)"><g><path d="M 8.671875 -19.671875 C 8.890625 -19.390625 8.96875 -19.035156 8.90625 -18.609375 C 8.84375 -18.253906 8.632812 -17.910156 8.28125 -17.578125 C 7.96875 -17.296875 7.585938 -17.15625 7.140625 -17.15625 C 6.722656 -17.15625 6.40625 -17.296875 6.1875 -17.578125 C 5.957031 -17.867188 5.878906 -18.210938 5.953125 -18.609375 C 6.015625 -19.003906 6.222656 -19.359375 6.578125 -19.671875 C 6.890625 -19.960938 7.265625 -20.109375 7.703125 -20.109375 C 8.128906 -20.109375 8.453125 -19.960938 8.671875 -19.671875 Z M 4.984375 0 L 2.65625 0 L 5.515625 -14.625 L 7.84375 -14.625 Z M 4.984375 0 "/></g></g></g><g fill="#110e60" fill-opacity="1"><g transform="translate(237.162135, 31.444615)"><g><path d="M 15.890625 -7.375 C 16.171875 -8.8125 15.894531 -10.066406 15.0625 -11.140625 C 14.21875 -12.179688 13.0625 -12.703125 11.59375 -12.703125 C 10.132812 -12.703125 8.785156 -12.179688 7.546875 -11.140625 C 6.328125 -10.117188 5.5625 -8.863281 5.25 -7.375 C 4.988281 -5.914062 5.265625 -4.675781 6.078125 -3.65625 C 6.921875 -2.613281 8.070312 -2.09375 9.53125 -2.09375 C 11 -2.09375 12.351562 -2.613281 13.59375 -3.65625 C 14.851562 -4.71875 15.617188 -5.957031 15.890625 -7.375 Z M 18.21875 -7.375 C 17.8125 -5.25 16.710938 -3.457031 14.921875 -2 C 13.148438 -0.507812 11.210938 0.234375 9.109375 0.234375 C 7.003906 0.234375 5.34375 -0.507812 4.125 -2 C 2.925781 -3.457031 2.523438 -5.25 2.921875 -7.375 C 3.316406 -9.476562 4.414062 -11.273438 6.21875 -12.765625 C 8.03125 -14.265625 9.976562 -15.015625 12.0625 -15.015625 C 14.164062 -15.015625 15.816406 -14.265625 17.015625 -12.765625 C 18.210938 -11.273438 18.613281 -9.476562 18.21875 -7.375 Z M 18.21875 -7.375 "/></g></g></g><g fill="#110e60" fill-opacity="1"><g transform="translate(255.440722, 31.444615)"><g><path d="M 12.59375 0 L 14.359375 -9.140625 C 14.554688 -10.066406 14.5 -10.875 14.1875 -11.5625 C 13.875 -12.25 13.234375 -12.59375 12.265625 -12.59375 C 11.265625 -12.59375 10.410156 -12.40625 9.703125 -12.03125 C 9.015625 -11.675781 8.414062 -11.1875 7.90625 -10.5625 C 7.019531 -9.476562 6.390625 -7.992188 6.015625 -6.109375 L 4.8125 0 L 2.5 0 L 5.34375 -14.625 L 7.671875 -14.625 L 7.171875 -12.09375 C 7.796875 -12.914062 8.550781 -13.582031 9.4375 -14.09375 C 10.363281 -14.644531 11.328125 -14.921875 12.328125 -14.921875 C 13.390625 -14.921875 14.210938 -14.773438 14.796875 -14.484375 C 15.347656 -14.203125 15.800781 -13.785156 16.15625 -13.234375 C 16.84375 -12.210938 17.019531 -10.847656 16.6875 -9.140625 L 14.921875 0 Z M 12.59375 0 "/></g></g></g><g fill="#110e60" fill-opacity="1"><g transform="translate(272.356717, 31.444615)"><g><path d="M 15.546875 -7.3125 C 15.816406 -8.726562 15.566406 -9.96875 14.796875 -11.03125 C 13.992188 -12.09375 12.875 -12.625 11.4375 -12.625 C 9.96875 -12.625 8.632812 -12.09375 7.4375 -11.03125 C 6.25 -9.96875 5.519531 -8.726562 5.25 -7.3125 C 4.988281 -5.875 5.234375 -4.632812 5.984375 -3.59375 C 6.773438 -2.53125 7.90625 -2 9.375 -2 C 10.8125 -2 12.128906 -2.53125 13.328125 -3.59375 C 14.546875 -4.675781 15.285156 -5.914062 15.546875 -7.3125 Z M 16.453125 0 L 14.125 0 L 14.625 -2.5 C 14.53125 -2.40625 14.4375 -2.316406 14.34375 -2.234375 C 14.257812 -2.160156 14.175781 -2.082031 14.09375 -2 C 12.40625 -0.445312 10.554688 0.328125 8.546875 0.328125 C 6.503906 0.328125 4.953125 -0.445312 3.890625 -2 C 2.847656 -3.476562 2.523438 -5.25 2.921875 -7.3125 C 3.316406 -9.375 4.328125 -11.144531 5.953125 -12.625 C 7.628906 -14.175781 9.476562 -14.953125 11.5 -14.953125 C 13.539062 -14.953125 15.09375 -14.175781 16.15625 -12.625 C 16.195312 -12.539062 16.25 -12.457031 16.3125 -12.375 C 16.382812 -12.300781 16.441406 -12.21875 16.484375 -12.125 L 16.984375 -14.625 L 19.3125 -14.625 Z M 16.453125 0 "/></g></g></g><g fill="#110e60" fill-opacity="1"><g transform="translate(291.299965, 31.444615)"><g><path d="M 4.8125 0 L 2.5 0 L 7.34375 -24.921875 L 9.671875 -24.921875 Z M 4.8125 0 "/></g></g></g><g fill="#110e60" fill-opacity="1"><g transform="translate(298.611391, 31.444615)"><g><path d="M 8.671875 -19.671875 C 8.890625 -19.390625 8.96875 -19.035156 8.90625 -18.609375 C 8.84375 -18.253906 8.632812 -17.910156 8.28125 -17.578125 C 7.96875 -17.296875 7.585938 -17.15625 7.140625 -17.15625 C 6.722656 -17.15625 6.40625 -17.296875 6.1875 -17.578125 C 5.957031 -17.867188 5.878906 -18.210938 5.953125 -18.609375 C 6.015625 -19.003906 6.222656 -19.359375 6.578125 -19.671875 C 6.890625 -19.960938 7.265625 -20.109375 7.703125 -20.109375 C 8.128906 -20.109375 8.453125 -19.960938 8.671875 -19.671875 Z M 4.984375 0 L 2.65625 0 L 5.515625 -14.625 L 7.84375 -14.625 Z M 4.984375 0 "/></g></g></g><g fill="#110e60" fill-opacity="1"><g transform="translate(306.221933, 31.444615)"><g><path d="M 5.015625 -2.09375 C 5.523438 -1.695312 6.234375 -1.5 7.140625 -1.5 C 9.316406 -1.5 10.546875 -2.296875 10.828125 -3.890625 C 10.984375 -4.816406 10.351562 -5.523438 8.9375 -6.015625 C 8.65625 -6.128906 8.347656 -6.234375 8.015625 -6.328125 C 7.679688 -6.429688 7.335938 -6.523438 6.984375 -6.609375 C 6.296875 -6.765625 5.648438 -7 5.046875 -7.3125 C 4.359375 -7.644531 3.875 -8.085938 3.59375 -8.640625 C 3.320312 -9.171875 3.253906 -9.800781 3.390625 -10.53125 C 3.648438 -11.976562 4.378906 -13.078125 5.578125 -13.828125 C 6.734375 -14.578125 8.019531 -14.953125 9.4375 -14.953125 C 10.144531 -14.953125 10.78125 -14.882812 11.34375 -14.75 C 11.914062 -14.625 12.410156 -14.40625 12.828125 -14.09375 C 13.628906 -13.539062 14.050781 -12.507812 14.09375 -11 L 11.59375 -11 C 11.507812 -11.820312 11.234375 -12.363281 10.765625 -12.625 C 10.296875 -12.894531 9.707031 -13.03125 9 -13.03125 C 8.269531 -13.03125 7.617188 -12.875 7.046875 -12.5625 C 6.472656 -12.25 6.117188 -11.757812 5.984375 -11.09375 C 5.847656 -10.4375 5.96875 -9.953125 6.34375 -9.640625 C 6.71875 -9.328125 7.207031 -9.070312 7.8125 -8.875 C 8.125 -8.78125 8.441406 -8.6875 8.765625 -8.59375 C 9.097656 -8.507812 9.441406 -8.425781 9.796875 -8.34375 C 10.148438 -8.25 10.488281 -8.140625 10.8125 -8.015625 C 11.132812 -7.898438 11.441406 -7.765625 11.734375 -7.609375 C 13.085938 -6.878906 13.617188 -5.738281 13.328125 -4.1875 C 13.035156 -2.632812 12.25 -1.472656 10.96875 -0.703125 C 10.300781 -0.328125 9.613281 -0.0351562 8.90625 0.171875 C 8.550781 0.253906 8.1875 0.316406 7.8125 0.359375 C 7.4375 0.410156 7.046875 0.4375 6.640625 0.4375 C 3.273438 0.4375 1.625 -1.070312 1.6875 -4.09375 L 4.15625 -4.09375 C 4.21875 -3.175781 4.503906 -2.507812 5.015625 -2.09375 Z M 5.015625 -2.09375 "/></g></g></g><g fill="#110e60" fill-opacity="1"><g transform="translate(319.581913, 31.444615)"><g><path d="M 21.03125 -0.0625 L 22.828125 -9.203125 C 23.117188 -10.710938 22.84375 -11.773438 22 -12.390625 C 21.707031 -12.597656 21.21875 -12.703125 20.53125 -12.703125 C 19.851562 -12.703125 19.179688 -12.5 18.515625 -12.09375 C 18.179688 -11.894531 17.867188 -11.664062 17.578125 -11.40625 C 17.296875 -11.15625 17.03125 -10.875 16.78125 -10.5625 C 16.695312 -10.4375 16.609375 -10.3125 16.515625 -10.1875 C 16.429688 -10.0625 16.34375 -9.921875 16.25 -9.765625 C 16.226562 -9.679688 16.210938 -9.59375 16.203125 -9.5 C 16.191406 -9.414062 16.175781 -9.316406 16.15625 -9.203125 L 14.359375 -0.0625 L 12.03125 -0.0625 L 13.828125 -9.203125 C 14.109375 -10.710938 13.832031 -11.773438 13 -12.390625 C 12.707031 -12.597656 12.21875 -12.703125 11.53125 -12.703125 C 10.84375 -12.703125 10.164062 -12.5 9.5 -12.09375 C 9.164062 -11.894531 8.851562 -11.664062 8.5625 -11.40625 C 8.28125 -11.15625 8.019531 -10.875 7.78125 -10.5625 C 7.132812 -9.726562 6.632812 -8.722656 6.28125 -7.546875 L 4.8125 -0.0625 L 2.5 -0.0625 L 5.34375 -14.6875 L 7.671875 -14.6875 L 7.21875 -12.359375 C 7.519531 -12.734375 7.835938 -13.078125 8.171875 -13.390625 C 8.503906 -13.703125 8.859375 -13.96875 9.234375 -14.1875 C 10.078125 -14.738281 11.019531 -15.015625 12.0625 -15.015625 C 13.101562 -15.015625 13.890625 -14.863281 14.421875 -14.5625 C 14.992188 -14.226562 15.425781 -13.796875 15.71875 -13.265625 C 15.8125 -13.109375 15.894531 -12.941406 15.96875 -12.765625 C 16.039062 -12.585938 16.101562 -12.410156 16.15625 -12.234375 C 16.457031 -12.628906 16.773438 -12.992188 17.109375 -13.328125 C 17.441406 -13.660156 17.8125 -13.945312 18.21875 -14.1875 C 19.050781 -14.738281 20.003906 -15.015625 21.078125 -15.015625 C 22.109375 -15.015625 22.894531 -14.863281 23.4375 -14.5625 C 24.007812 -14.226562 24.4375 -13.796875 24.71875 -13.265625 C 25.34375 -12.171875 25.488281 -10.816406 25.15625 -9.203125 L 23.359375 -0.0625 Z M 21.03125 -0.0625 "/></g></g></g></g></g></svg>