<svg xmlns="http://www.w3.org/2000/svg" xmlns:xlink="http://www.w3.org/1999/xlink" width="1240" zoomAndPan="magnify" viewBox="0 0 930 655.499985" height="874" preserveAspectRatio="xMidYMid meet" version="1.0"><defs><g/><clipPath id="356a34bddc"><rect x="0" width="244" y="0" height="30"/></clipPath><clipPath id="c12f12aa09"><path d="M 118 17 L 136 17 L 136 40.949219 L 118 40.949219 Z M 118 17 " clip-rule="nonzero"/></clipPath><clipPath id="79fc5af789"><rect x="0" width="349" y="0" height="41"/></clipPath><clipPath id="a8941fde09"><path d="M 0.171875 0.847656 L 303.828125 0.847656 L 303.828125 304.5 L 0.171875 304.5 Z M 0.171875 0.847656 " clip-rule="nonzero"/></clipPath><clipPath id="d9faf7b54e"><path d="M 152 0.847656 C 68.148438 0.847656 0.171875 68.820312 0.171875 152.671875 C 0.171875 236.523438 68.148438 304.5 152 304.5 C 235.851562 304.5 303.828125 236.523438 303.828125 152.671875 C 303.828125 68.820312 235.851562 0.847656 152 0.847656 Z M 152 0.847656 " clip-rule="nonzero"/></clipPath><clipPath id="272f568fb9"><path d="M 0.171875 0.847656 L 303.828125 0.847656 L 303.828125 304.5 L 0.171875 304.5 Z M 0.171875 0.847656 " clip-rule="nonzero"/></clipPath><clipPath id="379f115302"><path d="M 152 0.847656 C 68.148438 0.847656 0.171875 68.820312 0.171875 152.671875 C 0.171875 236.523438 68.148438 304.5 152 304.5 C 235.851562 304.5 303.828125 236.523438 303.828125 152.671875 C 303.828125 68.820312 235.851562 0.847656 152 0.847656 Z M 152 0.847656 " clip-rule="nonzero"/></clipPath><clipPath id="76af62a98d"><rect x="0" width="304" y="0" height="305"/></clipPath><clipPath id="42edff7ddb"><path d="M 122 78 L 263 78 L 263 268 L 122 268 Z M 122 78 " clip-rule="nonzero"/></clipPath><clipPath id="1f11a64ed9"><path d="M 214.800781 65.851562 L 275.949219 101.847656 L 170.78125 280.511719 L 109.632812 244.519531 Z M 214.800781 65.851562 " clip-rule="nonzero"/></clipPath><clipPath id="4d553cc4f0"><path d="M 245.375 83.847656 C 253.484375 88.621094 259.363281 96.421875 261.722656 105.53125 C 264.082031 114.640625 262.726562 124.3125 257.953125 132.421875 L 188.824219 249.859375 C 184.050781 257.96875 176.25 263.847656 167.144531 266.207031 C 158.035156 268.566406 148.359375 267.210938 140.253906 262.4375 C 132.144531 257.664062 126.261719 249.867188 123.90625 240.757812 C 121.546875 231.648438 122.902344 221.976562 127.675781 213.867188 L 196.804688 96.425781 C 201.578125 88.316406 209.375 82.4375 218.484375 80.078125 C 227.59375 77.71875 237.265625 79.078125 245.375 83.847656 Z M 245.375 83.847656 " clip-rule="nonzero"/></clipPath><clipPath id="ed02c60049"><path d="M 0 0 L 141 0 L 141 190 L 0 190 Z M 0 0 " clip-rule="nonzero"/></clipPath><clipPath id="316643f668"><path d="M 92.800781 -12.148438 L 153.949219 23.847656 L 48.78125 202.511719 L -12.367188 166.519531 Z M 92.800781 -12.148438 " clip-rule="nonzero"/></clipPath><clipPath id="a3022cc800"><path d="M 123.375 5.847656 C 131.484375 10.621094 137.363281 18.421875 139.722656 27.53125 C 142.082031 36.640625 140.726562 46.3125 135.953125 54.421875 L 66.824219 171.859375 C 62.050781 179.96875 54.25 185.847656 45.144531 188.207031 C 36.035156 190.566406 26.359375 189.210938 18.253906 184.4375 C 10.144531 179.664062 4.261719 171.867188 1.90625 162.757812 C -0.453125 153.648438 0.902344 143.976562 5.675781 135.867188 L 74.804688 18.425781 C 79.578125 10.316406 87.375 4.4375 96.484375 2.078125 C 105.59375 -0.28125 115.265625 1.078125 123.375 5.847656 Z M 123.375 5.847656 " clip-rule="nonzero"/></clipPath><clipPath id="6c0e60bbb9"><rect x="0" width="141" y="0" height="190"/></clipPath><clipPath id="1e486c7a92"><path d="M 38.871094 81.859375 L 109.753906 81.859375 L 109.753906 152.742188 L 38.871094 152.742188 Z M 38.871094 81.859375 " clip-rule="nonzero"/></clipPath><clipPath id="ac26a7d664"><rect x="0" width="304" y="0" height="305"/></clipPath></defs><g fill="#bdbdbd" fill-opacity="1"><g transform="translate(178.379538, 481.112276)"><g><path d="M 78.890625 0 L 56.84375 0 L 1.453125 -132.234375 L 27.015625 -132.234375 L 67.71875 -31.578125 L 68.109375 -31.765625 L 108.71875 -132.234375 L 134.375 -132.234375 Z M 78.890625 0 "/></g></g></g><g fill="#bdbdbd" fill-opacity="1"><g transform="translate(295.308352, 481.112276)"><g><path d="M 53.734375 3.015625 C 46.992188 3.015625 40.753906 1.65625 35.015625 -1.0625 C 29.285156 -3.789062 24.300781 -7.582031 20.0625 -12.4375 C 15.820312 -17.289062 12.535156 -22.925781 10.203125 -29.34375 C 7.867188 -35.757812 6.703125 -42.625 6.703125 -49.9375 C 6.703125 -57.257812 7.882812 -64.109375 10.25 -70.484375 C 12.613281 -76.867188 15.914062 -82.488281 20.15625 -87.34375 C 24.40625 -92.207031 29.378906 -96.015625 35.078125 -98.765625 C 40.773438 -101.515625 46.957031 -102.890625 53.625 -102.890625 C 61.789062 -102.890625 69.046875 -101.125 75.390625 -97.59375 C 81.742188 -94.0625 86.503906 -89.1875 89.671875 -82.96875 L 89.671875 -99.875 L 112.03125 -99.875 L 112.03125 0 L 89.671875 0 L 89.671875 -16.8125 C 86.441406 -10.59375 81.664062 -5.734375 75.34375 -2.234375 C 69.03125 1.265625 61.828125 3.015625 53.734375 3.015625 Z M 59.359375 -18.75 C 63.441406 -18.75 67.265625 -19.539062 70.828125 -21.125 C 74.390625 -22.71875 77.515625 -24.921875 80.203125 -27.734375 C 82.890625 -30.554688 84.976562 -33.859375 86.46875 -37.640625 C 87.957031 -41.429688 88.703125 -45.53125 88.703125 -49.9375 C 88.703125 -54.28125 87.941406 -58.34375 86.421875 -62.125 C 84.898438 -65.914062 82.8125 -69.238281 80.15625 -72.09375 C 77.5 -74.945312 74.390625 -77.164062 70.828125 -78.75 C 67.265625 -80.332031 63.441406 -81.125 59.359375 -81.125 C 53.984375 -81.125 49.078125 -79.828125 44.640625 -77.234375 C 40.203125 -74.648438 36.65625 -71.023438 34 -66.359375 C 31.34375 -61.691406 30.015625 -56.21875 30.015625 -49.9375 C 30.015625 -43.457031 31.359375 -37.882812 34.046875 -33.21875 C 36.742188 -28.5625 40.328125 -24.984375 44.796875 -22.484375 C 49.265625 -19.992188 54.117188 -18.75 59.359375 -18.75 Z M 59.359375 -18.75 "/></g></g></g><g fill="#bdbdbd" fill-opacity="1"><g transform="translate(402.229459, 481.112276)"><g><path d="M 37.3125 0 L 13.796875 0 L 13.796875 -136.90625 L 37.3125 -136.90625 Z M 37.3125 0 "/></g></g></g><g fill="#191919" fill-opacity="1"><g transform="translate(434.344434, 481.112276)"><g><path d="M 37.3125 34.109375 L 13.796875 34.109375 L 13.796875 -99.875 L 36.140625 -99.875 L 36.140625 -83.078125 C 39.765625 -89.097656 44.585938 -93.890625 50.609375 -97.453125 C 56.640625 -101.015625 63.25 -102.796875 70.4375 -102.796875 C 77.5625 -102.796875 84.085938 -101.414062 90.015625 -98.65625 C 95.941406 -95.90625 101.070312 -92.117188 105.40625 -87.296875 C 109.75 -82.472656 113.117188 -76.867188 115.515625 -70.484375 C 117.921875 -64.109375 119.125 -57.257812 119.125 -49.9375 C 119.125 -42.625 117.921875 -35.757812 115.515625 -29.34375 C 113.117188 -22.925781 109.734375 -17.289062 105.359375 -12.4375 C 100.992188 -7.582031 95.878906 -3.789062 90.015625 -1.0625 C 84.148438 1.65625 77.722656 3.015625 70.734375 3.015625 C 65.878906 3.015625 61.28125 2.21875 56.9375 0.625 C 52.59375 -0.957031 48.703125 -3.1875 45.265625 -6.0625 C 41.835938 -8.945312 39.023438 -12.300781 36.828125 -16.125 L 37.3125 -4.5625 Z M 66.453125 -18.65625 C 71.765625 -18.65625 76.640625 -19.914062 81.078125 -22.4375 C 85.515625 -24.96875 89.078125 -28.582031 91.765625 -33.28125 C 94.453125 -37.976562 95.796875 -43.53125 95.796875 -49.9375 C 95.796875 -56.21875 94.46875 -61.691406 91.8125 -66.359375 C 89.15625 -71.023438 85.609375 -74.648438 81.171875 -77.234375 C 76.734375 -79.828125 71.796875 -81.125 66.359375 -81.125 C 62.273438 -81.125 58.46875 -80.332031 54.9375 -78.75 C 51.414062 -77.164062 48.304688 -74.945312 45.609375 -72.09375 C 42.921875 -69.238281 40.816406 -65.929688 39.296875 -62.171875 C 37.773438 -58.421875 37.015625 -54.34375 37.015625 -49.9375 C 37.015625 -45.40625 37.789062 -41.226562 39.34375 -37.40625 C 40.90625 -33.582031 43.046875 -30.257812 45.765625 -27.4375 C 48.484375 -24.625 51.625 -22.457031 55.1875 -20.9375 C 58.75 -19.414062 62.503906 -18.65625 66.453125 -18.65625 Z M 66.453125 -18.65625 "/></g></g></g><g fill="#191919" fill-opacity="1"><g transform="translate(541.26554, 481.112276)"><g><path d="M 37.3125 0 L 13.796875 0 L 13.796875 -99.875 L 36.34375 -99.875 L 36.34375 -81.8125 C 38.664062 -87.3125 42.09375 -91.695312 46.625 -94.96875 C 51.164062 -98.238281 56.675781 -99.875 63.15625 -99.875 L 73.84375 -99.875 L 73.84375 -79.671875 L 64.421875 -79.671875 C 59.046875 -79.671875 54.316406 -78.375 50.234375 -75.78125 C 46.148438 -73.195312 42.972656 -69.441406 40.703125 -64.515625 C 38.441406 -59.585938 37.3125 -53.5625 37.3125 -46.4375 Z M 37.3125 0 "/></g></g></g><g fill="#191919" fill-opacity="1"><g transform="translate(599.2169, 481.112276)"><g><path d="M 59.171875 3.015625 C 51.585938 3.015625 44.585938 1.65625 38.171875 -1.0625 C 31.765625 -3.789062 26.210938 -7.582031 21.515625 -12.4375 C 16.828125 -17.289062 13.1875 -22.925781 10.59375 -29.34375 C 8 -35.757812 6.703125 -42.625 6.703125 -49.9375 C 6.703125 -57.257812 8 -64.109375 10.59375 -70.484375 C 13.1875 -76.867188 16.828125 -82.488281 21.515625 -87.34375 C 26.210938 -92.207031 31.765625 -96.015625 38.171875 -98.765625 C 44.585938 -101.515625 51.617188 -102.890625 59.265625 -102.890625 C 66.972656 -102.890625 74.03125 -101.515625 80.4375 -98.765625 C 86.851562 -96.015625 92.425781 -92.207031 97.15625 -87.34375 C 101.882812 -82.488281 105.546875 -76.867188 108.140625 -70.484375 C 110.734375 -64.109375 112.03125 -57.257812 112.03125 -49.9375 C 112.03125 -42.550781 110.734375 -35.664062 108.140625 -29.28125 C 105.546875 -22.90625 101.882812 -17.289062 97.15625 -12.4375 C 92.425781 -7.582031 86.835938 -3.789062 80.390625 -1.0625 C 73.953125 1.65625 66.878906 3.015625 59.171875 3.015625 Z M 59.359375 -18.84375 C 64.992188 -18.84375 70.015625 -20.1875 74.421875 -22.875 C 78.828125 -25.5625 82.304688 -29.238281 84.859375 -33.90625 C 87.421875 -38.570312 88.703125 -43.914062 88.703125 -49.9375 C 88.703125 -55.957031 87.421875 -61.316406 84.859375 -66.015625 C 82.304688 -70.710938 78.828125 -74.40625 74.421875 -77.09375 C 70.015625 -79.78125 64.992188 -81.125 59.359375 -81.125 C 53.796875 -81.125 48.796875 -79.78125 44.359375 -77.09375 C 39.921875 -74.40625 36.421875 -70.710938 33.859375 -66.015625 C 31.296875 -61.316406 30.015625 -55.957031 30.015625 -49.9375 C 30.015625 -43.914062 31.296875 -38.570312 33.859375 -33.90625 C 36.421875 -29.238281 39.921875 -25.5625 44.359375 -22.875 C 48.796875 -20.1875 53.796875 -18.84375 59.359375 -18.84375 Z M 59.359375 -18.84375 "/></g></g></g><g fill="#191919" fill-opacity="1"><g transform="translate(699.045173, 481.112276)"><g><path d="M 26.140625 2.421875 C 23.421875 2.421875 21.039062 1.835938 19 0.671875 C 16.957031 -0.484375 15.351562 -2.050781 14.1875 -4.03125 C 13.019531 -6.007812 12.4375 -8.164062 12.4375 -10.5 C 12.4375 -12.820312 13.003906 -14.972656 14.140625 -16.953125 C 15.273438 -18.929688 16.878906 -20.503906 18.953125 -21.671875 C 21.023438 -22.835938 23.453125 -23.421875 26.234375 -23.421875 C 29.015625 -23.421875 31.425781 -22.835938 33.46875 -21.671875 C 35.507812 -20.503906 37.113281 -18.929688 38.28125 -16.953125 C 39.445312 -14.972656 40.03125 -12.820312 40.03125 -10.5 C 40.03125 -6.9375 38.765625 -3.890625 36.234375 -1.359375 C 33.710938 1.160156 30.347656 2.421875 26.140625 2.421875 Z M 26.140625 2.421875 "/></g></g></g><g transform="matrix(1, 0, 0, 1, 478, 497)"><g clip-path="url(#356a34bddc)"><g fill="#191919" fill-opacity="1"><g transform="translate(0.336233, 22.145262)"><g><path d="M 5.921875 0 L 2.34375 0 L 2.34375 -19.625 L 5.921875 -19.625 Z M 5.921875 0 "/></g></g></g><g fill="#191919" fill-opacity="1"><g transform="translate(17.836906, 22.145262)"><g><path d="M 5.921875 0 L 2.34375 0 L 2.34375 -19.625 L 5.421875 -19.625 L 16.109375 -5.890625 L 16.109375 -19.625 L 19.6875 -19.625 L 19.6875 0 L 16.625 0 L 5.921875 -13.71875 Z M 5.921875 0 "/></g></g></g><g fill="#191919" fill-opacity="1"><g transform="translate(49.107505, 22.145262)"><g><path d="M 10.046875 0 L 6.46875 0 L 6.46875 -16.421875 L 0.625 -16.421875 L 0.625 -19.625 L 15.890625 -19.625 L 15.890625 -16.421875 L 10.046875 -16.421875 Z M 10.046875 0 "/></g></g></g><g fill="#191919" fill-opacity="1"><g transform="translate(74.855715, 22.145262)"><g><path d="M 15.90625 0 L 2.34375 0 L 2.34375 -19.625 L 15.78125 -19.625 L 15.78125 -16.40625 L 5.921875 -16.40625 L 5.921875 -11.484375 L 14.4375 -11.484375 L 14.4375 -8.453125 L 5.921875 -8.453125 L 5.921875 -3.21875 L 15.90625 -3.21875 Z M 15.90625 0 "/></g></g></g><g fill="#191919" fill-opacity="1"><g transform="translate(100.949975, 22.145262)"><g><path d="M 5.921875 0 L 2.34375 0 L 2.34375 -19.625 L 10.8125 -19.625 C 11.800781 -19.625 12.707031 -19.472656 13.53125 -19.171875 C 14.363281 -18.867188 15.082031 -18.429688 15.6875 -17.859375 C 16.300781 -17.296875 16.773438 -16.617188 17.109375 -15.828125 C 17.441406 -15.046875 17.609375 -14.179688 17.609375 -13.234375 C 17.609375 -12.304688 17.441406 -11.460938 17.109375 -10.703125 C 16.785156 -9.941406 16.320312 -9.289062 15.71875 -8.75 C 15.125 -8.207031 14.425781 -7.796875 13.625 -7.515625 L 18.0625 0 L 13.9375 0 L 10.0625 -6.96875 C 9.9375 -6.957031 9.8125 -6.953125 9.6875 -6.953125 C 9.5625 -6.953125 9.429688 -6.953125 9.296875 -6.953125 L 5.921875 -6.953125 Z M 5.921875 -16.421875 L 5.921875 -9.984375 L 10.671875 -9.984375 C 11.304688 -9.992188 11.875 -10.132812 12.375 -10.40625 C 12.882812 -10.6875 13.285156 -11.066406 13.578125 -11.546875 C 13.867188 -12.035156 14.015625 -12.597656 14.015625 -13.234375 C 14.015625 -13.828125 13.863281 -14.363281 13.5625 -14.84375 C 13.269531 -15.320312 12.867188 -15.703125 12.359375 -15.984375 C 11.859375 -16.273438 11.289062 -16.421875 10.65625 -16.421875 Z M 5.921875 -16.421875 "/></g></g></g><g fill="#191919" fill-opacity="1"><g transform="translate(128.875419, 22.145262)"><g><path d="M 10.046875 0 L 6.46875 0 L 6.46875 -16.421875 L 0.625 -16.421875 L 0.625 -19.625 L 15.890625 -19.625 L 15.890625 -16.421875 L 10.046875 -16.421875 Z M 10.046875 0 "/></g></g></g><g fill="#191919" fill-opacity="1"><g transform="translate(154.623629, 22.145262)"><g><path d="M 15.90625 0 L 2.34375 0 L 2.34375 -19.625 L 15.78125 -19.625 L 15.78125 -16.40625 L 5.921875 -16.40625 L 5.921875 -11.484375 L 14.4375 -11.484375 L 14.4375 -8.453125 L 5.921875 -8.453125 L 5.921875 -3.21875 L 15.90625 -3.21875 Z M 15.90625 0 "/></g></g></g><g fill="#191919" fill-opacity="1"><g transform="translate(180.717889, 22.145262)"><g><path d="M 11.3125 0.421875 C 10.15625 0.421875 9.054688 0.25 8.015625 -0.09375 C 6.984375 -0.4375 6.035156 -0.921875 5.171875 -1.546875 C 4.304688 -2.171875 3.554688 -2.910156 2.921875 -3.765625 C 2.296875 -4.617188 1.8125 -5.5625 1.46875 -6.59375 C 1.125 -7.625 0.953125 -8.707031 0.953125 -9.84375 C 0.953125 -10.988281 1.125 -12.070312 1.46875 -13.09375 C 1.8125 -14.113281 2.296875 -15.050781 2.921875 -15.90625 C 3.554688 -16.757812 4.304688 -17.5 5.171875 -18.125 C 6.035156 -18.75 6.984375 -19.226562 8.015625 -19.5625 C 9.054688 -19.90625 10.15625 -20.078125 11.3125 -20.078125 C 12.351562 -20.078125 13.378906 -19.921875 14.390625 -19.609375 C 15.410156 -19.304688 16.363281 -18.835938 17.25 -18.203125 C 18.132812 -17.578125 18.882812 -16.785156 19.5 -15.828125 C 20.113281 -14.867188 20.539062 -13.734375 20.78125 -12.421875 L 17.109375 -12.421875 C 16.847656 -13.429688 16.429688 -14.257812 15.859375 -14.90625 C 15.285156 -15.550781 14.597656 -16.023438 13.796875 -16.328125 C 13.003906 -16.640625 12.140625 -16.796875 11.203125 -16.796875 C 10.285156 -16.796875 9.421875 -16.628906 8.609375 -16.296875 C 7.804688 -15.960938 7.097656 -15.488281 6.484375 -14.875 C 5.867188 -14.257812 5.390625 -13.523438 5.046875 -12.671875 C 4.710938 -11.816406 4.546875 -10.867188 4.546875 -9.828125 C 4.546875 -8.753906 4.710938 -7.789062 5.046875 -6.9375 C 5.390625 -6.09375 5.867188 -5.367188 6.484375 -4.765625 C 7.097656 -4.160156 7.804688 -3.695312 8.609375 -3.375 C 9.421875 -3.050781 10.285156 -2.890625 11.203125 -2.890625 C 12.140625 -2.890625 13.003906 -3.039062 13.796875 -3.34375 C 14.585938 -3.65625 15.269531 -4.128906 15.84375 -4.765625 C 16.425781 -5.410156 16.84375 -6.238281 17.09375 -7.25 L 20.78125 -7.25 C 20.539062 -5.9375 20.113281 -4.796875 19.5 -3.828125 C 18.882812 -2.859375 18.140625 -2.0625 17.265625 -1.4375 C 16.390625 -0.8125 15.441406 -0.34375 14.421875 -0.03125 C 13.398438 0.269531 12.363281 0.421875 11.3125 0.421875 Z M 11.3125 0.421875 "/></g></g></g><g fill="#191919" fill-opacity="1"><g transform="translate(211.700113, 22.145262)"><g><path d="M 5.921875 0 L 2.34375 0 L 2.34375 -19.625 L 5.921875 -19.625 L 5.921875 -11.484375 L 15.828125 -11.484375 L 15.828125 -19.625 L 19.4375 -19.625 L 19.4375 0 L 15.828125 0 L 15.828125 -8.28125 L 5.921875 -8.28125 Z M 5.921875 0 "/></g></g></g></g></g><g transform="matrix(1, 0, 0, 1, 291, 549)"><g clip-path="url(#79fc5af789)"><g fill="#000000" fill-opacity="1"><g transform="translate(0.877812, 32.483741)"><g><path d="M 22.375 -11.375 C 22.039062 -9.75 21.441406 -8.234375 20.578125 -6.828125 C 19.722656 -5.441406 18.660156 -4.238281 17.390625 -3.21875 C 16.765625 -2.71875 16.109375 -2.269531 15.421875 -1.875 C 14.734375 -1.488281 14 -1.15625 13.21875 -0.875 C 11.65625 -0.289062 10.070312 0 8.46875 0 L 2.515625 0 L 6.921875 -22.75 L 12.875 -22.75 C 14.476562 -22.75 15.953125 -22.457031 17.296875 -21.875 C 18.628906 -21.300781 19.722656 -20.519531 20.578125 -19.53125 C 21.421875 -18.570312 22.007812 -17.367188 22.34375 -15.921875 C 22.519531 -15.234375 22.613281 -14.507812 22.625 -13.75 C 22.632812 -12.988281 22.550781 -12.195312 22.375 -11.375 Z M 20.109375 -11.375 C 20.617188 -13.976562 20.128906 -16.140625 18.640625 -17.859375 C 17.160156 -19.554688 15.117188 -20.40625 12.515625 -20.40625 L 8.828125 -20.40625 L 5.3125 -2.34375 L 9 -2.34375 C 11.632812 -2.34375 14 -3.191406 16.09375 -4.890625 C 18.28125 -6.628906 19.617188 -8.789062 20.109375 -11.375 Z M 20.109375 -11.375 "/></g></g></g><g fill="#000000" fill-opacity="1"><g transform="translate(22.550855, 32.483741)"><g><path d="M 12.34375 -11.671875 C 11.914062 -12.160156 11.390625 -12.40625 10.765625 -12.40625 C 10.171875 -12.40625 9.613281 -12.238281 9.09375 -11.90625 C 8.851562 -11.75 8.617188 -11.554688 8.390625 -11.328125 C 8.171875 -11.109375 7.960938 -10.878906 7.765625 -10.640625 C 7.003906 -9.660156 6.515625 -8.566406 6.296875 -7.359375 L 4.84375 0 L 2.515625 0 L 5.390625 -14.71875 L 7.734375 -14.71875 L 7.125 -11.671875 L 7.328125 -12.28125 C 8.460938 -14.101562 9.859375 -15.015625 11.515625 -15.015625 C 12.046875 -15.015625 12.523438 -14.914062 12.953125 -14.71875 Z M 12.34375 -11.671875 "/></g></g></g><g fill="#000000" fill-opacity="1"><g transform="translate(32.952576, 32.483741)"><g><path d="M 8.734375 -19.796875 C 8.953125 -19.515625 9.03125 -19.160156 8.96875 -18.734375 C 8.894531 -18.378906 8.679688 -18.035156 8.328125 -17.703125 C 8.015625 -17.410156 7.632812 -17.265625 7.1875 -17.265625 C 6.769531 -17.265625 6.445312 -17.410156 6.21875 -17.703125 C 6 -17.984375 5.921875 -18.328125 5.984375 -18.734375 C 6.054688 -19.140625 6.269531 -19.492188 6.625 -19.796875 C 6.9375 -20.085938 7.316406 -20.234375 7.765625 -20.234375 C 8.179688 -20.234375 8.503906 -20.085938 8.734375 -19.796875 Z M 5.015625 0 L 2.671875 0 L 5.546875 -14.71875 L 7.890625 -14.71875 Z M 5.015625 0 "/></g></g></g><g fill="#000000" fill-opacity="1"><g transform="translate(40.611721, 32.483741)"><g><path d="M 6.859375 1.40625 L 3.21875 -14.71875 L 5.75 -14.71875 L 7.859375 -3.78125 L 14.21875 -14.71875 L 16.765625 -14.71875 Z M 6.859375 1.40625 "/></g></g></g><g fill="#000000" fill-opacity="1"><g transform="translate(54.826296, 32.483741)"><g><path d="M 18.40625 -7.6875 L 18.171875 -6.453125 L 5.21875 -6.453125 C 5.195312 -5.179688 5.597656 -4.144531 6.421875 -3.34375 C 7.265625 -2.519531 8.320312 -2.109375 9.59375 -2.109375 C 10.019531 -2.109375 10.445312 -2.148438 10.875 -2.234375 C 11.300781 -2.328125 11.722656 -2.472656 12.140625 -2.671875 C 12.566406 -2.878906 12.96875 -3.113281 13.34375 -3.375 C 13.726562 -3.644531 14.078125 -3.957031 14.390625 -4.3125 L 17.0625 -4.3125 C 16.164062 -2.90625 15.003906 -1.800781 13.578125 -1 C 12.128906 -0.175781 10.769531 0.234375 9.5 0.234375 C 8.207031 0.234375 7.140625 0.03125 6.296875 -0.375 C 5.867188 -0.570312 5.472656 -0.800781 5.109375 -1.0625 C 4.753906 -1.332031 4.429688 -1.644531 4.140625 -2 C 2.941406 -3.476562 2.539062 -5.285156 2.9375 -7.421875 C 3.34375 -9.546875 4.445312 -11.351562 6.25 -12.84375 C 8.082031 -14.363281 10.046875 -15.125 12.140625 -15.125 C 14.191406 -15.125 15.84375 -14.398438 17.09375 -12.953125 C 18.363281 -11.472656 18.800781 -9.71875 18.40625 -7.6875 Z M 16.0625 -8.46875 C 16.007812 -9.738281 15.582031 -10.773438 14.78125 -11.578125 C 13.976562 -12.378906 12.941406 -12.78125 11.671875 -12.78125 C 9.773438 -12.78125 8.101562 -11.910156 6.65625 -10.171875 C 6.207031 -9.628906 5.863281 -9.0625 5.625 -8.46875 Z M 16.0625 -8.46875 "/></g></g></g><g fill="#000000" fill-opacity="1"><g transform="translate(73.054395, 32.483741)"><g><path d="M 12.671875 0 L 14.453125 -9.203125 C 14.648438 -10.140625 14.59375 -10.953125 14.28125 -11.640625 C 13.96875 -12.328125 13.320312 -12.671875 12.34375 -12.671875 C 11.34375 -12.671875 10.484375 -12.484375 9.765625 -12.109375 C 9.078125 -11.753906 8.476562 -11.265625 7.96875 -10.640625 C 7.070312 -9.546875 6.4375 -8.050781 6.0625 -6.15625 L 4.84375 0 L 2.515625 0 L 5.390625 -14.71875 L 7.734375 -14.71875 L 7.21875 -12.171875 C 7.84375 -13.003906 8.601562 -13.675781 9.5 -14.1875 C 10.4375 -14.738281 11.40625 -15.015625 12.40625 -15.015625 C 13.476562 -15.015625 14.304688 -14.867188 14.890625 -14.578125 C 15.441406 -14.296875 15.898438 -13.875 16.265625 -13.3125 C 16.953125 -12.289062 17.128906 -10.921875 16.796875 -9.203125 L 15.015625 0 Z M 12.671875 0 "/></g></g></g><g fill="#000000" fill-opacity="1"><g transform="translate(90.078432, 32.483741)"><g/></g></g><g fill="#000000" fill-opacity="1"><g transform="translate(99.108867, 32.483741)"><g><path d="M 4.84375 0 L 2.515625 0 L 7.390625 -25.09375 L 9.734375 -25.09375 L 7.21875 -12.203125 L 7.734375 -12.71875 C 9.421875 -14.269531 11.28125 -15.046875 13.3125 -15.046875 C 15.363281 -15.046875 16.925781 -14.269531 18 -12.71875 C 19.070312 -11.195312 19.40625 -9.410156 19 -7.359375 C 18.601562 -5.304688 17.578125 -3.519531 15.921875 -2 C 14.222656 -0.445312 12.363281 0.328125 10.34375 0.328125 C 8.289062 0.328125 6.726562 -0.445312 5.65625 -2 L 5.359375 -2.515625 Z M 16.65625 -7.359375 C 16.925781 -8.785156 16.671875 -10.035156 15.890625 -11.109375 C 15.085938 -12.179688 13.960938 -12.71875 12.515625 -12.71875 C 11.035156 -12.71875 9.695312 -12.179688 8.5 -11.109375 C 7.289062 -10.035156 6.554688 -8.785156 6.296875 -7.359375 C 6.023438 -5.910156 6.269531 -4.660156 7.03125 -3.609375 C 7.832031 -2.535156 8.96875 -2 10.4375 -2 C 11.882812 -2 13.210938 -2.535156 14.421875 -3.609375 C 15.648438 -4.703125 16.394531 -5.953125 16.65625 -7.359375 Z M 16.65625 -7.359375 "/></g></g></g><g clip-path="url(#c12f12aa09)"><g fill="#000000" fill-opacity="1"><g transform="translate(118.173117, 32.483741)"><g><path d="M 2.75 8.359375 L -0.09375 8.359375 L 6.953125 -2.40625 L 3.21875 -14.71875 L 5.890625 -14.71875 L 8.671875 -4.84375 L 14.8125 -14.71875 L 17.421875 -14.71875 Z M 2.75 8.359375 "/></g></g></g></g><g fill="#000000" fill-opacity="1"><g transform="translate(132.387692, 32.483741)"><g/></g></g><g fill="#000000" fill-opacity="1"><g transform="translate(141.418127, 32.483741)"><g><path d="M 7.0625 -11.28125 L 12.34375 -11.28125 C 13.59375 -11.28125 14.753906 -11.722656 15.828125 -12.609375 C 16.867188 -13.523438 17.523438 -14.640625 17.796875 -15.953125 C 18.066406 -17.296875 17.863281 -18.390625 17.1875 -19.234375 C 16.519531 -20.078125 15.5 -20.5 14.125 -20.5 L 8.828125 -20.5 Z M 20.109375 -15.890625 C 19.703125 -13.878906 18.675781 -12.226562 17.03125 -10.9375 C 15.351562 -9.644531 13.523438 -9 11.546875 -9 L 6.59375 -9 L 4.84375 0 L 2.515625 0 L 6.921875 -22.75 L 14.21875 -22.75 C 16.25 -22.75 17.832031 -22.113281 18.96875 -20.84375 C 20.125 -19.550781 20.503906 -17.898438 20.109375 -15.890625 Z M 20.109375 -15.890625 "/></g></g></g><g fill="#000000" fill-opacity="1"><g transform="translate(159.111102, 32.483741)"><g><path d="M 12.34375 -11.671875 C 11.914062 -12.160156 11.390625 -12.40625 10.765625 -12.40625 C 10.171875 -12.40625 9.613281 -12.238281 9.09375 -11.90625 C 8.851562 -11.75 8.617188 -11.554688 8.390625 -11.328125 C 8.171875 -11.109375 7.960938 -10.878906 7.765625 -10.640625 C 7.003906 -9.660156 6.515625 -8.566406 6.296875 -7.359375 L 4.84375 0 L 2.515625 0 L 5.390625 -14.71875 L 7.734375 -14.71875 L 7.125 -11.671875 L 7.328125 -12.28125 C 8.460938 -14.101562 9.859375 -15.015625 11.515625 -15.015625 C 12.046875 -15.015625 12.523438 -14.914062 12.953125 -14.71875 Z M 12.34375 -11.671875 "/></g></g></g><g fill="#000000" fill-opacity="1"><g transform="translate(169.512812, 32.483741)"><g><path d="M 15.984375 -7.421875 C 16.273438 -8.867188 16 -10.128906 15.15625 -11.203125 C 14.3125 -12.253906 13.148438 -12.78125 11.671875 -12.78125 C 10.203125 -12.78125 8.84375 -12.253906 7.59375 -11.203125 C 6.363281 -10.179688 5.59375 -8.921875 5.28125 -7.421875 C 5.019531 -5.953125 5.300781 -4.707031 6.125 -3.6875 C 6.96875 -2.632812 8.125 -2.109375 9.59375 -2.109375 C 11.070312 -2.109375 12.4375 -2.632812 13.6875 -3.6875 C 14.957031 -4.75 15.722656 -5.992188 15.984375 -7.421875 Z M 18.328125 -7.421875 C 17.929688 -5.285156 16.828125 -3.476562 15.015625 -2 C 13.234375 -0.507812 11.285156 0.234375 9.171875 0.234375 C 7.046875 0.234375 5.367188 -0.507812 4.140625 -2 C 2.941406 -3.476562 2.539062 -5.285156 2.9375 -7.421875 C 3.34375 -9.546875 4.445312 -11.351562 6.25 -12.84375 C 8.082031 -14.363281 10.046875 -15.125 12.140625 -15.125 C 14.265625 -15.125 15.925781 -14.363281 17.125 -12.84375 C 18.332031 -11.351562 18.734375 -9.546875 18.328125 -7.421875 Z M 18.328125 -7.421875 "/></g></g></g><g fill="#000000" fill-opacity="1"><g transform="translate(187.908147, 32.483741)"><g><path d="M 14.859375 -22.921875 L 12.84375 -22.921875 C 12.039062 -22.921875 11.492188 -22.738281 11.203125 -22.375 C 10.867188 -21.976562 10.660156 -21.546875 10.578125 -21.078125 L 9.359375 -14.71875 L 13.28125 -14.71875 L 12.84375 -12.546875 L 8.9375 -12.546875 L 6.484375 0 L 4.140625 0 L 6.59375 -12.546875 L 3.609375 -12.546875 L 4.046875 -14.71875 L 7.03125 -14.71875 L 8.125 -20.40625 C 8.28125 -21.164062 8.5 -21.832031 8.78125 -22.40625 C 9.0625 -22.988281 9.410156 -23.484375 9.828125 -23.890625 C 10.703125 -24.691406 11.960938 -25.09375 13.609375 -25.09375 L 15.28125 -25.09375 Z M 14.859375 -22.921875 "/></g></g></g><g fill="#000000" fill-opacity="1"><g transform="translate(199.313252, 32.483741)"><g><path d="M 18.40625 -7.6875 L 18.171875 -6.453125 L 5.21875 -6.453125 C 5.195312 -5.179688 5.597656 -4.144531 6.421875 -3.34375 C 7.265625 -2.519531 8.320312 -2.109375 9.59375 -2.109375 C 10.019531 -2.109375 10.445312 -2.148438 10.875 -2.234375 C 11.300781 -2.328125 11.722656 -2.472656 12.140625 -2.671875 C 12.566406 -2.878906 12.96875 -3.113281 13.34375 -3.375 C 13.726562 -3.644531 14.078125 -3.957031 14.390625 -4.3125 L 17.0625 -4.3125 C 16.164062 -2.90625 15.003906 -1.800781 13.578125 -1 C 12.128906 -0.175781 10.769531 0.234375 9.5 0.234375 C 8.207031 0.234375 7.140625 0.03125 6.296875 -0.375 C 5.867188 -0.570312 5.472656 -0.800781 5.109375 -1.0625 C 4.753906 -1.332031 4.429688 -1.644531 4.140625 -2 C 2.941406 -3.476562 2.539062 -5.285156 2.9375 -7.421875 C 3.34375 -9.546875 4.445312 -11.351562 6.25 -12.84375 C 8.082031 -14.363281 10.046875 -15.125 12.140625 -15.125 C 14.191406 -15.125 15.84375 -14.398438 17.09375 -12.953125 C 18.363281 -11.472656 18.800781 -9.71875 18.40625 -7.6875 Z M 16.0625 -8.46875 C 16.007812 -9.738281 15.582031 -10.773438 14.78125 -11.578125 C 13.976562 -12.378906 12.941406 -12.78125 11.671875 -12.78125 C 9.773438 -12.78125 8.101562 -11.910156 6.65625 -10.171875 C 6.207031 -9.628906 5.863281 -9.0625 5.625 -8.46875 Z M 16.0625 -8.46875 "/></g></g></g><g fill="#000000" fill-opacity="1"><g transform="translate(217.541346, 32.483741)"><g><path d="M 5.046875 -2.109375 C 5.566406 -1.703125 6.28125 -1.5 7.1875 -1.5 C 9.375 -1.5 10.613281 -2.300781 10.90625 -3.90625 C 11.0625 -4.84375 10.425781 -5.5625 9 -6.0625 C 8.707031 -6.164062 8.394531 -6.265625 8.0625 -6.359375 C 7.726562 -6.460938 7.382812 -6.5625 7.03125 -6.65625 C 6.332031 -6.8125 5.679688 -7.046875 5.078125 -7.359375 C 4.390625 -7.691406 3.898438 -8.140625 3.609375 -8.703125 C 3.347656 -9.234375 3.28125 -9.867188 3.40625 -10.609375 C 3.675781 -12.054688 4.414062 -13.160156 5.625 -13.921875 C 6.78125 -14.671875 8.070312 -15.046875 9.5 -15.046875 C 10.21875 -15.046875 10.859375 -14.976562 11.421875 -14.84375 C 11.992188 -14.71875 12.488281 -14.5 12.90625 -14.1875 C 13.71875 -13.625 14.144531 -12.585938 14.1875 -11.078125 L 11.671875 -11.078125 C 11.585938 -11.898438 11.3125 -12.445312 10.84375 -12.71875 C 10.375 -12.976562 9.78125 -13.109375 9.0625 -13.109375 C 8.332031 -13.109375 7.675781 -12.953125 7.09375 -12.640625 C 6.507812 -12.328125 6.148438 -11.835938 6.015625 -11.171875 C 5.890625 -10.503906 6.015625 -10.015625 6.390625 -9.703125 C 6.765625 -9.390625 7.253906 -9.132812 7.859375 -8.9375 C 8.171875 -8.84375 8.492188 -8.75 8.828125 -8.65625 C 9.160156 -8.570312 9.507812 -8.484375 9.875 -8.390625 C 10.226562 -8.304688 10.566406 -8.203125 10.890625 -8.078125 C 11.210938 -7.953125 11.519531 -7.8125 11.8125 -7.65625 C 13.164062 -6.925781 13.703125 -5.78125 13.421875 -4.21875 C 13.128906 -2.65625 12.335938 -1.484375 11.046875 -0.703125 C 10.367188 -0.328125 9.675781 -0.0351562 8.96875 0.171875 C 8.613281 0.253906 8.242188 0.316406 7.859375 0.359375 C 7.484375 0.410156 7.09375 0.4375 6.6875 0.4375 C 3.300781 0.4375 1.640625 -1.078125 1.703125 -4.109375 L 4.1875 -4.109375 C 4.25 -3.203125 4.535156 -2.535156 5.046875 -2.109375 Z M 5.046875 -2.109375 "/></g></g></g><g fill="#000000" fill-opacity="1"><g transform="translate(230.986671, 32.483741)"><g><path d="M 8.734375 -19.796875 C 8.953125 -19.515625 9.03125 -19.160156 8.96875 -18.734375 C 8.894531 -18.378906 8.679688 -18.035156 8.328125 -17.703125 C 8.015625 -17.410156 7.632812 -17.265625 7.1875 -17.265625 C 6.769531 -17.265625 6.445312 -17.410156 6.21875 -17.703125 C 6 -17.984375 5.921875 -18.328125 5.984375 -18.734375 C 6.054688 -19.140625 6.269531 -19.492188 6.625 -19.796875 C 6.9375 -20.085938 7.316406 -20.234375 7.765625 -20.234375 C 8.179688 -20.234375 8.503906 -20.085938 8.734375 -19.796875 Z M 5.015625 0 L 2.671875 0 L 5.546875 -14.71875 L 7.890625 -14.71875 Z M 5.015625 0 "/></g></g></g><g fill="#000000" fill-opacity="1"><g transform="translate(238.645801, 32.483741)"><g><path d="M 15.984375 -7.421875 C 16.273438 -8.867188 16 -10.128906 15.15625 -11.203125 C 14.3125 -12.253906 13.148438 -12.78125 11.671875 -12.78125 C 10.203125 -12.78125 8.84375 -12.253906 7.59375 -11.203125 C 6.363281 -10.179688 5.59375 -8.921875 5.28125 -7.421875 C 5.019531 -5.953125 5.300781 -4.707031 6.125 -3.6875 C 6.96875 -2.632812 8.125 -2.109375 9.59375 -2.109375 C 11.070312 -2.109375 12.4375 -2.632812 13.6875 -3.6875 C 14.957031 -4.75 15.722656 -5.992188 15.984375 -7.421875 Z M 18.328125 -7.421875 C 17.929688 -5.285156 16.828125 -3.476562 15.015625 -2 C 13.234375 -0.507812 11.285156 0.234375 9.171875 0.234375 C 7.046875 0.234375 5.367188 -0.507812 4.140625 -2 C 2.941406 -3.476562 2.539062 -5.285156 2.9375 -7.421875 C 3.34375 -9.546875 4.445312 -11.351562 6.25 -12.84375 C 8.082031 -14.363281 10.046875 -15.125 12.140625 -15.125 C 14.265625 -15.125 15.925781 -14.363281 17.125 -12.84375 C 18.332031 -11.351562 18.734375 -9.546875 18.328125 -7.421875 Z M 18.328125 -7.421875 "/></g></g></g><g fill="#000000" fill-opacity="1"><g transform="translate(257.041151, 32.483741)"><g><path d="M 12.671875 0 L 14.453125 -9.203125 C 14.648438 -10.140625 14.59375 -10.953125 14.28125 -11.640625 C 13.96875 -12.328125 13.320312 -12.671875 12.34375 -12.671875 C 11.34375 -12.671875 10.484375 -12.484375 9.765625 -12.109375 C 9.078125 -11.753906 8.476562 -11.265625 7.96875 -10.640625 C 7.070312 -9.546875 6.4375 -8.050781 6.0625 -6.15625 L 4.84375 0 L 2.515625 0 L 5.390625 -14.71875 L 7.734375 -14.71875 L 7.21875 -12.171875 C 7.84375 -13.003906 8.601562 -13.675781 9.5 -14.1875 C 10.4375 -14.738281 11.40625 -15.015625 12.40625 -15.015625 C 13.476562 -15.015625 14.304688 -14.867188 14.890625 -14.578125 C 15.441406 -14.296875 15.898438 -13.875 16.265625 -13.3125 C 16.953125 -12.289062 17.128906 -10.921875 16.796875 -9.203125 L 15.015625 0 Z M 12.671875 0 "/></g></g></g><g fill="#000000" fill-opacity="1"><g transform="translate(274.065181, 32.483741)"><g><path d="M 15.65625 -7.359375 C 15.925781 -8.785156 15.671875 -10.035156 14.890625 -11.109375 C 14.085938 -12.179688 12.960938 -12.71875 11.515625 -12.71875 C 10.035156 -12.71875 8.695312 -12.179688 7.5 -11.109375 C 6.289062 -10.035156 5.550781 -8.785156 5.28125 -7.359375 C 5.019531 -5.910156 5.265625 -4.660156 6.015625 -3.609375 C 6.816406 -2.535156 7.957031 -2 9.4375 -2 C 10.882812 -2 12.210938 -2.535156 13.421875 -3.609375 C 14.640625 -4.703125 15.382812 -5.953125 15.65625 -7.359375 Z M 16.5625 0 L 14.21875 0 L 14.71875 -2.515625 C 14.625 -2.421875 14.53125 -2.332031 14.4375 -2.25 C 14.351562 -2.175781 14.269531 -2.09375 14.1875 -2 C 12.488281 -0.445312 10.625 0.328125 8.59375 0.328125 C 6.539062 0.328125 4.976562 -0.445312 3.90625 -2 C 2.863281 -3.5 2.539062 -5.285156 2.9375 -7.359375 C 3.34375 -9.429688 4.359375 -11.21875 5.984375 -12.71875 C 7.679688 -14.269531 9.546875 -15.046875 11.578125 -15.046875 C 13.628906 -15.046875 15.191406 -14.269531 16.265625 -12.71875 C 16.304688 -12.625 16.359375 -12.535156 16.421875 -12.453125 C 16.492188 -12.378906 16.550781 -12.296875 16.59375 -12.203125 L 17.09375 -14.71875 L 19.4375 -14.71875 Z M 16.5625 0 "/></g></g></g><g fill="#000000" fill-opacity="1"><g transform="translate(293.129431, 32.483741)"><g><path d="M 4.84375 0 L 2.515625 0 L 7.390625 -25.09375 L 9.734375 -25.09375 Z M 4.84375 0 "/></g></g></g><g fill="#000000" fill-opacity="1"><g transform="translate(300.487571, 32.483741)"><g><path d="M 8.734375 -19.796875 C 8.953125 -19.515625 9.03125 -19.160156 8.96875 -18.734375 C 8.894531 -18.378906 8.679688 -18.035156 8.328125 -17.703125 C 8.015625 -17.410156 7.632812 -17.265625 7.1875 -17.265625 C 6.769531 -17.265625 6.445312 -17.410156 6.21875 -17.703125 C 6 -17.984375 5.921875 -18.328125 5.984375 -18.734375 C 6.054688 -19.140625 6.269531 -19.492188 6.625 -19.796875 C 6.9375 -20.085938 7.316406 -20.234375 7.765625 -20.234375 C 8.179688 -20.234375 8.503906 -20.085938 8.734375 -19.796875 Z M 5.015625 0 L 2.671875 0 L 5.546875 -14.71875 L 7.890625 -14.71875 Z M 5.015625 0 "/></g></g></g><g fill="#000000" fill-opacity="1"><g transform="translate(308.146701, 32.483741)"><g><path d="M 5.046875 -2.109375 C 5.566406 -1.703125 6.28125 -1.5 7.1875 -1.5 C 9.375 -1.5 10.613281 -2.300781 10.90625 -3.90625 C 11.0625 -4.84375 10.425781 -5.5625 9 -6.0625 C 8.707031 -6.164062 8.394531 -6.265625 8.0625 -6.359375 C 7.726562 -6.460938 7.382812 -6.5625 7.03125 -6.65625 C 6.332031 -6.8125 5.679688 -7.046875 5.078125 -7.359375 C 4.390625 -7.691406 3.898438 -8.140625 3.609375 -8.703125 C 3.347656 -9.234375 3.28125 -9.867188 3.40625 -10.609375 C 3.675781 -12.054688 4.414062 -13.160156 5.625 -13.921875 C 6.78125 -14.671875 8.070312 -15.046875 9.5 -15.046875 C 10.21875 -15.046875 10.859375 -14.976562 11.421875 -14.84375 C 11.992188 -14.71875 12.488281 -14.5 12.90625 -14.1875 C 13.71875 -13.625 14.144531 -12.585938 14.1875 -11.078125 L 11.671875 -11.078125 C 11.585938 -11.898438 11.3125 -12.445312 10.84375 -12.71875 C 10.375 -12.976562 9.78125 -13.109375 9.0625 -13.109375 C 8.332031 -13.109375 7.675781 -12.953125 7.09375 -12.640625 C 6.507812 -12.328125 6.148438 -11.835938 6.015625 -11.171875 C 5.890625 -10.503906 6.015625 -10.015625 6.390625 -9.703125 C 6.765625 -9.390625 7.253906 -9.132812 7.859375 -8.9375 C 8.171875 -8.84375 8.492188 -8.75 8.828125 -8.65625 C 9.160156 -8.570312 9.507812 -8.484375 9.875 -8.390625 C 10.226562 -8.304688 10.566406 -8.203125 10.890625 -8.078125 C 11.210938 -7.953125 11.519531 -7.8125 11.8125 -7.65625 C 13.164062 -6.925781 13.703125 -5.78125 13.421875 -4.21875 C 13.128906 -2.65625 12.335938 -1.484375 11.046875 -0.703125 C 10.367188 -0.328125 9.675781 -0.0351562 8.96875 0.171875 C 8.613281 0.253906 8.242188 0.316406 7.859375 0.359375 C 7.484375 0.410156 7.09375 0.4375 6.6875 0.4375 C 3.300781 0.4375 1.640625 -1.078125 1.703125 -4.109375 L 4.1875 -4.109375 C 4.25 -3.203125 4.535156 -2.535156 5.046875 -2.109375 Z M 5.046875 -2.109375 "/></g></g></g><g fill="#000000" fill-opacity="1"><g transform="translate(321.592011, 32.483741)"><g><path d="M 21.171875 -0.0625 L 22.984375 -9.265625 C 23.273438 -10.785156 22.992188 -11.859375 22.140625 -12.484375 C 21.859375 -12.679688 21.367188 -12.78125 20.671875 -12.78125 C 19.984375 -12.78125 19.304688 -12.578125 18.640625 -12.171875 C 18.296875 -11.972656 17.976562 -11.742188 17.6875 -11.484375 C 17.40625 -11.234375 17.140625 -10.953125 16.890625 -10.640625 C 16.804688 -10.503906 16.71875 -10.375 16.625 -10.25 C 16.539062 -10.125 16.453125 -9.984375 16.359375 -9.828125 C 16.335938 -9.742188 16.320312 -9.65625 16.3125 -9.5625 C 16.300781 -9.476562 16.285156 -9.378906 16.265625 -9.265625 L 14.453125 -0.0625 L 12.109375 -0.0625 L 13.921875 -9.265625 C 14.203125 -10.785156 13.921875 -11.859375 13.078125 -12.484375 C 12.785156 -12.679688 12.296875 -12.78125 11.609375 -12.78125 C 10.921875 -12.78125 10.238281 -12.578125 9.5625 -12.171875 C 9.226562 -11.972656 8.914062 -11.742188 8.625 -11.484375 C 8.34375 -11.234375 8.078125 -10.953125 7.828125 -10.640625 C 7.179688 -9.785156 6.679688 -8.769531 6.328125 -7.59375 L 4.84375 -0.0625 L 2.515625 -0.0625 L 5.390625 -14.78125 L 7.734375 -14.78125 L 7.265625 -12.4375 C 7.578125 -12.820312 7.898438 -13.171875 8.234375 -13.484375 C 8.566406 -13.796875 8.921875 -14.0625 9.296875 -14.28125 C 10.148438 -14.84375 11.097656 -15.125 12.140625 -15.125 C 13.191406 -15.125 13.984375 -14.96875 14.515625 -14.65625 C 15.097656 -14.320312 15.535156 -13.882812 15.828125 -13.34375 C 15.910156 -13.1875 15.988281 -13.019531 16.0625 -12.84375 C 16.144531 -12.664062 16.210938 -12.488281 16.265625 -12.3125 C 16.578125 -12.707031 16.898438 -13.070312 17.234375 -13.40625 C 17.566406 -13.75 17.929688 -14.039062 18.328125 -14.28125 C 19.179688 -14.84375 20.140625 -15.125 21.203125 -15.125 C 22.253906 -15.125 23.046875 -14.96875 23.578125 -14.65625 C 24.160156 -14.320312 24.597656 -13.882812 24.890625 -13.34375 C 25.515625 -12.25 25.660156 -10.890625 25.328125 -9.265625 L 23.515625 -0.0625 Z M 21.171875 -0.0625 "/></g></g></g></g></g><g transform="matrix(1, 0, 0, 1, 313, 23)"><g clip-path="url(#ac26a7d664)"><g clip-path="url(#a8941fde09)"><g clip-path="url(#d9faf7b54e)"><g transform="matrix(1, 0, 0, 1, -0.000000000000056843, -0.000000000000003553)"><g clip-path="url(#76af62a98d)"><g clip-path="url(#272f568fb9)"><g clip-path="url(#379f115302)"><path fill="#191919" d="M 0.171875 0.847656 L 303.828125 0.847656 L 303.828125 304.5 L 0.171875 304.5 Z M 0.171875 0.847656 " fill-opacity="1" fill-rule="nonzero"/></g></g></g></g></g></g><g clip-path="url(#42edff7ddb)"><g clip-path="url(#1f11a64ed9)"><g clip-path="url(#4d553cc4f0)"><g transform="matrix(1, 0, 0, 1, 122, 78)"><g clip-path="url(#6c0e60bbb9)"><g clip-path="url(#ed02c60049)"><g clip-path="url(#316643f668)"><g clip-path="url(#a3022cc800)"><path fill="#ffffff" d="M 92.800781 -12.148438 L 153.949219 23.847656 L 48.78125 202.511719 L -12.367188 166.519531 Z M 92.800781 -12.148438 " fill-opacity="1" fill-rule="nonzero"/></g></g></g></g></g></g></g></g><g clip-path="url(#1e486c7a92)"><path fill="#ffffff" d="M 74.261719 81.859375 C 54.75 81.859375 38.875 97.738281 38.875 117.25 C 38.875 136.765625 54.75 152.640625 74.261719 152.640625 C 93.777344 152.640625 109.652344 136.765625 109.652344 117.25 C 109.652344 97.738281 93.777344 81.859375 74.261719 81.859375 Z M 74.261719 149.875 C 56.273438 149.875 41.636719 135.238281 41.636719 117.25 C 41.636719 99.261719 56.273438 84.625 74.261719 84.625 C 92.253906 84.625 106.890625 99.261719 106.890625 117.25 C 106.890625 135.238281 92.253906 149.875 74.261719 149.875 Z M 74.261719 149.875 " fill-opacity="1" fill-rule="nonzero"/></g><path fill="#ffffff" d="M 74.261719 86.464844 C 57.285156 86.464844 43.476562 100.273438 43.476562 117.25 C 43.476562 134.226562 57.285156 148.039062 74.261719 148.039062 C 91.238281 148.039062 105.050781 134.226562 105.050781 117.25 C 105.050781 100.273438 91.238281 86.464844 74.261719 86.464844 Z M 74.261719 86.464844 " fill-opacity="1" fill-rule="nonzero"/></g></g></svg>