<svg xmlns="http://www.w3.org/2000/svg" xmlns:xlink="http://www.w3.org/1999/xlink" width="1240" zoomAndPan="magnify" viewBox="0 0 930 655.499985" height="874" preserveAspectRatio="xMidYMid meet" version="1.0"><defs><g/><clipPath id="04c7c6cc13"><path d="M 0.0625 0.292969 L 224.960938 0.292969 L 224.960938 225.191406 L 0.0625 225.191406 Z M 0.0625 0.292969 " clip-rule="nonzero"/></clipPath><clipPath id="0bfc053329"><path d="M 112.511719 0.292969 C 50.410156 0.292969 0.0625 50.636719 0.0625 112.742188 C 0.0625 174.84375 50.410156 225.191406 112.511719 225.191406 C 174.613281 225.191406 224.960938 174.84375 224.960938 112.742188 C 224.960938 50.636719 174.613281 0.292969 112.511719 0.292969 Z M 112.511719 0.292969 " clip-rule="nonzero"/></clipPath><clipPath id="7155621368"><path d="M 0.0625 0.292969 L 224.960938 0.292969 L 224.960938 225.191406 L 0.0625 225.191406 Z M 0.0625 0.292969 " clip-rule="nonzero"/></clipPath><clipPath id="02b4250dac"><path d="M 112.511719 0.292969 C 50.410156 0.292969 0.0625 50.636719 0.0625 112.742188 C 0.0625 174.84375 50.410156 225.191406 112.511719 225.191406 C 174.613281 225.191406 224.960938 174.84375 224.960938 112.742188 C 224.960938 50.636719 174.613281 0.292969 112.511719 0.292969 Z M 112.511719 0.292969 " clip-rule="nonzero"/></clipPath><clipPath id="a719dd0852"><rect x="0" width="225" y="0" height="226"/></clipPath><clipPath id="a22e0dd902"><path d="M 90 58 L 195 58 L 195 198 L 90 198 Z M 90 58 " clip-rule="nonzero"/></clipPath><clipPath id="b59af3acbb"><path d="M 159.023438 48.441406 L 204.3125 75.097656 L 126.421875 207.421875 L 81.132812 180.765625 Z M 159.023438 48.441406 " clip-rule="nonzero"/></clipPath><clipPath id="cfc5e877e6"><path d="M 181.667969 61.769531 C 187.671875 65.304688 192.027344 71.078125 193.777344 77.824219 C 195.523438 84.570312 194.519531 91.734375 190.984375 97.742188 L 139.785156 184.722656 C 136.25 190.726562 130.472656 195.082031 123.726562 196.828125 C 116.980469 198.574219 109.816406 197.570312 103.8125 194.035156 C 97.804688 190.5 93.449219 184.726562 91.703125 177.980469 C 89.957031 171.234375 90.960938 164.070312 94.496094 158.0625 L 145.695312 71.082031 C 149.230469 65.078125 155.007812 60.722656 161.753906 58.976562 C 168.5 57.230469 175.664062 58.234375 181.667969 61.769531 Z M 181.667969 61.769531 " clip-rule="nonzero"/></clipPath><clipPath id="a2a291d14b"><path d="M 0 0 L 105 0 L 105 140 L 0 140 Z M 0 0 " clip-rule="nonzero"/></clipPath><clipPath id="a4ded23e68"><path d="M 69.023438 -9.558594 L 114.3125 17.097656 L 36.421875 149.421875 L -8.867188 122.765625 Z M 69.023438 -9.558594 " clip-rule="nonzero"/></clipPath><clipPath id="19e500094b"><path d="M 91.667969 3.769531 C 97.671875 7.304688 102.027344 13.078125 103.777344 19.824219 C 105.523438 26.570312 104.519531 33.734375 100.984375 39.742188 L 49.785156 126.722656 C 46.25 132.726562 40.472656 137.082031 33.726562 138.828125 C 26.980469 140.574219 19.816406 139.570312 13.8125 136.035156 C 7.804688 132.5 3.449219 126.726562 1.703125 119.980469 C -0.0429688 113.234375 0.960938 106.070312 4.496094 100.0625 L 55.695312 13.082031 C 59.230469 7.078125 65.007812 2.722656 71.753906 0.976562 C 78.5 -0.769531 85.664062 0.234375 91.667969 3.769531 Z M 91.667969 3.769531 " clip-rule="nonzero"/></clipPath><clipPath id="e62b99ba44"><rect x="0" width="105" y="0" height="140"/></clipPath><clipPath id="649f40804d"><path d="M 28.726562 60.296875 L 81.222656 60.296875 L 81.222656 112.792969 L 28.726562 112.792969 Z M 28.726562 60.296875 " clip-rule="nonzero"/></clipPath><clipPath id="e0ba61c625"><path d="M 257 46 L 811.316406 46 L 811.316406 219 L 257 219 Z M 257 46 " clip-rule="nonzero"/></clipPath><clipPath id="b03a730594"><path d="M 266 37 L 371 37 L 371 172.882812 L 266 172.882812 Z M 266 37 " clip-rule="nonzero"/></clipPath><clipPath id="0674dc3003"><rect x="0" width="555" y="0" height="173"/></clipPath><clipPath id="b5453df2b9"><path d="M 361 222 L 709 222 L 709 263.011719 L 361 263.011719 Z M 361 222 " clip-rule="nonzero"/></clipPath><clipPath id="94de1d0223"><rect x="0" width="348" y="0" height="42"/></clipPath><clipPath id="2ecb36c776"><rect x="0" width="812" y="0" height="264"/></clipPath></defs><g transform="matrix(1, 0, 0, 1, 26, 196)"><g clip-path="url(#2ecb36c776)"><g clip-path="url(#04c7c6cc13)"><g clip-path="url(#0bfc053329)"><g transform="matrix(1, 0, 0, 1, -0.000000000000007105, -0.000000000000056843)"><g clip-path="url(#a719dd0852)"><g clip-path="url(#7155621368)"><g clip-path="url(#02b4250dac)"><path fill="#191919" d="M 0.0625 0.292969 L 224.960938 0.292969 L 224.960938 225.191406 L 0.0625 225.191406 Z M 0.0625 0.292969 " fill-opacity="1" fill-rule="nonzero"/></g></g></g></g></g></g><g clip-path="url(#a22e0dd902)"><g clip-path="url(#b59af3acbb)"><g clip-path="url(#cfc5e877e6)"><g transform="matrix(1, 0, 0, 1, 90, 58)"><g clip-path="url(#e62b99ba44)"><g clip-path="url(#a2a291d14b)"><g clip-path="url(#a4ded23e68)"><g clip-path="url(#19e500094b)"><path fill="#ffffff" d="M 69.023438 -9.558594 L 114.3125 17.097656 L 36.421875 149.421875 L -8.867188 122.765625 Z M 69.023438 -9.558594 " fill-opacity="1" fill-rule="nonzero"/></g></g></g></g></g></g></g></g><g clip-path="url(#649f40804d)"><path fill="#ffffff" d="M 54.9375 60.296875 C 40.484375 60.296875 28.726562 72.054688 28.726562 86.507812 C 28.726562 100.960938 40.484375 112.71875 54.9375 112.71875 C 69.390625 112.71875 81.148438 100.960938 81.148438 86.507812 C 81.148438 72.054688 69.390625 60.296875 54.9375 60.296875 Z M 54.9375 110.671875 C 41.613281 110.671875 30.773438 99.832031 30.773438 86.507812 C 30.773438 73.183594 41.613281 62.34375 54.9375 62.34375 C 68.261719 62.34375 79.101562 73.183594 79.101562 86.507812 C 79.101562 99.832031 68.261719 110.671875 54.9375 110.671875 Z M 54.9375 110.671875 " fill-opacity="1" fill-rule="nonzero"/></g><path fill="#ffffff" d="M 54.9375 63.703125 C 42.363281 63.703125 32.136719 73.933594 32.136719 86.507812 C 32.136719 99.082031 42.363281 109.308594 54.9375 109.308594 C 67.511719 109.308594 77.738281 99.082031 77.738281 86.507812 C 77.738281 73.933594 67.511719 63.703125 54.9375 63.703125 Z M 54.9375 63.703125 " fill-opacity="1" fill-rule="nonzero"/><g clip-path="url(#e0ba61c625)"><g transform="matrix(1, 0, 0, 1, 257, 46)"><g clip-path="url(#0674dc3003)"><g fill="#ffffff" fill-opacity="1"><g transform="translate(1.034445, 138.941658)"><g><path d="M 77.765625 0 L 56.03125 0 L 1.4375 -130.359375 L 26.625 -130.359375 L 66.765625 -31.125 L 67.140625 -31.3125 L 107.171875 -130.359375 L 132.46875 -130.359375 Z M 77.765625 0 "/></g></g></g><g fill="#ffffff" fill-opacity="1"><g transform="translate(116.299749, 138.941658)"><g><path d="M 52.96875 2.96875 C 46.320312 2.96875 40.171875 1.628906 34.515625 -1.046875 C 28.867188 -3.734375 23.953125 -7.46875 19.765625 -12.25 C 15.585938 -17.039062 12.347656 -22.597656 10.046875 -28.921875 C 7.753906 -35.242188 6.609375 -42.015625 6.609375 -49.234375 C 6.609375 -56.441406 7.769531 -63.191406 10.09375 -69.484375 C 12.425781 -75.773438 15.679688 -81.316406 19.859375 -86.109375 C 24.046875 -90.898438 28.945312 -94.648438 34.5625 -97.359375 C 40.1875 -100.078125 46.289062 -101.4375 52.875 -101.4375 C 60.914062 -101.4375 68.066406 -99.691406 74.328125 -96.203125 C 80.585938 -92.722656 85.28125 -87.921875 88.40625 -81.796875 L 88.40625 -98.46875 L 110.4375 -98.46875 L 110.4375 0 L 88.40625 0 L 88.40625 -16.5625 C 85.207031 -10.4375 80.492188 -5.648438 74.265625 -2.203125 C 68.046875 1.242188 60.945312 2.96875 52.96875 2.96875 Z M 58.515625 -18.484375 C 62.546875 -18.484375 66.316406 -19.265625 69.828125 -20.828125 C 73.335938 -22.390625 76.414062 -24.5625 79.0625 -27.34375 C 81.71875 -30.125 83.78125 -33.378906 85.25 -37.109375 C 86.71875 -40.847656 87.453125 -44.890625 87.453125 -49.234375 C 87.453125 -53.503906 86.695312 -57.507812 85.1875 -61.25 C 83.6875 -64.988281 81.628906 -68.257812 79.015625 -71.0625 C 76.398438 -73.875 73.335938 -76.0625 69.828125 -77.625 C 66.316406 -79.1875 62.546875 -79.96875 58.515625 -79.96875 C 53.222656 -79.96875 48.390625 -78.691406 44.015625 -76.140625 C 39.640625 -73.585938 36.140625 -70.007812 33.515625 -65.40625 C 30.898438 -60.8125 29.59375 -55.421875 29.59375 -49.234375 C 29.59375 -42.847656 30.914062 -37.351562 33.5625 -32.75 C 36.21875 -28.15625 39.75 -24.628906 44.15625 -22.171875 C 48.5625 -19.710938 53.347656 -18.484375 58.515625 -18.484375 Z M 58.515625 -18.484375 "/></g></g></g><g fill="#ffffff" fill-opacity="1"><g transform="translate(221.699732, 138.941658)"><g><path d="M 36.78125 0 L 13.59375 0 L 13.59375 -134.953125 L 36.78125 -134.953125 Z M 36.78125 0 "/></g></g></g><g clip-path="url(#b03a730594)"><g fill="#191919" fill-opacity="1"><g transform="translate(253.349338, 138.941658)"><g><path d="M 36.78125 33.625 L 13.59375 33.625 L 13.59375 -98.46875 L 35.625 -98.46875 L 35.625 -81.890625 C 39.207031 -87.828125 43.96875 -92.550781 49.90625 -96.0625 C 55.84375 -99.570312 62.351562 -101.328125 69.4375 -101.328125 C 76.457031 -101.328125 82.890625 -99.96875 88.734375 -97.25 C 94.578125 -94.539062 99.640625 -90.804688 103.921875 -86.046875 C 108.203125 -81.296875 111.519531 -75.773438 113.875 -69.484375 C 116.238281 -63.191406 117.421875 -56.441406 117.421875 -49.234375 C 117.421875 -42.015625 116.238281 -35.242188 113.875 -28.921875 C 111.519531 -22.597656 108.1875 -17.039062 103.875 -12.25 C 99.5625 -7.46875 94.515625 -3.734375 88.734375 -1.046875 C 82.960938 1.628906 76.628906 2.96875 69.734375 2.96875 C 64.941406 2.96875 60.40625 2.1875 56.125 0.625 C 51.84375 -0.9375 48.007812 -3.140625 44.625 -5.984375 C 41.25 -8.828125 38.472656 -12.132812 36.296875 -15.90625 L 36.78125 -4.5 Z M 65.515625 -18.390625 C 70.742188 -18.390625 75.546875 -19.632812 79.921875 -22.125 C 84.296875 -24.613281 87.804688 -28.171875 90.453125 -32.796875 C 93.109375 -37.429688 94.4375 -42.910156 94.4375 -49.234375 C 94.4375 -55.421875 93.125 -60.8125 90.5 -65.40625 C 87.882812 -70.007812 84.390625 -73.585938 80.015625 -76.140625 C 75.648438 -78.691406 70.785156 -79.96875 65.421875 -79.96875 C 61.398438 -79.96875 57.644531 -79.1875 54.15625 -77.625 C 50.675781 -76.0625 47.613281 -73.875 44.96875 -71.0625 C 42.320312 -68.257812 40.242188 -65.003906 38.734375 -61.296875 C 37.234375 -57.597656 36.484375 -53.578125 36.484375 -49.234375 C 36.484375 -44.765625 37.25 -40.644531 38.78125 -36.875 C 40.320312 -33.101562 42.429688 -29.828125 45.109375 -27.046875 C 47.796875 -24.273438 50.894531 -22.140625 54.40625 -20.640625 C 57.914062 -19.140625 61.617188 -18.390625 65.515625 -18.390625 Z M 65.515625 -18.390625 "/></g></g></g></g><g fill="#191919" fill-opacity="1"><g transform="translate(358.749321, 138.941658)"><g><path d="M 36.78125 0 L 13.59375 0 L 13.59375 -98.46875 L 35.828125 -98.46875 L 35.828125 -80.640625 C 38.117188 -86.066406 41.5 -90.394531 45.96875 -93.625 C 50.4375 -96.851562 55.863281 -98.46875 62.25 -98.46875 L 72.796875 -98.46875 L 72.796875 -78.546875 L 63.5 -78.546875 C 58.195312 -78.546875 53.535156 -77.265625 49.515625 -74.703125 C 45.492188 -72.148438 42.363281 -68.445312 40.125 -63.59375 C 37.894531 -58.738281 36.78125 -52.800781 36.78125 -45.78125 Z M 36.78125 0 "/></g></g></g><g fill="#191919" fill-opacity="1"><g transform="translate(415.876227, 138.941658)"><g><path d="M 58.328125 2.96875 C 50.859375 2.96875 43.960938 1.628906 37.640625 -1.046875 C 31.316406 -3.734375 25.835938 -7.46875 21.203125 -12.25 C 16.578125 -17.039062 12.988281 -22.597656 10.4375 -28.921875 C 7.882812 -35.242188 6.609375 -42.015625 6.609375 -49.234375 C 6.609375 -56.441406 7.882812 -63.191406 10.4375 -69.484375 C 12.988281 -75.773438 16.578125 -81.316406 21.203125 -86.109375 C 25.835938 -90.898438 31.316406 -94.648438 37.640625 -97.359375 C 43.960938 -100.078125 50.890625 -101.4375 58.421875 -101.4375 C 66.023438 -101.4375 72.984375 -100.078125 79.296875 -97.359375 C 85.617188 -94.648438 91.109375 -90.898438 95.765625 -86.109375 C 100.429688 -81.316406 104.039062 -75.773438 106.59375 -69.484375 C 109.15625 -63.191406 110.4375 -56.441406 110.4375 -49.234375 C 110.4375 -41.953125 109.15625 -35.164062 106.59375 -28.875 C 104.039062 -22.582031 100.429688 -17.039062 95.765625 -12.25 C 91.109375 -7.46875 85.601562 -3.734375 79.25 -1.046875 C 72.90625 1.628906 65.929688 2.96875 58.328125 2.96875 Z M 58.515625 -18.578125 C 64.078125 -18.578125 69.023438 -19.898438 73.359375 -22.546875 C 77.703125 -25.203125 81.132812 -28.828125 83.65625 -33.421875 C 86.1875 -38.023438 87.453125 -43.296875 87.453125 -49.234375 C 87.453125 -55.171875 86.1875 -60.453125 83.65625 -65.078125 C 81.132812 -69.710938 77.703125 -73.351562 73.359375 -76 C 69.023438 -78.644531 64.078125 -79.96875 58.515625 -79.96875 C 53.023438 -79.96875 48.09375 -78.644531 43.71875 -76 C 39.34375 -73.351562 35.894531 -69.710938 33.375 -65.078125 C 30.851562 -60.453125 29.59375 -55.171875 29.59375 -49.234375 C 29.59375 -43.296875 30.851562 -38.023438 33.375 -33.421875 C 35.894531 -28.828125 39.34375 -25.203125 43.71875 -22.546875 C 48.09375 -19.898438 53.023438 -18.578125 58.515625 -18.578125 Z M 58.515625 -18.578125 "/></g></g></g><g fill="#191919" fill-opacity="1"><g transform="translate(514.284284, 138.941658)"><g><path d="M 25.765625 2.390625 C 23.078125 2.390625 20.726562 1.816406 18.71875 0.671875 C 16.707031 -0.472656 15.128906 -2.019531 13.984375 -3.96875 C 12.835938 -5.914062 12.265625 -8.039062 12.265625 -10.34375 C 12.265625 -12.644531 12.820312 -14.769531 13.9375 -16.71875 C 15.050781 -18.664062 16.628906 -20.210938 18.671875 -21.359375 C 20.710938 -22.503906 23.109375 -23.078125 25.859375 -23.078125 C 28.609375 -23.078125 30.988281 -22.503906 33 -21.359375 C 35.007812 -20.210938 36.585938 -18.664062 37.734375 -16.71875 C 38.890625 -14.769531 39.46875 -12.644531 39.46875 -10.34375 C 39.46875 -6.832031 38.21875 -3.832031 35.71875 -1.34375 C 33.226562 1.144531 29.910156 2.390625 25.765625 2.390625 Z M 25.765625 2.390625 "/></g></g></g></g></g></g><g fill="#191919" fill-opacity="1"><g transform="translate(549.759033, 211.062287)"><g><path d="M 5.921875 0 L 2.34375 0 L 2.34375 -19.625 L 5.921875 -19.625 Z M 5.921875 0 "/></g></g></g><g fill="#191919" fill-opacity="1"><g transform="translate(567.259706, 211.062287)"><g><path d="M 5.921875 0 L 2.34375 0 L 2.34375 -19.625 L 5.421875 -19.625 L 16.109375 -5.890625 L 16.109375 -19.625 L 19.6875 -19.625 L 19.6875 0 L 16.625 0 L 5.921875 -13.71875 Z M 5.921875 0 "/></g></g></g><g fill="#191919" fill-opacity="1"><g transform="translate(598.530305, 211.062287)"><g><path d="M 10.046875 0 L 6.46875 0 L 6.46875 -16.421875 L 0.625 -16.421875 L 0.625 -19.625 L 15.890625 -19.625 L 15.890625 -16.421875 L 10.046875 -16.421875 Z M 10.046875 0 "/></g></g></g><g fill="#191919" fill-opacity="1"><g transform="translate(624.278515, 211.062287)"><g><path d="M 15.90625 0 L 2.34375 0 L 2.34375 -19.625 L 15.78125 -19.625 L 15.78125 -16.40625 L 5.921875 -16.40625 L 5.921875 -11.484375 L 14.4375 -11.484375 L 14.4375 -8.453125 L 5.921875 -8.453125 L 5.921875 -3.21875 L 15.90625 -3.21875 Z M 15.90625 0 "/></g></g></g><g fill="#191919" fill-opacity="1"><g transform="translate(650.372775, 211.062287)"><g><path d="M 5.921875 0 L 2.34375 0 L 2.34375 -19.625 L 10.8125 -19.625 C 11.800781 -19.625 12.707031 -19.472656 13.53125 -19.171875 C 14.363281 -18.867188 15.082031 -18.429688 15.6875 -17.859375 C 16.300781 -17.296875 16.773438 -16.617188 17.109375 -15.828125 C 17.441406 -15.046875 17.609375 -14.179688 17.609375 -13.234375 C 17.609375 -12.304688 17.441406 -11.460938 17.109375 -10.703125 C 16.785156 -9.941406 16.320312 -9.289062 15.71875 -8.75 C 15.125 -8.207031 14.425781 -7.796875 13.625 -7.515625 L 18.0625 0 L 13.9375 0 L 10.0625 -6.96875 C 9.9375 -6.957031 9.8125 -6.953125 9.6875 -6.953125 C 9.5625 -6.953125 9.429688 -6.953125 9.296875 -6.953125 L 5.921875 -6.953125 Z M 5.921875 -16.421875 L 5.921875 -9.984375 L 10.671875 -9.984375 C 11.304688 -9.992188 11.875 -10.132812 12.375 -10.40625 C 12.882812 -10.6875 13.285156 -11.066406 13.578125 -11.546875 C 13.867188 -12.035156 14.015625 -12.597656 14.015625 -13.234375 C 14.015625 -13.828125 13.863281 -14.363281 13.5625 -14.84375 C 13.269531 -15.320312 12.867188 -15.703125 12.359375 -15.984375 C 11.859375 -16.273438 11.289062 -16.421875 10.65625 -16.421875 Z M 5.921875 -16.421875 "/></g></g></g><g fill="#191919" fill-opacity="1"><g transform="translate(678.298219, 211.062287)"><g><path d="M 10.046875 0 L 6.46875 0 L 6.46875 -16.421875 L 0.625 -16.421875 L 0.625 -19.625 L 15.890625 -19.625 L 15.890625 -16.421875 L 10.046875 -16.421875 Z M 10.046875 0 "/></g></g></g><g fill="#191919" fill-opacity="1"><g transform="translate(704.046429, 211.062287)"><g><path d="M 15.90625 0 L 2.34375 0 L 2.34375 -19.625 L 15.78125 -19.625 L 15.78125 -16.40625 L 5.921875 -16.40625 L 5.921875 -11.484375 L 14.4375 -11.484375 L 14.4375 -8.453125 L 5.921875 -8.453125 L 5.921875 -3.21875 L 15.90625 -3.21875 Z M 15.90625 0 "/></g></g></g><g fill="#191919" fill-opacity="1"><g transform="translate(730.14069, 211.062287)"><g><path d="M 11.3125 0.421875 C 10.15625 0.421875 9.054688 0.25 8.015625 -0.09375 C 6.984375 -0.4375 6.035156 -0.921875 5.171875 -1.546875 C 4.304688 -2.171875 3.554688 -2.910156 2.921875 -3.765625 C 2.296875 -4.617188 1.8125 -5.5625 1.46875 -6.59375 C 1.125 -7.625 0.953125 -8.707031 0.953125 -9.84375 C 0.953125 -10.988281 1.125 -12.070312 1.46875 -13.09375 C 1.8125 -14.113281 2.296875 -15.050781 2.921875 -15.90625 C 3.554688 -16.757812 4.304688 -17.5 5.171875 -18.125 C 6.035156 -18.75 6.984375 -19.226562 8.015625 -19.5625 C 9.054688 -19.90625 10.15625 -20.078125 11.3125 -20.078125 C 12.351562 -20.078125 13.378906 -19.921875 14.390625 -19.609375 C 15.410156 -19.304688 16.363281 -18.835938 17.25 -18.203125 C 18.132812 -17.578125 18.882812 -16.785156 19.5 -15.828125 C 20.113281 -14.867188 20.539062 -13.734375 20.78125 -12.421875 L 17.109375 -12.421875 C 16.847656 -13.429688 16.429688 -14.257812 15.859375 -14.90625 C 15.285156 -15.550781 14.597656 -16.023438 13.796875 -16.328125 C 13.003906 -16.640625 12.140625 -16.796875 11.203125 -16.796875 C 10.285156 -16.796875 9.421875 -16.628906 8.609375 -16.296875 C 7.804688 -15.960938 7.097656 -15.488281 6.484375 -14.875 C 5.867188 -14.257812 5.390625 -13.523438 5.046875 -12.671875 C 4.710938 -11.816406 4.546875 -10.867188 4.546875 -9.828125 C 4.546875 -8.753906 4.710938 -7.789062 5.046875 -6.9375 C 5.390625 -6.09375 5.867188 -5.367188 6.484375 -4.765625 C 7.097656 -4.160156 7.804688 -3.695312 8.609375 -3.375 C 9.421875 -3.050781 10.285156 -2.890625 11.203125 -2.890625 C 12.140625 -2.890625 13.003906 -3.039062 13.796875 -3.34375 C 14.585938 -3.65625 15.269531 -4.128906 15.84375 -4.765625 C 16.425781 -5.410156 16.84375 -6.238281 17.09375 -7.25 L 20.78125 -7.25 C 20.539062 -5.9375 20.113281 -4.796875 19.5 -3.828125 C 18.882812 -2.859375 18.140625 -2.0625 17.265625 -1.4375 C 16.390625 -0.8125 15.441406 -0.34375 14.421875 -0.03125 C 13.398438 0.269531 12.363281 0.421875 11.3125 0.421875 Z M 11.3125 0.421875 "/></g></g></g><g fill="#191919" fill-opacity="1"><g transform="translate(761.122913, 211.062287)"><g><path d="M 5.921875 0 L 2.34375 0 L 2.34375 -19.625 L 5.921875 -19.625 L 5.921875 -11.484375 L 15.828125 -11.484375 L 15.828125 -19.625 L 19.4375 -19.625 L 19.4375 0 L 15.828125 0 L 15.828125 -8.28125 L 5.921875 -8.28125 Z M 5.921875 0 "/></g></g></g><g clip-path="url(#b5453df2b9)"><g transform="matrix(1, 0, 0, 1, 361, 222)"><g clip-path="url(#94de1d0223)"><g fill="#000000" fill-opacity="1"><g transform="translate(0.346196, 32.402992)"><g><path d="M 22.375 -11.375 C 22.039062 -9.75 21.441406 -8.234375 20.578125 -6.828125 C 19.722656 -5.441406 18.660156 -4.238281 17.390625 -3.21875 C 16.765625 -2.71875 16.109375 -2.269531 15.421875 -1.875 C 14.734375 -1.488281 14 -1.15625 13.21875 -0.875 C 11.65625 -0.289062 10.070312 0 8.46875 0 L 2.515625 0 L 6.921875 -22.75 L 12.875 -22.75 C 14.476562 -22.75 15.953125 -22.457031 17.296875 -21.875 C 18.628906 -21.300781 19.722656 -20.519531 20.578125 -19.53125 C 21.421875 -18.570312 22.007812 -17.367188 22.34375 -15.921875 C 22.519531 -15.234375 22.613281 -14.507812 22.625 -13.75 C 22.632812 -12.988281 22.550781 -12.195312 22.375 -11.375 Z M 20.109375 -11.375 C 20.617188 -13.976562 20.128906 -16.140625 18.640625 -17.859375 C 17.160156 -19.554688 15.117188 -20.40625 12.515625 -20.40625 L 8.828125 -20.40625 L 5.3125 -2.34375 L 9 -2.34375 C 11.632812 -2.34375 14 -3.191406 16.09375 -4.890625 C 18.28125 -6.628906 19.617188 -8.789062 20.109375 -11.375 Z M 20.109375 -11.375 "/></g></g></g><g fill="#000000" fill-opacity="1"><g transform="translate(22.019238, 32.402992)"><g><path d="M 12.34375 -11.671875 C 11.914062 -12.160156 11.390625 -12.40625 10.765625 -12.40625 C 10.171875 -12.40625 9.613281 -12.238281 9.09375 -11.90625 C 8.851562 -11.75 8.617188 -11.554688 8.390625 -11.328125 C 8.171875 -11.109375 7.960938 -10.878906 7.765625 -10.640625 C 7.003906 -9.660156 6.515625 -8.566406 6.296875 -7.359375 L 4.84375 0 L 2.515625 0 L 5.390625 -14.71875 L 7.734375 -14.71875 L 7.125 -11.671875 L 7.328125 -12.28125 C 8.460938 -14.101562 9.859375 -15.015625 11.515625 -15.015625 C 12.046875 -15.015625 12.523438 -14.914062 12.953125 -14.71875 Z M 12.34375 -11.671875 "/></g></g></g><g fill="#000000" fill-opacity="1"><g transform="translate(32.42096, 32.402992)"><g><path d="M 8.734375 -19.796875 C 8.953125 -19.515625 9.03125 -19.160156 8.96875 -18.734375 C 8.894531 -18.378906 8.679688 -18.035156 8.328125 -17.703125 C 8.015625 -17.410156 7.632812 -17.265625 7.1875 -17.265625 C 6.769531 -17.265625 6.445312 -17.410156 6.21875 -17.703125 C 6 -17.984375 5.921875 -18.328125 5.984375 -18.734375 C 6.054688 -19.140625 6.269531 -19.492188 6.625 -19.796875 C 6.9375 -20.085938 7.316406 -20.234375 7.765625 -20.234375 C 8.179688 -20.234375 8.503906 -20.085938 8.734375 -19.796875 Z M 5.015625 0 L 2.671875 0 L 5.546875 -14.71875 L 7.890625 -14.71875 Z M 5.015625 0 "/></g></g></g><g fill="#000000" fill-opacity="1"><g transform="translate(40.080105, 32.402992)"><g><path d="M 6.859375 1.40625 L 3.21875 -14.71875 L 5.75 -14.71875 L 7.859375 -3.78125 L 14.21875 -14.71875 L 16.765625 -14.71875 Z M 6.859375 1.40625 "/></g></g></g><g fill="#000000" fill-opacity="1"><g transform="translate(54.29468, 32.402992)"><g><path d="M 18.40625 -7.6875 L 18.171875 -6.453125 L 5.21875 -6.453125 C 5.195312 -5.179688 5.597656 -4.144531 6.421875 -3.34375 C 7.265625 -2.519531 8.320312 -2.109375 9.59375 -2.109375 C 10.019531 -2.109375 10.445312 -2.148438 10.875 -2.234375 C 11.300781 -2.328125 11.722656 -2.472656 12.140625 -2.671875 C 12.566406 -2.878906 12.96875 -3.113281 13.34375 -3.375 C 13.726562 -3.644531 14.078125 -3.957031 14.390625 -4.3125 L 17.0625 -4.3125 C 16.164062 -2.90625 15.003906 -1.800781 13.578125 -1 C 12.128906 -0.175781 10.769531 0.234375 9.5 0.234375 C 8.207031 0.234375 7.140625 0.03125 6.296875 -0.375 C 5.867188 -0.570312 5.472656 -0.800781 5.109375 -1.0625 C 4.753906 -1.332031 4.429688 -1.644531 4.140625 -2 C 2.941406 -3.476562 2.539062 -5.285156 2.9375 -7.421875 C 3.34375 -9.546875 4.445312 -11.351562 6.25 -12.84375 C 8.082031 -14.363281 10.046875 -15.125 12.140625 -15.125 C 14.191406 -15.125 15.84375 -14.398438 17.09375 -12.953125 C 18.363281 -11.472656 18.800781 -9.71875 18.40625 -7.6875 Z M 16.0625 -8.46875 C 16.007812 -9.738281 15.582031 -10.773438 14.78125 -11.578125 C 13.976562 -12.378906 12.941406 -12.78125 11.671875 -12.78125 C 9.773438 -12.78125 8.101562 -11.910156 6.65625 -10.171875 C 6.207031 -9.628906 5.863281 -9.0625 5.625 -8.46875 Z M 16.0625 -8.46875 "/></g></g></g><g fill="#000000" fill-opacity="1"><g transform="translate(72.522778, 32.402992)"><g><path d="M 12.671875 0 L 14.453125 -9.203125 C 14.648438 -10.140625 14.59375 -10.953125 14.28125 -11.640625 C 13.96875 -12.328125 13.320312 -12.671875 12.34375 -12.671875 C 11.34375 -12.671875 10.484375 -12.484375 9.765625 -12.109375 C 9.078125 -11.753906 8.476562 -11.265625 7.96875 -10.640625 C 7.070312 -9.546875 6.4375 -8.050781 6.0625 -6.15625 L 4.84375 0 L 2.515625 0 L 5.390625 -14.71875 L 7.734375 -14.71875 L 7.21875 -12.171875 C 7.84375 -13.003906 8.601562 -13.675781 9.5 -14.1875 C 10.4375 -14.738281 11.40625 -15.015625 12.40625 -15.015625 C 13.476562 -15.015625 14.304688 -14.867188 14.890625 -14.578125 C 15.441406 -14.296875 15.898438 -13.875 16.265625 -13.3125 C 16.953125 -12.289062 17.128906 -10.921875 16.796875 -9.203125 L 15.015625 0 Z M 12.671875 0 "/></g></g></g><g fill="#000000" fill-opacity="1"><g transform="translate(89.546816, 32.402992)"><g/></g></g><g fill="#000000" fill-opacity="1"><g transform="translate(98.577251, 32.402992)"><g><path d="M 4.84375 0 L 2.515625 0 L 7.390625 -25.09375 L 9.734375 -25.09375 L 7.21875 -12.203125 L 7.734375 -12.71875 C 9.421875 -14.269531 11.28125 -15.046875 13.3125 -15.046875 C 15.363281 -15.046875 16.925781 -14.269531 18 -12.71875 C 19.070312 -11.195312 19.40625 -9.410156 19 -7.359375 C 18.601562 -5.304688 17.578125 -3.519531 15.921875 -2 C 14.222656 -0.445312 12.363281 0.328125 10.34375 0.328125 C 8.289062 0.328125 6.726562 -0.445312 5.65625 -2 L 5.359375 -2.515625 Z M 16.65625 -7.359375 C 16.925781 -8.785156 16.671875 -10.035156 15.890625 -11.109375 C 15.085938 -12.179688 13.960938 -12.71875 12.515625 -12.71875 C 11.035156 -12.71875 9.695312 -12.179688 8.5 -11.109375 C 7.289062 -10.035156 6.554688 -8.785156 6.296875 -7.359375 C 6.023438 -5.910156 6.269531 -4.660156 7.03125 -3.609375 C 7.832031 -2.535156 8.96875 -2 10.4375 -2 C 11.882812 -2 13.210938 -2.535156 14.421875 -3.609375 C 15.648438 -4.703125 16.394531 -5.953125 16.65625 -7.359375 Z M 16.65625 -7.359375 "/></g></g></g><g fill="#000000" fill-opacity="1"><g transform="translate(117.641501, 32.402992)"><g><path d="M 2.75 8.359375 L -0.09375 8.359375 L 6.953125 -2.40625 L 3.21875 -14.71875 L 5.890625 -14.71875 L 8.671875 -4.84375 L 14.8125 -14.71875 L 17.421875 -14.71875 Z M 2.75 8.359375 "/></g></g></g><g fill="#000000" fill-opacity="1"><g transform="translate(131.856076, 32.402992)"><g/></g></g><g fill="#000000" fill-opacity="1"><g transform="translate(140.886511, 32.402992)"><g><path d="M 7.0625 -11.28125 L 12.34375 -11.28125 C 13.59375 -11.28125 14.753906 -11.722656 15.828125 -12.609375 C 16.867188 -13.523438 17.523438 -14.640625 17.796875 -15.953125 C 18.066406 -17.296875 17.863281 -18.390625 17.1875 -19.234375 C 16.519531 -20.078125 15.5 -20.5 14.125 -20.5 L 8.828125 -20.5 Z M 20.109375 -15.890625 C 19.703125 -13.878906 18.675781 -12.226562 17.03125 -10.9375 C 15.351562 -9.644531 13.523438 -9 11.546875 -9 L 6.59375 -9 L 4.84375 0 L 2.515625 0 L 6.921875 -22.75 L 14.21875 -22.75 C 16.25 -22.75 17.832031 -22.113281 18.96875 -20.84375 C 20.125 -19.550781 20.503906 -17.898438 20.109375 -15.890625 Z M 20.109375 -15.890625 "/></g></g></g><g fill="#000000" fill-opacity="1"><g transform="translate(158.579486, 32.402992)"><g><path d="M 12.34375 -11.671875 C 11.914062 -12.160156 11.390625 -12.40625 10.765625 -12.40625 C 10.171875 -12.40625 9.613281 -12.238281 9.09375 -11.90625 C 8.851562 -11.75 8.617188 -11.554688 8.390625 -11.328125 C 8.171875 -11.109375 7.960938 -10.878906 7.765625 -10.640625 C 7.003906 -9.660156 6.515625 -8.566406 6.296875 -7.359375 L 4.84375 0 L 2.515625 0 L 5.390625 -14.71875 L 7.734375 -14.71875 L 7.125 -11.671875 L 7.328125 -12.28125 C 8.460938 -14.101562 9.859375 -15.015625 11.515625 -15.015625 C 12.046875 -15.015625 12.523438 -14.914062 12.953125 -14.71875 Z M 12.34375 -11.671875 "/></g></g></g><g fill="#000000" fill-opacity="1"><g transform="translate(168.981196, 32.402992)"><g><path d="M 15.984375 -7.421875 C 16.273438 -8.867188 16 -10.128906 15.15625 -11.203125 C 14.3125 -12.253906 13.148438 -12.78125 11.671875 -12.78125 C 10.203125 -12.78125 8.84375 -12.253906 7.59375 -11.203125 C 6.363281 -10.179688 5.59375 -8.921875 5.28125 -7.421875 C 5.019531 -5.953125 5.300781 -4.707031 6.125 -3.6875 C 6.96875 -2.632812 8.125 -2.109375 9.59375 -2.109375 C 11.070312 -2.109375 12.4375 -2.632812 13.6875 -3.6875 C 14.957031 -4.75 15.722656 -5.992188 15.984375 -7.421875 Z M 18.328125 -7.421875 C 17.929688 -5.285156 16.828125 -3.476562 15.015625 -2 C 13.234375 -0.507812 11.285156 0.234375 9.171875 0.234375 C 7.046875 0.234375 5.367188 -0.507812 4.140625 -2 C 2.941406 -3.476562 2.539062 -5.285156 2.9375 -7.421875 C 3.34375 -9.546875 4.445312 -11.351562 6.25 -12.84375 C 8.082031 -14.363281 10.046875 -15.125 12.140625 -15.125 C 14.265625 -15.125 15.925781 -14.363281 17.125 -12.84375 C 18.332031 -11.351562 18.734375 -9.546875 18.328125 -7.421875 Z M 18.328125 -7.421875 "/></g></g></g><g fill="#000000" fill-opacity="1"><g transform="translate(187.37653, 32.402992)"><g><path d="M 14.859375 -22.921875 L 12.84375 -22.921875 C 12.039062 -22.921875 11.492188 -22.738281 11.203125 -22.375 C 10.867188 -21.976562 10.660156 -21.546875 10.578125 -21.078125 L 9.359375 -14.71875 L 13.28125 -14.71875 L 12.84375 -12.546875 L 8.9375 -12.546875 L 6.484375 0 L 4.140625 0 L 6.59375 -12.546875 L 3.609375 -12.546875 L 4.046875 -14.71875 L 7.03125 -14.71875 L 8.125 -20.40625 C 8.28125 -21.164062 8.5 -21.832031 8.78125 -22.40625 C 9.0625 -22.988281 9.410156 -23.484375 9.828125 -23.890625 C 10.703125 -24.691406 11.960938 -25.09375 13.609375 -25.09375 L 15.28125 -25.09375 Z M 14.859375 -22.921875 "/></g></g></g><g fill="#000000" fill-opacity="1"><g transform="translate(198.781635, 32.402992)"><g><path d="M 18.40625 -7.6875 L 18.171875 -6.453125 L 5.21875 -6.453125 C 5.195312 -5.179688 5.597656 -4.144531 6.421875 -3.34375 C 7.265625 -2.519531 8.320312 -2.109375 9.59375 -2.109375 C 10.019531 -2.109375 10.445312 -2.148438 10.875 -2.234375 C 11.300781 -2.328125 11.722656 -2.472656 12.140625 -2.671875 C 12.566406 -2.878906 12.96875 -3.113281 13.34375 -3.375 C 13.726562 -3.644531 14.078125 -3.957031 14.390625 -4.3125 L 17.0625 -4.3125 C 16.164062 -2.90625 15.003906 -1.800781 13.578125 -1 C 12.128906 -0.175781 10.769531 0.234375 9.5 0.234375 C 8.207031 0.234375 7.140625 0.03125 6.296875 -0.375 C 5.867188 -0.570312 5.472656 -0.800781 5.109375 -1.0625 C 4.753906 -1.332031 4.429688 -1.644531 4.140625 -2 C 2.941406 -3.476562 2.539062 -5.285156 2.9375 -7.421875 C 3.34375 -9.546875 4.445312 -11.351562 6.25 -12.84375 C 8.082031 -14.363281 10.046875 -15.125 12.140625 -15.125 C 14.191406 -15.125 15.84375 -14.398438 17.09375 -12.953125 C 18.363281 -11.472656 18.800781 -9.71875 18.40625 -7.6875 Z M 16.0625 -8.46875 C 16.007812 -9.738281 15.582031 -10.773438 14.78125 -11.578125 C 13.976562 -12.378906 12.941406 -12.78125 11.671875 -12.78125 C 9.773438 -12.78125 8.101562 -11.910156 6.65625 -10.171875 C 6.207031 -9.628906 5.863281 -9.0625 5.625 -8.46875 Z M 16.0625 -8.46875 "/></g></g></g><g fill="#000000" fill-opacity="1"><g transform="translate(217.00973, 32.402992)"><g><path d="M 5.046875 -2.109375 C 5.566406 -1.703125 6.28125 -1.5 7.1875 -1.5 C 9.375 -1.5 10.613281 -2.300781 10.90625 -3.90625 C 11.0625 -4.84375 10.425781 -5.5625 9 -6.0625 C 8.707031 -6.164062 8.394531 -6.265625 8.0625 -6.359375 C 7.726562 -6.460938 7.382812 -6.5625 7.03125 -6.65625 C 6.332031 -6.8125 5.679688 -7.046875 5.078125 -7.359375 C 4.390625 -7.691406 3.898438 -8.140625 3.609375 -8.703125 C 3.347656 -9.234375 3.28125 -9.867188 3.40625 -10.609375 C 3.675781 -12.054688 4.414062 -13.160156 5.625 -13.921875 C 6.78125 -14.671875 8.070312 -15.046875 9.5 -15.046875 C 10.21875 -15.046875 10.859375 -14.976562 11.421875 -14.84375 C 11.992188 -14.71875 12.488281 -14.5 12.90625 -14.1875 C 13.71875 -13.625 14.144531 -12.585938 14.1875 -11.078125 L 11.671875 -11.078125 C 11.585938 -11.898438 11.3125 -12.445312 10.84375 -12.71875 C 10.375 -12.976562 9.78125 -13.109375 9.0625 -13.109375 C 8.332031 -13.109375 7.675781 -12.953125 7.09375 -12.640625 C 6.507812 -12.328125 6.148438 -11.835938 6.015625 -11.171875 C 5.890625 -10.503906 6.015625 -10.015625 6.390625 -9.703125 C 6.765625 -9.390625 7.253906 -9.132812 7.859375 -8.9375 C 8.171875 -8.84375 8.492188 -8.75 8.828125 -8.65625 C 9.160156 -8.570312 9.507812 -8.484375 9.875 -8.390625 C 10.226562 -8.304688 10.566406 -8.203125 10.890625 -8.078125 C 11.210938 -7.953125 11.519531 -7.8125 11.8125 -7.65625 C 13.164062 -6.925781 13.703125 -5.78125 13.421875 -4.21875 C 13.128906 -2.65625 12.335938 -1.484375 11.046875 -0.703125 C 10.367188 -0.328125 9.675781 -0.0351562 8.96875 0.171875 C 8.613281 0.253906 8.242188 0.316406 7.859375 0.359375 C 7.484375 0.410156 7.09375 0.4375 6.6875 0.4375 C 3.300781 0.4375 1.640625 -1.078125 1.703125 -4.109375 L 4.1875 -4.109375 C 4.25 -3.203125 4.535156 -2.535156 5.046875 -2.109375 Z M 5.046875 -2.109375 "/></g></g></g><g fill="#000000" fill-opacity="1"><g transform="translate(230.455055, 32.402992)"><g><path d="M 8.734375 -19.796875 C 8.953125 -19.515625 9.03125 -19.160156 8.96875 -18.734375 C 8.894531 -18.378906 8.679688 -18.035156 8.328125 -17.703125 C 8.015625 -17.410156 7.632812 -17.265625 7.1875 -17.265625 C 6.769531 -17.265625 6.445312 -17.410156 6.21875 -17.703125 C 6 -17.984375 5.921875 -18.328125 5.984375 -18.734375 C 6.054688 -19.140625 6.269531 -19.492188 6.625 -19.796875 C 6.9375 -20.085938 7.316406 -20.234375 7.765625 -20.234375 C 8.179688 -20.234375 8.503906 -20.085938 8.734375 -19.796875 Z M 5.015625 0 L 2.671875 0 L 5.546875 -14.71875 L 7.890625 -14.71875 Z M 5.015625 0 "/></g></g></g><g fill="#000000" fill-opacity="1"><g transform="translate(238.114185, 32.402992)"><g><path d="M 15.984375 -7.421875 C 16.273438 -8.867188 16 -10.128906 15.15625 -11.203125 C 14.3125 -12.253906 13.148438 -12.78125 11.671875 -12.78125 C 10.203125 -12.78125 8.84375 -12.253906 7.59375 -11.203125 C 6.363281 -10.179688 5.59375 -8.921875 5.28125 -7.421875 C 5.019531 -5.953125 5.300781 -4.707031 6.125 -3.6875 C 6.96875 -2.632812 8.125 -2.109375 9.59375 -2.109375 C 11.070312 -2.109375 12.4375 -2.632812 13.6875 -3.6875 C 14.957031 -4.75 15.722656 -5.992188 15.984375 -7.421875 Z M 18.328125 -7.421875 C 17.929688 -5.285156 16.828125 -3.476562 15.015625 -2 C 13.234375 -0.507812 11.285156 0.234375 9.171875 0.234375 C 7.046875 0.234375 5.367188 -0.507812 4.140625 -2 C 2.941406 -3.476562 2.539062 -5.285156 2.9375 -7.421875 C 3.34375 -9.546875 4.445312 -11.351562 6.25 -12.84375 C 8.082031 -14.363281 10.046875 -15.125 12.140625 -15.125 C 14.265625 -15.125 15.925781 -14.363281 17.125 -12.84375 C 18.332031 -11.351562 18.734375 -9.546875 18.328125 -7.421875 Z M 18.328125 -7.421875 "/></g></g></g><g fill="#000000" fill-opacity="1"><g transform="translate(256.509535, 32.402992)"><g><path d="M 12.671875 0 L 14.453125 -9.203125 C 14.648438 -10.140625 14.59375 -10.953125 14.28125 -11.640625 C 13.96875 -12.328125 13.320312 -12.671875 12.34375 -12.671875 C 11.34375 -12.671875 10.484375 -12.484375 9.765625 -12.109375 C 9.078125 -11.753906 8.476562 -11.265625 7.96875 -10.640625 C 7.070312 -9.546875 6.4375 -8.050781 6.0625 -6.15625 L 4.84375 0 L 2.515625 0 L 5.390625 -14.71875 L 7.734375 -14.71875 L 7.21875 -12.171875 C 7.84375 -13.003906 8.601562 -13.675781 9.5 -14.1875 C 10.4375 -14.738281 11.40625 -15.015625 12.40625 -15.015625 C 13.476562 -15.015625 14.304688 -14.867188 14.890625 -14.578125 C 15.441406 -14.296875 15.898438 -13.875 16.265625 -13.3125 C 16.953125 -12.289062 17.128906 -10.921875 16.796875 -9.203125 L 15.015625 0 Z M 12.671875 0 "/></g></g></g><g fill="#000000" fill-opacity="1"><g transform="translate(273.533565, 32.402992)"><g><path d="M 15.65625 -7.359375 C 15.925781 -8.785156 15.671875 -10.035156 14.890625 -11.109375 C 14.085938 -12.179688 12.960938 -12.71875 11.515625 -12.71875 C 10.035156 -12.71875 8.695312 -12.179688 7.5 -11.109375 C 6.289062 -10.035156 5.550781 -8.785156 5.28125 -7.359375 C 5.019531 -5.910156 5.265625 -4.660156 6.015625 -3.609375 C 6.816406 -2.535156 7.957031 -2 9.4375 -2 C 10.882812 -2 12.210938 -2.535156 13.421875 -3.609375 C 14.640625 -4.703125 15.382812 -5.953125 15.65625 -7.359375 Z M 16.5625 0 L 14.21875 0 L 14.71875 -2.515625 C 14.625 -2.421875 14.53125 -2.332031 14.4375 -2.25 C 14.351562 -2.175781 14.269531 -2.09375 14.1875 -2 C 12.488281 -0.445312 10.625 0.328125 8.59375 0.328125 C 6.539062 0.328125 4.976562 -0.445312 3.90625 -2 C 2.863281 -3.5 2.539062 -5.285156 2.9375 -7.359375 C 3.34375 -9.429688 4.359375 -11.21875 5.984375 -12.71875 C 7.679688 -14.269531 9.546875 -15.046875 11.578125 -15.046875 C 13.628906 -15.046875 15.191406 -14.269531 16.265625 -12.71875 C 16.304688 -12.625 16.359375 -12.535156 16.421875 -12.453125 C 16.492188 -12.378906 16.550781 -12.296875 16.59375 -12.203125 L 17.09375 -14.71875 L 19.4375 -14.71875 Z M 16.5625 0 "/></g></g></g><g fill="#000000" fill-opacity="1"><g transform="translate(292.597815, 32.402992)"><g><path d="M 4.84375 0 L 2.515625 0 L 7.390625 -25.09375 L 9.734375 -25.09375 Z M 4.84375 0 "/></g></g></g><g fill="#000000" fill-opacity="1"><g transform="translate(299.955955, 32.402992)"><g><path d="M 8.734375 -19.796875 C 8.953125 -19.515625 9.03125 -19.160156 8.96875 -18.734375 C 8.894531 -18.378906 8.679688 -18.035156 8.328125 -17.703125 C 8.015625 -17.410156 7.632812 -17.265625 7.1875 -17.265625 C 6.769531 -17.265625 6.445312 -17.410156 6.21875 -17.703125 C 6 -17.984375 5.921875 -18.328125 5.984375 -18.734375 C 6.054688 -19.140625 6.269531 -19.492188 6.625 -19.796875 C 6.9375 -20.085938 7.316406 -20.234375 7.765625 -20.234375 C 8.179688 -20.234375 8.503906 -20.085938 8.734375 -19.796875 Z M 5.015625 0 L 2.671875 0 L 5.546875 -14.71875 L 7.890625 -14.71875 Z M 5.015625 0 "/></g></g></g><g fill="#000000" fill-opacity="1"><g transform="translate(307.615085, 32.402992)"><g><path d="M 5.046875 -2.109375 C 5.566406 -1.703125 6.28125 -1.5 7.1875 -1.5 C 9.375 -1.5 10.613281 -2.300781 10.90625 -3.90625 C 11.0625 -4.84375 10.425781 -5.5625 9 -6.0625 C 8.707031 -6.164062 8.394531 -6.265625 8.0625 -6.359375 C 7.726562 -6.460938 7.382812 -6.5625 7.03125 -6.65625 C 6.332031 -6.8125 5.679688 -7.046875 5.078125 -7.359375 C 4.390625 -7.691406 3.898438 -8.140625 3.609375 -8.703125 C 3.347656 -9.234375 3.28125 -9.867188 3.40625 -10.609375 C 3.675781 -12.054688 4.414062 -13.160156 5.625 -13.921875 C 6.78125 -14.671875 8.070312 -15.046875 9.5 -15.046875 C 10.21875 -15.046875 10.859375 -14.976562 11.421875 -14.84375 C 11.992188 -14.71875 12.488281 -14.5 12.90625 -14.1875 C 13.71875 -13.625 14.144531 -12.585938 14.1875 -11.078125 L 11.671875 -11.078125 C 11.585938 -11.898438 11.3125 -12.445312 10.84375 -12.71875 C 10.375 -12.976562 9.78125 -13.109375 9.0625 -13.109375 C 8.332031 -13.109375 7.675781 -12.953125 7.09375 -12.640625 C 6.507812 -12.328125 6.148438 -11.835938 6.015625 -11.171875 C 5.890625 -10.503906 6.015625 -10.015625 6.390625 -9.703125 C 6.765625 -9.390625 7.253906 -9.132812 7.859375 -8.9375 C 8.171875 -8.84375 8.492188 -8.75 8.828125 -8.65625 C 9.160156 -8.570312 9.507812 -8.484375 9.875 -8.390625 C 10.226562 -8.304688 10.566406 -8.203125 10.890625 -8.078125 C 11.210938 -7.953125 11.519531 -7.8125 11.8125 -7.65625 C 13.164062 -6.925781 13.703125 -5.78125 13.421875 -4.21875 C 13.128906 -2.65625 12.335938 -1.484375 11.046875 -0.703125 C 10.367188 -0.328125 9.675781 -0.0351562 8.96875 0.171875 C 8.613281 0.253906 8.242188 0.316406 7.859375 0.359375 C 7.484375 0.410156 7.09375 0.4375 6.6875 0.4375 C 3.300781 0.4375 1.640625 -1.078125 1.703125 -4.109375 L 4.1875 -4.109375 C 4.25 -3.203125 4.535156 -2.535156 5.046875 -2.109375 Z M 5.046875 -2.109375 "/></g></g></g><g fill="#000000" fill-opacity="1"><g transform="translate(321.060394, 32.402992)"><g><path d="M 21.171875 -0.0625 L 22.984375 -9.265625 C 23.273438 -10.785156 22.992188 -11.859375 22.140625 -12.484375 C 21.859375 -12.679688 21.367188 -12.78125 20.671875 -12.78125 C 19.984375 -12.78125 19.304688 -12.578125 18.640625 -12.171875 C 18.296875 -11.972656 17.976562 -11.742188 17.6875 -11.484375 C 17.40625 -11.234375 17.140625 -10.953125 16.890625 -10.640625 C 16.804688 -10.503906 16.71875 -10.375 16.625 -10.25 C 16.539062 -10.125 16.453125 -9.984375 16.359375 -9.828125 C 16.335938 -9.742188 16.320312 -9.65625 16.3125 -9.5625 C 16.300781 -9.476562 16.285156 -9.378906 16.265625 -9.265625 L 14.453125 -0.0625 L 12.109375 -0.0625 L 13.921875 -9.265625 C 14.203125 -10.785156 13.921875 -11.859375 13.078125 -12.484375 C 12.785156 -12.679688 12.296875 -12.78125 11.609375 -12.78125 C 10.921875 -12.78125 10.238281 -12.578125 9.5625 -12.171875 C 9.226562 -11.972656 8.914062 -11.742188 8.625 -11.484375 C 8.34375 -11.234375 8.078125 -10.953125 7.828125 -10.640625 C 7.179688 -9.785156 6.679688 -8.769531 6.328125 -7.59375 L 4.84375 -0.0625 L 2.515625 -0.0625 L 5.390625 -14.78125 L 7.734375 -14.78125 L 7.265625 -12.4375 C 7.578125 -12.820312 7.898438 -13.171875 8.234375 -13.484375 C 8.566406 -13.796875 8.921875 -14.0625 9.296875 -14.28125 C 10.148438 -14.84375 11.097656 -15.125 12.140625 -15.125 C 13.191406 -15.125 13.984375 -14.96875 14.515625 -14.65625 C 15.097656 -14.320312 15.535156 -13.882812 15.828125 -13.34375 C 15.910156 -13.1875 15.988281 -13.019531 16.0625 -12.84375 C 16.144531 -12.664062 16.210938 -12.488281 16.265625 -12.3125 C 16.578125 -12.707031 16.898438 -13.070312 17.234375 -13.40625 C 17.566406 -13.75 17.929688 -14.039062 18.328125 -14.28125 C 19.179688 -14.84375 20.140625 -15.125 21.203125 -15.125 C 22.253906 -15.125 23.046875 -14.96875 23.578125 -14.65625 C 24.160156 -14.320312 24.597656 -13.882812 24.890625 -13.34375 C 25.515625 -12.25 25.660156 -10.890625 25.328125 -9.265625 L 23.515625 -0.0625 Z M 21.171875 -0.0625 "/></g></g></g></g></g></g></g></g></svg>