<svg xmlns="http://www.w3.org/2000/svg" xmlns:xlink="http://www.w3.org/1999/xlink" width="500" zoomAndPan="magnify" viewBox="0 0 375 374.999991" height="500" preserveAspectRatio="xMidYMid meet" version="1.0"><defs><clipPath id="cf280817f4"><path d="M 0.613281 0.613281 L 304.5 0.613281 L 304.5 304.5 L 0.613281 304.5 Z M 0.613281 0.613281 " clip-rule="nonzero"/></clipPath><clipPath id="f5cdd0d445"><path d="M 152.558594 0.613281 C 68.640625 0.613281 0.613281 68.640625 0.613281 152.558594 C 0.613281 236.472656 68.640625 304.5 152.558594 304.5 C 236.472656 304.5 304.5 236.472656 304.5 152.558594 C 304.5 68.640625 236.472656 0.613281 152.558594 0.613281 Z M 152.558594 0.613281 " clip-rule="nonzero"/></clipPath><clipPath id="723cb22807"><path d="M 0.613281 0.613281 L 304.5 0.613281 L 304.5 304.5 L 0.613281 304.5 Z M 0.613281 0.613281 " clip-rule="nonzero"/></clipPath><clipPath id="119bc8397b"><path d="M 152.558594 0.613281 C 68.640625 0.613281 0.613281 68.640625 0.613281 152.558594 C 0.613281 236.472656 68.640625 304.5 152.558594 304.5 C 236.472656 304.5 304.5 236.472656 304.5 152.558594 C 304.5 68.640625 236.472656 0.613281 152.558594 0.613281 Z M 152.558594 0.613281 " clip-rule="nonzero"/></clipPath><clipPath id="b677eebf51"><rect x="0" width="305" y="0" height="305"/></clipPath><clipPath id="746ac4fe5d"><path d="M 123 78 L 264 78 L 264 268 L 123 268 Z M 123 78 " clip-rule="nonzero"/></clipPath><clipPath id="f21a297d36"><path d="M 215.40625 65.671875 L 276.601562 101.691406 L 171.351562 280.492188 L 110.15625 244.472656 Z M 215.40625 65.671875 " clip-rule="nonzero"/></clipPath><clipPath id="bd7d39e2eb"><path d="M 246.003906 83.679688 C 254.117188 88.457031 260.003906 96.261719 262.363281 105.378906 C 264.726562 114.492188 263.367188 124.171875 258.589844 132.289062 L 189.410156 249.816406 C 184.632812 257.933594 176.828125 263.816406 167.710938 266.179688 C 158.597656 268.539062 148.914062 267.179688 140.800781 262.40625 C 132.6875 257.628906 126.800781 249.824219 124.441406 240.707031 C 122.082031 231.59375 123.4375 221.910156 128.214844 213.796875 L 197.398438 96.265625 C 202.171875 88.152344 209.976562 82.269531 219.09375 79.90625 C 228.210938 77.546875 237.890625 78.90625 246.003906 83.679688 Z M 246.003906 83.679688 " clip-rule="nonzero"/></clipPath><clipPath id="43e92728ec"><path d="M 0 0 L 141 0 L 141 190 L 0 190 Z M 0 0 " clip-rule="nonzero"/></clipPath><clipPath id="f937a31992"><path d="M 92.40625 -12.328125 L 153.601562 23.691406 L 48.351562 202.492188 L -12.84375 166.472656 Z M 92.40625 -12.328125 " clip-rule="nonzero"/></clipPath><clipPath id="a10bfcdddd"><path d="M 123.003906 5.679688 C 131.117188 10.457031 137.003906 18.261719 139.363281 27.378906 C 141.726562 36.492188 140.367188 46.171875 135.589844 54.289062 L 66.410156 171.816406 C 61.632812 179.933594 53.828125 185.816406 44.710938 188.179688 C 35.597656 190.539062 25.914062 189.179688 17.800781 184.40625 C 9.6875 179.628906 3.800781 171.824219 1.441406 162.707031 C -0.917969 153.59375 0.4375 143.910156 5.214844 135.796875 L 74.398438 18.265625 C 79.171875 10.152344 86.976562 4.269531 96.09375 1.90625 C 105.210938 -0.453125 114.890625 0.90625 123.003906 5.679688 Z M 123.003906 5.679688 " clip-rule="nonzero"/></clipPath><clipPath id="4307a98330"><rect x="0" width="141" y="0" height="190"/></clipPath><clipPath id="65baced540"><path d="M 39.34375 81.691406 L 110.28125 81.691406 L 110.28125 152.625 L 39.34375 152.625 Z M 39.34375 81.691406 " clip-rule="nonzero"/></clipPath><clipPath id="c90123efad"><rect x="0" width="305" y="0" height="305"/></clipPath></defs><g transform="matrix(1, 0, 0, 1, 33, 33)"><g clip-path="url(#c90123efad)"><g clip-path="url(#cf280817f4)"><g clip-path="url(#f5cdd0d445)"><g><g clip-path="url(#b677eebf51)"><g clip-path="url(#723cb22807)"><g clip-path="url(#119bc8397b)"><path fill="#191919" d="M 0.613281 0.613281 L 304.5 0.613281 L 304.5 304.5 L 0.613281 304.5 Z M 0.613281 0.613281 " fill-opacity="1" fill-rule="nonzero"/></g></g></g></g></g></g><g clip-path="url(#746ac4fe5d)"><g clip-path="url(#f21a297d36)"><g clip-path="url(#bd7d39e2eb)"><g transform="matrix(1, 0, 0, 1, 123, 78)"><g clip-path="url(#4307a98330)"><g clip-path="url(#43e92728ec)"><g clip-path="url(#f937a31992)"><g clip-path="url(#a10bfcdddd)"><path fill="#ffffff" d="M 92.40625 -12.328125 L 153.601562 23.691406 L 48.351562 202.492188 L -12.84375 166.472656 Z M 92.40625 -12.328125 " fill-opacity="1" fill-rule="nonzero"/></g></g></g></g></g></g></g></g><g clip-path="url(#65baced540)"><path fill="#ffffff" d="M 74.761719 81.691406 C 55.230469 81.691406 39.34375 97.578125 39.34375 117.109375 C 39.34375 136.636719 55.230469 152.523438 74.761719 152.523438 C 94.289062 152.523438 110.179688 136.636719 110.179688 117.109375 C 110.179688 97.578125 94.289062 81.691406 74.761719 81.691406 Z M 74.761719 149.757812 C 56.757812 149.757812 42.109375 135.109375 42.109375 117.109375 C 42.109375 99.101562 56.757812 84.457031 74.761719 84.457031 C 92.765625 84.457031 107.414062 99.101562 107.414062 117.109375 C 107.414062 135.109375 92.765625 149.757812 74.761719 149.757812 Z M 74.761719 149.757812 " fill-opacity="1" fill-rule="nonzero"/></g><path fill="#ffffff" d="M 74.761719 86.296875 C 57.773438 86.296875 43.949219 100.117188 43.949219 117.109375 C 43.949219 134.097656 57.773438 147.917969 74.761719 147.917969 C 91.75 147.917969 105.570312 134.097656 105.570312 117.109375 C 105.574219 100.117188 91.75 86.296875 74.761719 86.296875 Z M 74.761719 86.296875 " fill-opacity="1" fill-rule="nonzero"/></g></g></svg>