<svg xmlns="http://www.w3.org/2000/svg" xmlns:xlink="http://www.w3.org/1999/xlink" width="940" zoomAndPan="magnify" viewBox="0 0 705 591.000005" height="788" preserveAspectRatio="xMidYMid meet" version="1.0"><defs><g/><clipPath id="ddc5c46bb2"><path d="M 0.59375 0 L 704.402344 0 L 704.402344 590 L 0.59375 590 Z M 0.59375 0 " clip-rule="nonzero"/></clipPath><clipPath id="4b08e31762"><path d="M 0.4375 0.914062 L 214.609375 0.914062 L 214.609375 215.085938 L 0.4375 215.085938 Z M 0.4375 0.914062 " clip-rule="nonzero"/></clipPath><clipPath id="993d0262d9"><path d="M 107.523438 0.914062 C 48.382812 0.914062 0.4375 48.859375 0.4375 108 C 0.4375 167.144531 48.382812 215.085938 107.523438 215.085938 C 166.664062 215.085938 214.609375 167.144531 214.609375 108 C 214.609375 48.859375 166.664062 0.914062 107.523438 0.914062 Z M 107.523438 0.914062 " clip-rule="nonzero"/></clipPath><clipPath id="20df2a6486"><path d="M 0.4375 0.914062 L 214.609375 0.914062 L 214.609375 215.085938 L 0.4375 215.085938 Z M 0.4375 0.914062 " clip-rule="nonzero"/></clipPath><clipPath id="44353850e9"><path d="M 107.523438 0.914062 C 48.382812 0.914062 0.4375 48.859375 0.4375 108 C 0.4375 167.144531 48.382812 215.085938 107.523438 215.085938 C 166.664062 215.085938 214.609375 167.144531 214.609375 108 C 214.609375 48.859375 166.664062 0.914062 107.523438 0.914062 Z M 107.523438 0.914062 " clip-rule="nonzero"/></clipPath><clipPath id="1fb92c4e79"><rect x="0" width="215" y="0" height="216"/></clipPath><clipPath id="7b7b926019"><path d="M 95 55 L 195 55 L 195 188 L 95 188 Z M 95 55 " clip-rule="nonzero"/></clipPath><clipPath id="0b4ab066d3"><path d="M 160.183594 45.863281 L 203.3125 71.25 L 129.136719 197.265625 L 86.007812 171.878906 Z M 160.183594 45.863281 " clip-rule="nonzero"/></clipPath><clipPath id="64c6f1768b"><path d="M 181.75 58.554688 C 187.46875 61.921875 191.617188 67.421875 193.28125 73.847656 C 194.941406 80.273438 193.988281 87.09375 190.621094 92.8125 L 141.863281 175.644531 C 138.496094 181.363281 132.996094 185.511719 126.570312 187.175781 C 120.144531 188.839844 113.324219 187.882812 107.605469 184.515625 C 101.886719 181.148438 97.738281 175.648438 96.074219 169.226562 C 94.410156 162.800781 95.367188 155.976562 98.734375 150.257812 L 147.492188 67.425781 C 150.859375 61.707031 156.359375 57.558594 162.785156 55.898438 C 169.207031 54.234375 176.03125 55.191406 181.75 58.554688 Z M 181.75 58.554688 " clip-rule="nonzero"/></clipPath><clipPath id="f40dbb251f"><path d="M 0 0 L 100 0 L 100 133 L 0 133 Z M 0 0 " clip-rule="nonzero"/></clipPath><clipPath id="eef51d0740"><path d="M 65.183594 -9.136719 L 108.3125 16.25 L 34.136719 142.265625 L -8.992188 116.878906 Z M 65.183594 -9.136719 " clip-rule="nonzero"/></clipPath><clipPath id="422e8d0d45"><path d="M 86.75 3.554688 C 92.46875 6.921875 96.617188 12.421875 98.28125 18.847656 C 99.941406 25.273438 98.988281 32.09375 95.621094 37.8125 L 46.863281 120.644531 C 43.496094 126.363281 37.996094 130.511719 31.570312 132.175781 C 25.144531 133.839844 18.324219 132.882812 12.605469 129.515625 C 6.886719 126.148438 2.738281 120.648438 1.074219 114.226562 C -0.589844 107.800781 0.367188 100.976562 3.734375 95.257812 L 52.492188 12.425781 C 55.859375 6.707031 61.359375 2.558594 67.785156 0.898438 C 74.207031 -0.765625 81.03125 0.191406 86.75 3.554688 Z M 86.75 3.554688 " clip-rule="nonzero"/></clipPath><clipPath id="901ace7a4c"><rect x="0" width="100" y="0" height="133"/></clipPath><clipPath id="4057b2e293"><path d="M 23.386719 53.523438 L 73.683594 53.523438 L 73.683594 103.820312 L 23.386719 103.820312 Z M 23.386719 53.523438 " clip-rule="nonzero"/></clipPath><clipPath id="99aefcf2f1"><path d="M 214 22 L 678.148438 22 L 678.148438 156 L 214 156 Z M 214 22 " clip-rule="nonzero"/></clipPath><clipPath id="96dcc80d4c"><rect x="0" width="465" y="0" height="134"/></clipPath><clipPath id="dc3a2b5b01"><rect x="0" width="403" y="0" height="47"/></clipPath><clipPath id="41e9d805af"><rect x="0" width="679" y="0" height="216"/></clipPath></defs><g clip-path="url(#ddc5c46bb2)"><path fill="#ffffff" d="M 0.59375 0 L 704.40625 0 L 704.40625 590 L 0.59375 590 Z M 0.59375 0 " fill-opacity="1" fill-rule="nonzero"/><path fill="#ffffff" d="M 0.59375 0 L 704.40625 0 L 704.40625 590 L 0.59375 590 Z M 0.59375 0 " fill-opacity="1" fill-rule="nonzero"/></g><g transform="matrix(1, 0, 0, 1, 12, 187)"><g clip-path="url(#41e9d805af)"><g clip-path="url(#4b08e31762)"><g clip-path="url(#993d0262d9)"><g transform="matrix(1, 0, 0, 1, 0, -0.000000000000113687)"><g clip-path="url(#1fb92c4e79)"><g clip-path="url(#20df2a6486)"><g clip-path="url(#44353850e9)"><path fill="#110e60" d="M 0.4375 0.914062 L 214.609375 0.914062 L 214.609375 215.085938 L 0.4375 215.085938 Z M 0.4375 0.914062 " fill-opacity="1" fill-rule="nonzero"/></g></g></g></g></g></g><g clip-path="url(#7b7b926019)"><g clip-path="url(#0b4ab066d3)"><g clip-path="url(#64c6f1768b)"><g transform="matrix(1, 0, 0, 1, 95, 55)"><g clip-path="url(#901ace7a4c)"><g clip-path="url(#f40dbb251f)"><g clip-path="url(#eef51d0740)"><g clip-path="url(#422e8d0d45)"><path fill="#ffffff" d="M 65.183594 -9.136719 L 108.3125 16.25 L 34.136719 142.265625 L -8.992188 116.878906 Z M 65.183594 -9.136719 " fill-opacity="1" fill-rule="nonzero"/></g></g></g></g></g></g></g></g><g clip-path="url(#4057b2e293)"><path fill="#ffffff" d="M 48.359375 53.523438 C 34.589844 53.523438 23.386719 64.722656 23.386719 78.496094 C 23.386719 92.265625 34.589844 103.46875 48.359375 103.46875 C 62.128906 103.46875 73.332031 92.265625 73.332031 78.496094 C 73.332031 64.722656 62.128906 53.523438 48.359375 53.523438 Z M 48.359375 101.515625 C 35.664062 101.515625 25.339844 91.1875 25.339844 78.496094 C 25.339844 65.800781 35.664062 55.472656 48.359375 55.472656 C 61.054688 55.472656 71.382812 65.800781 71.382812 78.496094 C 71.382812 91.1875 61.054688 101.515625 48.359375 101.515625 Z M 48.359375 101.515625 " fill-opacity="1" fill-rule="nonzero"/></g><path fill="#ffffff" d="M 48.359375 56.769531 C 36.382812 56.769531 26.636719 66.515625 26.636719 78.496094 C 26.636719 90.472656 36.382812 100.21875 48.359375 100.21875 C 60.339844 100.21875 70.085938 90.472656 70.085938 78.496094 C 70.085938 66.515625 60.339844 56.769531 48.359375 56.769531 Z M 48.359375 56.769531 " fill-opacity="1" fill-rule="nonzero"/><g clip-path="url(#99aefcf2f1)"><g transform="matrix(1, 0, 0, 1, 214, 22)"><g clip-path="url(#96dcc80d4c)"><g fill="#110e60" fill-opacity="1"><g transform="translate(0.609116, 105.829701)"><g><path d="M 60.171875 0 L 43.34375 0 L 1.109375 -100.859375 L 20.59375 -100.859375 L 51.65625 -24.078125 L 51.953125 -24.234375 L 82.921875 -100.859375 L 102.484375 -100.859375 Z M 60.171875 0 "/></g></g></g><g fill="#110e60" fill-opacity="1"><g transform="translate(95.386234, 105.829701)"><g><path d="M 40.984375 2.296875 C 35.835938 2.296875 31.078125 1.257812 26.703125 -0.8125 C 22.335938 -2.882812 18.535156 -5.773438 15.296875 -9.484375 C 12.066406 -13.191406 9.5625 -17.488281 7.78125 -22.375 C 6 -27.269531 5.109375 -32.507812 5.109375 -38.09375 C 5.109375 -43.675781 6.007812 -48.898438 7.8125 -53.765625 C 9.613281 -58.628906 12.132812 -62.910156 15.375 -66.609375 C 18.613281 -70.316406 22.40625 -73.21875 26.75 -75.3125 C 31.09375 -77.414062 35.8125 -78.46875 40.90625 -78.46875 C 47.132812 -78.46875 52.664062 -77.125 57.5 -74.4375 C 62.34375 -71.75 65.972656 -68.03125 68.390625 -63.28125 L 68.390625 -76.171875 L 85.4375 -76.171875 L 85.4375 0 L 68.390625 0 L 68.390625 -12.8125 C 65.921875 -8.070312 62.28125 -4.367188 57.46875 -1.703125 C 52.65625 0.960938 47.160156 2.296875 40.984375 2.296875 Z M 45.28125 -14.296875 C 48.394531 -14.296875 51.304688 -14.898438 54.015625 -16.109375 C 56.734375 -17.328125 59.117188 -19.007812 61.171875 -21.15625 C 63.222656 -23.300781 64.816406 -25.816406 65.953125 -28.703125 C 67.085938 -31.597656 67.65625 -34.726562 67.65625 -38.09375 C 67.65625 -41.394531 67.070312 -44.488281 65.90625 -47.375 C 64.75 -50.269531 63.15625 -52.804688 61.125 -54.984375 C 59.101562 -57.160156 56.734375 -58.851562 54.015625 -60.0625 C 51.304688 -61.269531 48.394531 -61.875 45.28125 -61.875 C 41.175781 -61.875 37.429688 -60.882812 34.046875 -58.90625 C 30.660156 -56.9375 27.953125 -54.171875 25.921875 -50.609375 C 23.898438 -47.054688 22.890625 -42.882812 22.890625 -38.09375 C 22.890625 -33.144531 23.914062 -28.894531 25.96875 -25.34375 C 28.019531 -21.789062 30.75 -19.0625 34.15625 -17.15625 C 37.570312 -15.25 41.28125 -14.296875 45.28125 -14.296875 Z M 45.28125 -14.296875 "/></g></g></g><g fill="#110e60" fill-opacity="1"><g transform="translate(182.531939, 105.829701)"><g><path d="M 28.453125 0 L 10.515625 0 L 10.515625 -104.40625 L 28.453125 -104.40625 Z M 28.453125 0 "/></g></g></g><g fill="#110e60" fill-opacity="1"><g transform="translate(212.627291, 105.829701)"><g><path d="M 28.453125 26.015625 L 10.515625 26.015625 L 10.515625 -76.171875 L 27.5625 -76.171875 L 27.5625 -63.359375 C 30.332031 -67.953125 34.015625 -71.609375 38.609375 -74.328125 C 43.203125 -77.046875 48.238281 -78.40625 53.71875 -78.40625 C 59.15625 -78.40625 64.132812 -77.351562 68.65625 -75.25 C 73.175781 -73.15625 77.09375 -70.265625 80.40625 -66.578125 C 83.71875 -62.898438 86.285156 -58.628906 88.109375 -53.765625 C 89.941406 -48.898438 90.859375 -43.675781 90.859375 -38.09375 C 90.859375 -32.507812 89.941406 -27.269531 88.109375 -22.375 C 86.285156 -17.488281 83.703125 -13.191406 80.359375 -9.484375 C 77.023438 -5.773438 73.125 -2.882812 68.65625 -0.8125 C 64.1875 1.257812 59.285156 2.296875 53.953125 2.296875 C 50.242188 2.296875 46.734375 1.691406 43.421875 0.484375 C 40.109375 -0.722656 37.144531 -2.425781 34.53125 -4.625 C 31.914062 -6.820312 29.765625 -9.378906 28.078125 -12.296875 L 28.453125 -3.484375 Z M 50.6875 -14.234375 C 54.738281 -14.234375 58.457031 -15.195312 61.84375 -17.125 C 65.226562 -19.050781 67.941406 -21.800781 69.984375 -25.375 C 72.035156 -28.957031 73.0625 -33.195312 73.0625 -38.09375 C 73.0625 -42.882812 72.046875 -47.054688 70.015625 -50.609375 C 67.992188 -54.171875 65.289062 -56.9375 61.90625 -58.90625 C 58.53125 -60.882812 54.765625 -61.875 50.609375 -61.875 C 47.492188 -61.875 44.59375 -61.269531 41.90625 -60.0625 C 39.21875 -58.851562 36.847656 -57.160156 34.796875 -54.984375 C 32.742188 -52.804688 31.132812 -50.285156 29.96875 -47.421875 C 28.8125 -44.554688 28.234375 -41.445312 28.234375 -38.09375 C 28.234375 -34.632812 28.828125 -31.445312 30.015625 -28.53125 C 31.203125 -25.613281 32.832031 -23.078125 34.90625 -20.921875 C 36.976562 -18.773438 39.375 -17.125 42.09375 -15.96875 C 44.8125 -14.8125 47.675781 -14.234375 50.6875 -14.234375 Z M 50.6875 -14.234375 "/></g></g></g><g fill="#110e60" fill-opacity="1"><g transform="translate(299.772996, 105.829701)"><g><path d="M 28.453125 0 L 10.515625 0 L 10.515625 -76.171875 L 27.71875 -76.171875 L 27.71875 -62.390625 C 29.488281 -66.585938 32.101562 -69.929688 35.5625 -72.421875 C 39.019531 -74.921875 43.222656 -76.171875 48.171875 -76.171875 L 56.3125 -76.171875 L 56.3125 -60.765625 L 49.125 -60.765625 C 45.03125 -60.765625 41.425781 -59.773438 38.3125 -57.796875 C 35.195312 -55.828125 32.773438 -52.960938 31.046875 -49.203125 C 29.316406 -45.453125 28.453125 -40.859375 28.453125 -35.421875 Z M 28.453125 0 "/></g></g></g><g fill="#110e60" fill-opacity="1"><g transform="translate(349.576651, 105.829701)"><g><path d="M 45.125 2.296875 C 39.34375 2.296875 34.003906 1.257812 29.109375 -0.8125 C 24.222656 -2.882812 19.988281 -5.773438 16.40625 -9.484375 C 12.832031 -13.191406 10.054688 -17.488281 8.078125 -22.375 C 6.097656 -27.269531 5.109375 -32.507812 5.109375 -38.09375 C 5.109375 -43.675781 6.097656 -48.898438 8.078125 -53.765625 C 10.054688 -58.628906 12.832031 -62.910156 16.40625 -66.609375 C 19.988281 -70.316406 24.222656 -73.21875 29.109375 -75.3125 C 34.003906 -77.414062 39.367188 -78.46875 45.203125 -78.46875 C 51.078125 -78.46875 56.457031 -77.414062 61.34375 -75.3125 C 66.238281 -73.21875 70.488281 -70.316406 74.09375 -66.609375 C 77.707031 -62.910156 80.5 -58.628906 82.46875 -53.765625 C 84.445312 -48.898438 85.4375 -43.675781 85.4375 -38.09375 C 85.4375 -32.457031 84.445312 -27.207031 82.46875 -22.34375 C 80.5 -17.476562 77.707031 -13.191406 74.09375 -9.484375 C 70.488281 -5.773438 66.226562 -2.882812 61.3125 -0.8125 C 56.40625 1.257812 51.007812 2.296875 45.125 2.296875 Z M 45.28125 -14.375 C 49.570312 -14.375 53.394531 -15.398438 56.75 -17.453125 C 60.113281 -19.503906 62.769531 -22.304688 64.71875 -25.859375 C 66.675781 -29.421875 67.65625 -33.5 67.65625 -38.09375 C 67.65625 -42.6875 66.675781 -46.769531 64.71875 -50.34375 C 62.769531 -53.925781 60.113281 -56.742188 56.75 -58.796875 C 53.394531 -60.847656 49.570312 -61.875 45.28125 -61.875 C 41.03125 -61.875 37.210938 -60.847656 33.828125 -58.796875 C 30.441406 -56.742188 27.769531 -53.925781 25.8125 -50.34375 C 23.863281 -46.769531 22.890625 -42.6875 22.890625 -38.09375 C 22.890625 -33.5 23.863281 -29.421875 25.8125 -25.859375 C 27.769531 -22.304688 30.441406 -19.503906 33.828125 -17.453125 C 37.210938 -15.398438 41.03125 -14.375 45.28125 -14.375 Z M 45.28125 -14.375 "/></g></g></g><g fill="#110e60" fill-opacity="1"><g transform="translate(431.313688, 105.829701)"><g><path d="M 19.9375 1.859375 C 17.863281 1.859375 16.046875 1.410156 14.484375 0.515625 C 12.929688 -0.367188 11.707031 -1.5625 10.8125 -3.0625 C 9.925781 -4.570312 9.484375 -6.21875 9.484375 -8 C 9.484375 -9.78125 9.914062 -11.421875 10.78125 -12.921875 C 11.644531 -14.429688 12.867188 -15.628906 14.453125 -16.515625 C 16.035156 -17.410156 17.890625 -17.859375 20.015625 -17.859375 C 22.128906 -17.859375 23.960938 -17.410156 25.515625 -16.515625 C 27.078125 -15.628906 28.300781 -14.429688 29.1875 -12.921875 C 30.082031 -11.421875 30.53125 -9.78125 30.53125 -8 C 30.53125 -5.28125 29.566406 -2.957031 27.640625 -1.03125 C 25.710938 0.894531 23.144531 1.859375 19.9375 1.859375 Z M 19.9375 1.859375 "/></g></g></g></g></g></g><g transform="matrix(1, 0, 0, 1, 239, 146)"><g clip-path="url(#dc3a2b5b01)"><g fill="#110e60" fill-opacity="1"><g transform="translate(1.545491, 36.118473)"><g><path d="M 25.75 -13.09375 C 25.363281 -11.21875 24.671875 -9.472656 23.671875 -7.859375 C 22.703125 -6.265625 21.484375 -4.878906 20.015625 -3.703125 C 19.296875 -3.128906 18.539062 -2.617188 17.75 -2.171875 C 16.957031 -1.722656 16.109375 -1.332031 15.203125 -1 C 13.410156 -0.332031 11.585938 0 9.734375 0 L 2.890625 0 L 7.96875 -26.1875 L 14.828125 -26.1875 C 16.671875 -26.1875 18.363281 -25.847656 19.90625 -25.171875 C 21.445312 -24.503906 22.703125 -23.609375 23.671875 -22.484375 C 24.648438 -21.378906 25.332031 -19.992188 25.71875 -18.328125 C 25.925781 -17.523438 26.035156 -16.6875 26.046875 -15.8125 C 26.054688 -14.945312 25.957031 -14.039062 25.75 -13.09375 Z M 23.140625 -13.09375 C 23.734375 -16.09375 23.164062 -18.582031 21.4375 -20.5625 C 19.75 -22.507812 17.40625 -23.484375 14.40625 -23.484375 L 10.15625 -23.484375 L 6.125 -2.6875 L 10.359375 -2.6875 C 13.390625 -2.6875 16.109375 -3.664062 18.515625 -5.625 C 21.035156 -7.625 22.578125 -10.113281 23.140625 -13.09375 Z M 23.140625 -13.09375 "/></g></g></g><g fill="#110e60" fill-opacity="1"><g transform="translate(26.48832, 36.118473)"><g><path d="M 14.203125 -13.4375 C 13.710938 -14 13.109375 -14.28125 12.390625 -14.28125 C 11.703125 -14.28125 11.0625 -14.085938 10.46875 -13.703125 C 10.1875 -13.523438 9.914062 -13.304688 9.65625 -13.046875 C 9.40625 -12.796875 9.164062 -12.53125 8.9375 -12.25 C 8.0625 -11.113281 7.492188 -9.851562 7.234375 -8.46875 L 5.578125 0 L 2.890625 0 L 6.203125 -16.9375 L 8.890625 -16.9375 L 8.203125 -13.4375 L 8.4375 -14.125 C 9.738281 -16.226562 11.34375 -17.28125 13.25 -17.28125 C 13.863281 -17.28125 14.414062 -17.164062 14.90625 -16.9375 Z M 14.203125 -13.4375 "/></g></g></g><g fill="#110e60" fill-opacity="1"><g transform="translate(38.459338, 36.118473)"><g><path d="M 10.046875 -22.796875 C 10.304688 -22.460938 10.394531 -22.050781 10.3125 -21.5625 C 10.238281 -21.144531 10 -20.742188 9.59375 -20.359375 C 9.226562 -20.023438 8.789062 -19.859375 8.28125 -19.859375 C 7.789062 -19.859375 7.414062 -20.023438 7.15625 -20.359375 C 6.90625 -20.691406 6.816406 -21.09375 6.890625 -21.5625 C 6.960938 -22.019531 7.207031 -22.429688 7.625 -22.796875 C 7.976562 -23.128906 8.414062 -23.296875 8.9375 -23.296875 C 9.414062 -23.296875 9.785156 -23.128906 10.046875 -22.796875 Z M 5.78125 0 L 3.078125 0 L 6.390625 -16.9375 L 9.09375 -16.9375 Z M 5.78125 0 "/></g></g></g><g fill="#110e60" fill-opacity="1"><g transform="translate(47.274007, 36.118473)"><g><path d="M 7.890625 1.609375 L 3.703125 -16.9375 L 6.625 -16.9375 L 9.046875 -4.34375 L 16.359375 -16.9375 L 19.28125 -16.9375 Z M 7.890625 1.609375 "/></g></g></g><g fill="#110e60" fill-opacity="1"><g transform="translate(63.633112, 36.118473)"><g><path d="M 21.171875 -8.859375 L 20.90625 -7.4375 L 6 -7.4375 C 5.976562 -5.96875 6.441406 -4.769531 7.390625 -3.84375 C 8.367188 -2.894531 9.585938 -2.421875 11.046875 -2.421875 C 11.535156 -2.421875 12.023438 -2.472656 12.515625 -2.578125 C 13.003906 -2.679688 13.488281 -2.847656 13.96875 -3.078125 C 14.457031 -3.304688 14.921875 -3.570312 15.359375 -3.875 C 15.796875 -4.1875 16.195312 -4.550781 16.5625 -4.96875 L 19.640625 -4.96875 C 18.609375 -3.351562 17.269531 -2.082031 15.625 -1.15625 C 13.957031 -0.207031 12.394531 0.265625 10.9375 0.265625 C 9.445312 0.265625 8.210938 0.0351562 7.234375 -0.421875 C 6.742188 -0.648438 6.296875 -0.914062 5.890625 -1.21875 C 5.484375 -1.53125 5.113281 -1.894531 4.78125 -2.3125 C 3.382812 -4 2.921875 -6.078125 3.390625 -8.546875 C 3.847656 -10.984375 5.117188 -13.0625 7.203125 -14.78125 C 9.304688 -16.53125 11.5625 -17.40625 13.96875 -17.40625 C 16.332031 -17.40625 18.234375 -16.570312 19.671875 -14.90625 C 21.140625 -13.207031 21.640625 -11.191406 21.171875 -8.859375 Z M 18.484375 -9.734375 C 18.429688 -11.203125 17.941406 -12.398438 17.015625 -13.328125 C 16.085938 -14.242188 14.894531 -14.703125 13.4375 -14.703125 C 11.25 -14.703125 9.320312 -13.703125 7.65625 -11.703125 C 7.144531 -11.085938 6.75 -10.429688 6.46875 -9.734375 Z M 18.484375 -9.734375 "/></g></g></g><g fill="#110e60" fill-opacity="1"><g transform="translate(84.611261, 36.118473)"><g><path d="M 14.59375 0 L 16.625 -10.59375 C 16.863281 -11.664062 16.800781 -12.597656 16.4375 -13.390625 C 16.082031 -14.191406 15.335938 -14.59375 14.203125 -14.59375 C 13.046875 -14.59375 12.054688 -14.375 11.234375 -13.9375 C 10.441406 -13.53125 9.75 -12.96875 9.15625 -12.25 C 8.132812 -10.988281 7.40625 -9.265625 6.96875 -7.078125 L 5.578125 0 L 2.890625 0 L 6.203125 -16.9375 L 8.890625 -16.9375 L 8.3125 -14.015625 C 9.03125 -14.960938 9.90625 -15.734375 10.9375 -16.328125 C 12.007812 -16.960938 13.125 -17.28125 14.28125 -17.28125 C 15.507812 -17.28125 16.457031 -17.113281 17.125 -16.78125 C 17.769531 -16.445312 18.300781 -15.960938 18.71875 -15.328125 C 19.507812 -14.140625 19.710938 -12.5625 19.328125 -10.59375 L 17.28125 0 Z M 14.59375 0 "/></g></g></g><g fill="#110e60" fill-opacity="1"><g transform="translate(104.203704, 36.118473)"><g/></g></g><g fill="#110e60" fill-opacity="1"><g transform="translate(114.596553, 36.118473)"><g><path d="M 5.578125 0 L 2.890625 0 L 8.515625 -28.875 L 11.203125 -28.875 L 8.3125 -14.046875 L 8.890625 -14.625 C 10.835938 -16.425781 12.984375 -17.328125 15.328125 -17.328125 C 17.679688 -17.328125 19.476562 -16.425781 20.71875 -14.625 C 21.945312 -12.882812 22.332031 -10.832031 21.875 -8.46875 C 21.40625 -6.101562 20.222656 -4.050781 18.328125 -2.3125 C 16.378906 -0.507812 14.234375 0.390625 11.890625 0.390625 C 9.535156 0.390625 7.738281 -0.507812 6.5 -2.3125 L 6.15625 -2.890625 Z M 19.171875 -8.46875 C 19.484375 -10.113281 19.1875 -11.550781 18.28125 -12.78125 C 17.363281 -14.007812 16.070312 -14.625 14.40625 -14.625 C 12.707031 -14.625 11.164062 -14.007812 9.78125 -12.78125 C 8.394531 -11.550781 7.546875 -10.113281 7.234375 -8.46875 C 6.929688 -6.800781 7.210938 -5.363281 8.078125 -4.15625 C 9.003906 -2.925781 10.316406 -2.3125 12.015625 -2.3125 C 13.679688 -2.3125 15.207031 -2.925781 16.59375 -4.15625 C 18.007812 -5.414062 18.867188 -6.851562 19.171875 -8.46875 Z M 19.171875 -8.46875 "/></g></g></g><g fill="#110e60" fill-opacity="1"><g transform="translate(136.537, 36.118473)"><g><path d="M 3.15625 9.625 L -0.109375 9.625 L 8.015625 -2.765625 L 3.703125 -16.9375 L 6.78125 -16.9375 L 9.96875 -5.578125 L 17.0625 -16.9375 L 20.0625 -16.9375 Z M 3.15625 9.625 "/></g></g></g><g fill="#110e60" fill-opacity="1"><g transform="translate(152.896105, 36.118473)"><g/></g></g><g fill="#110e60" fill-opacity="1"><g transform="translate(163.288955, 36.118473)"><g><path d="M 8.125 -12.96875 L 14.203125 -12.96875 C 15.640625 -12.96875 16.972656 -13.484375 18.203125 -14.515625 C 19.410156 -15.566406 20.171875 -16.847656 20.484375 -18.359375 C 20.785156 -19.898438 20.550781 -21.160156 19.78125 -22.140625 C 19.019531 -23.109375 17.84375 -23.59375 16.25 -23.59375 L 10.15625 -23.59375 Z M 23.140625 -18.28125 C 22.679688 -15.976562 21.5 -14.082031 19.59375 -12.59375 C 17.664062 -11.101562 15.5625 -10.359375 13.28125 -10.359375 L 7.578125 -10.359375 L 5.578125 0 L 2.890625 0 L 7.96875 -26.1875 L 16.359375 -26.1875 C 18.691406 -26.1875 20.515625 -25.453125 21.828125 -23.984375 C 23.160156 -22.492188 23.597656 -20.59375 23.140625 -18.28125 Z M 23.140625 -18.28125 "/></g></g></g><g fill="#110e60" fill-opacity="1"><g transform="translate(183.651235, 36.118473)"><g><path d="M 14.203125 -13.4375 C 13.710938 -14 13.109375 -14.28125 12.390625 -14.28125 C 11.703125 -14.28125 11.0625 -14.085938 10.46875 -13.703125 C 10.1875 -13.523438 9.914062 -13.304688 9.65625 -13.046875 C 9.40625 -12.796875 9.164062 -12.53125 8.9375 -12.25 C 8.0625 -11.113281 7.492188 -9.851562 7.234375 -8.46875 L 5.578125 0 L 2.890625 0 L 6.203125 -16.9375 L 8.890625 -16.9375 L 8.203125 -13.4375 L 8.4375 -14.125 C 9.738281 -16.226562 11.34375 -17.28125 13.25 -17.28125 C 13.863281 -17.28125 14.414062 -17.164062 14.90625 -16.9375 Z M 14.203125 -13.4375 "/></g></g></g><g fill="#110e60" fill-opacity="1"><g transform="translate(195.622252, 36.118473)"><g><path d="M 18.40625 -8.546875 C 18.738281 -10.210938 18.414062 -11.660156 17.4375 -12.890625 C 16.46875 -14.097656 15.132812 -14.703125 13.4375 -14.703125 C 11.738281 -14.703125 10.171875 -14.097656 8.734375 -12.890625 C 7.328125 -11.710938 6.441406 -10.265625 6.078125 -8.546875 C 5.773438 -6.847656 6.097656 -5.410156 7.046875 -4.234375 C 8.023438 -3.023438 9.359375 -2.421875 11.046875 -2.421875 C 12.742188 -2.421875 14.3125 -3.023438 15.75 -4.234375 C 17.207031 -5.460938 18.09375 -6.898438 18.40625 -8.546875 Z M 21.09375 -8.546875 C 20.632812 -6.078125 19.363281 -4 17.28125 -2.3125 C 15.226562 -0.59375 12.984375 0.265625 10.546875 0.265625 C 8.109375 0.265625 6.1875 -0.59375 4.78125 -2.3125 C 3.382812 -4 2.921875 -6.078125 3.390625 -8.546875 C 3.847656 -10.984375 5.117188 -13.0625 7.203125 -14.78125 C 9.304688 -16.53125 11.5625 -17.40625 13.96875 -17.40625 C 16.414062 -17.40625 18.332031 -16.53125 19.71875 -14.78125 C 21.101562 -13.0625 21.5625 -10.984375 21.09375 -8.546875 Z M 21.09375 -8.546875 "/></g></g></g><g fill="#110e60" fill-opacity="1"><g transform="translate(216.792863, 36.118473)"><g><path d="M 17.09375 -26.375 L 14.78125 -26.375 C 13.851562 -26.375 13.222656 -26.164062 12.890625 -25.75 C 12.503906 -25.289062 12.265625 -24.789062 12.171875 -24.25 L 10.78125 -16.9375 L 15.28125 -16.9375 L 14.78125 -14.4375 L 10.28125 -14.4375 L 7.46875 0 L 4.78125 0 L 7.578125 -14.4375 L 4.15625 -14.4375 L 4.65625 -16.9375 L 8.078125 -16.9375 L 9.359375 -23.484375 C 9.535156 -24.359375 9.785156 -25.128906 10.109375 -25.796875 C 10.429688 -26.460938 10.832031 -27.023438 11.3125 -27.484375 C 12.320312 -28.410156 13.773438 -28.875 15.671875 -28.875 L 17.59375 -28.875 Z M 17.09375 -26.375 "/></g></g></g><g fill="#110e60" fill-opacity="1"><g transform="translate(229.91863, 36.118473)"><g><path d="M 21.171875 -8.859375 L 20.90625 -7.4375 L 6 -7.4375 C 5.976562 -5.96875 6.441406 -4.769531 7.390625 -3.84375 C 8.367188 -2.894531 9.585938 -2.421875 11.046875 -2.421875 C 11.535156 -2.421875 12.023438 -2.472656 12.515625 -2.578125 C 13.003906 -2.679688 13.488281 -2.847656 13.96875 -3.078125 C 14.457031 -3.304688 14.921875 -3.570312 15.359375 -3.875 C 15.796875 -4.1875 16.195312 -4.550781 16.5625 -4.96875 L 19.640625 -4.96875 C 18.609375 -3.351562 17.269531 -2.082031 15.625 -1.15625 C 13.957031 -0.207031 12.394531 0.265625 10.9375 0.265625 C 9.445312 0.265625 8.210938 0.0351562 7.234375 -0.421875 C 6.742188 -0.648438 6.296875 -0.914062 5.890625 -1.21875 C 5.484375 -1.53125 5.113281 -1.894531 4.78125 -2.3125 C 3.382812 -4 2.921875 -6.078125 3.390625 -8.546875 C 3.847656 -10.984375 5.117188 -13.0625 7.203125 -14.78125 C 9.304688 -16.53125 11.5625 -17.40625 13.96875 -17.40625 C 16.332031 -17.40625 18.234375 -16.570312 19.671875 -14.90625 C 21.140625 -13.207031 21.640625 -11.191406 21.171875 -8.859375 Z M 18.484375 -9.734375 C 18.429688 -11.203125 17.941406 -12.398438 17.015625 -13.328125 C 16.085938 -14.242188 14.894531 -14.703125 13.4375 -14.703125 C 11.25 -14.703125 9.320312 -13.703125 7.65625 -11.703125 C 7.144531 -11.085938 6.75 -10.429688 6.46875 -9.734375 Z M 18.484375 -9.734375 "/></g></g></g><g fill="#110e60" fill-opacity="1"><g transform="translate(250.896791, 36.118473)"><g><path d="M 5.8125 -2.421875 C 6.40625 -1.960938 7.226562 -1.734375 8.28125 -1.734375 C 10.789062 -1.734375 12.210938 -2.65625 12.546875 -4.5 C 12.734375 -5.582031 12.003906 -6.40625 10.359375 -6.96875 C 10.023438 -7.09375 9.664062 -7.210938 9.28125 -7.328125 C 8.894531 -7.441406 8.492188 -7.550781 8.078125 -7.65625 C 7.285156 -7.84375 6.546875 -8.113281 5.859375 -8.46875 C 5.054688 -8.851562 4.488281 -9.367188 4.15625 -10.015625 C 3.851562 -10.628906 3.773438 -11.359375 3.921875 -12.203125 C 4.234375 -13.867188 5.082031 -15.140625 6.46875 -16.015625 C 7.800781 -16.890625 9.289062 -17.328125 10.9375 -17.328125 C 11.757812 -17.328125 12.492188 -17.25 13.140625 -17.09375 C 13.796875 -16.9375 14.367188 -16.679688 14.859375 -16.328125 C 15.785156 -15.679688 16.273438 -14.488281 16.328125 -12.75 L 13.4375 -12.75 C 13.332031 -13.695312 13.007812 -14.320312 12.46875 -14.625 C 11.9375 -14.9375 11.257812 -15.09375 10.4375 -15.09375 C 9.582031 -15.09375 8.820312 -14.910156 8.15625 -14.546875 C 7.488281 -14.191406 7.082031 -13.628906 6.9375 -12.859375 C 6.78125 -12.085938 6.921875 -11.523438 7.359375 -11.171875 C 7.796875 -10.804688 8.359375 -10.507812 9.046875 -10.28125 C 9.410156 -10.175781 9.78125 -10.070312 10.15625 -9.96875 C 10.539062 -9.863281 10.941406 -9.757812 11.359375 -9.65625 C 11.765625 -9.5625 12.15625 -9.441406 12.53125 -9.296875 C 12.90625 -9.160156 13.257812 -9 13.59375 -8.8125 C 15.15625 -7.96875 15.769531 -6.644531 15.4375 -4.84375 C 15.101562 -3.050781 14.191406 -1.707031 12.703125 -0.8125 C 11.929688 -0.375 11.132812 -0.0390625 10.3125 0.1875 C 9.90625 0.289062 9.484375 0.367188 9.046875 0.421875 C 8.609375 0.472656 8.160156 0.5 7.703125 0.5 C 3.796875 0.5 1.882812 -1.242188 1.96875 -4.734375 L 4.8125 -4.734375 C 4.882812 -3.679688 5.21875 -2.910156 5.8125 -2.421875 Z M 5.8125 -2.421875 "/></g></g></g><g fill="#110e60" fill-opacity="1"><g transform="translate(266.370586, 36.118473)"><g><path d="M 10.046875 -22.796875 C 10.304688 -22.460938 10.394531 -22.050781 10.3125 -21.5625 C 10.238281 -21.144531 10 -20.742188 9.59375 -20.359375 C 9.226562 -20.023438 8.789062 -19.859375 8.28125 -19.859375 C 7.789062 -19.859375 7.414062 -20.023438 7.15625 -20.359375 C 6.90625 -20.691406 6.816406 -21.09375 6.890625 -21.5625 C 6.960938 -22.019531 7.207031 -22.429688 7.625 -22.796875 C 7.976562 -23.128906 8.414062 -23.296875 8.9375 -23.296875 C 9.414062 -23.296875 9.785156 -23.128906 10.046875 -22.796875 Z M 5.78125 0 L 3.078125 0 L 6.390625 -16.9375 L 9.09375 -16.9375 Z M 5.78125 0 "/></g></g></g><g fill="#110e60" fill-opacity="1"><g transform="translate(275.185244, 36.118473)"><g><path d="M 18.40625 -8.546875 C 18.738281 -10.210938 18.414062 -11.660156 17.4375 -12.890625 C 16.46875 -14.097656 15.132812 -14.703125 13.4375 -14.703125 C 11.738281 -14.703125 10.171875 -14.097656 8.734375 -12.890625 C 7.328125 -11.710938 6.441406 -10.265625 6.078125 -8.546875 C 5.773438 -6.847656 6.097656 -5.410156 7.046875 -4.234375 C 8.023438 -3.023438 9.359375 -2.421875 11.046875 -2.421875 C 12.742188 -2.421875 14.3125 -3.023438 15.75 -4.234375 C 17.207031 -5.460938 18.09375 -6.898438 18.40625 -8.546875 Z M 21.09375 -8.546875 C 20.632812 -6.078125 19.363281 -4 17.28125 -2.3125 C 15.226562 -0.59375 12.984375 0.265625 10.546875 0.265625 C 8.109375 0.265625 6.1875 -0.59375 4.78125 -2.3125 C 3.382812 -4 2.921875 -6.078125 3.390625 -8.546875 C 3.847656 -10.984375 5.117188 -13.0625 7.203125 -14.78125 C 9.304688 -16.53125 11.5625 -17.40625 13.96875 -17.40625 C 16.414062 -17.40625 18.332031 -16.53125 19.71875 -14.78125 C 21.101562 -13.0625 21.5625 -10.984375 21.09375 -8.546875 Z M 21.09375 -8.546875 "/></g></g></g><g fill="#110e60" fill-opacity="1"><g transform="translate(296.355867, 36.118473)"><g><path d="M 14.59375 0 L 16.625 -10.59375 C 16.863281 -11.664062 16.800781 -12.597656 16.4375 -13.390625 C 16.082031 -14.191406 15.335938 -14.59375 14.203125 -14.59375 C 13.046875 -14.59375 12.054688 -14.375 11.234375 -13.9375 C 10.441406 -13.53125 9.75 -12.96875 9.15625 -12.25 C 8.132812 -10.988281 7.40625 -9.265625 6.96875 -7.078125 L 5.578125 0 L 2.890625 0 L 6.203125 -16.9375 L 8.890625 -16.9375 L 8.3125 -14.015625 C 9.03125 -14.960938 9.90625 -15.734375 10.9375 -16.328125 C 12.007812 -16.960938 13.125 -17.28125 14.28125 -17.28125 C 15.507812 -17.28125 16.457031 -17.113281 17.125 -16.78125 C 17.769531 -16.445312 18.300781 -15.960938 18.71875 -15.328125 C 19.507812 -14.140625 19.710938 -12.5625 19.328125 -10.59375 L 17.28125 0 Z M 14.59375 0 "/></g></g></g><g fill="#110e60" fill-opacity="1"><g transform="translate(315.94831, 36.118473)"><g><path d="M 18.015625 -8.46875 C 18.328125 -10.113281 18.03125 -11.550781 17.125 -12.78125 C 16.207031 -14.007812 14.914062 -14.625 13.25 -14.625 C 11.550781 -14.625 10.007812 -14.007812 8.625 -12.78125 C 7.238281 -11.550781 6.390625 -10.113281 6.078125 -8.46875 C 5.773438 -6.800781 6.0625 -5.363281 6.9375 -4.15625 C 7.851562 -2.925781 9.160156 -2.3125 10.859375 -2.3125 C 12.523438 -2.3125 14.050781 -2.925781 15.4375 -4.15625 C 16.851562 -5.414062 17.710938 -6.851562 18.015625 -8.46875 Z M 19.0625 0 L 16.359375 0 L 16.9375 -2.890625 C 16.832031 -2.785156 16.726562 -2.6875 16.625 -2.59375 C 16.53125 -2.507812 16.429688 -2.414062 16.328125 -2.3125 C 14.367188 -0.507812 12.222656 0.390625 9.890625 0.390625 C 7.535156 0.390625 5.738281 -0.507812 4.5 -2.3125 C 3.289062 -4.03125 2.921875 -6.082031 3.390625 -8.46875 C 3.847656 -10.851562 5.015625 -12.90625 6.890625 -14.625 C 8.835938 -16.425781 10.984375 -17.328125 13.328125 -17.328125 C 15.679688 -17.328125 17.476562 -16.425781 18.71875 -14.625 C 18.757812 -14.519531 18.816406 -14.421875 18.890625 -14.328125 C 18.972656 -14.242188 19.039062 -14.148438 19.09375 -14.046875 L 19.671875 -16.9375 L 22.375 -16.9375 Z M 19.0625 0 "/></g></g></g><g fill="#110e60" fill-opacity="1"><g transform="translate(337.888758, 36.118473)"><g><path d="M 5.578125 0 L 2.890625 0 L 8.515625 -28.875 L 11.203125 -28.875 Z M 5.578125 0 "/></g></g></g><g fill="#110e60" fill-opacity="1"><g transform="translate(346.356997, 36.118473)"><g><path d="M 10.046875 -22.796875 C 10.304688 -22.460938 10.394531 -22.050781 10.3125 -21.5625 C 10.238281 -21.144531 10 -20.742188 9.59375 -20.359375 C 9.226562 -20.023438 8.789062 -19.859375 8.28125 -19.859375 C 7.789062 -19.859375 7.414062 -20.023438 7.15625 -20.359375 C 6.90625 -20.691406 6.816406 -21.09375 6.890625 -21.5625 C 6.960938 -22.019531 7.207031 -22.429688 7.625 -22.796875 C 7.976562 -23.128906 8.414062 -23.296875 8.9375 -23.296875 C 9.414062 -23.296875 9.785156 -23.128906 10.046875 -22.796875 Z M 5.78125 0 L 3.078125 0 L 6.390625 -16.9375 L 9.09375 -16.9375 Z M 5.78125 0 "/></g></g></g><g fill="#110e60" fill-opacity="1"><g transform="translate(355.171678, 36.118473)"><g><path d="M 5.8125 -2.421875 C 6.40625 -1.960938 7.226562 -1.734375 8.28125 -1.734375 C 10.789062 -1.734375 12.210938 -2.65625 12.546875 -4.5 C 12.734375 -5.582031 12.003906 -6.40625 10.359375 -6.96875 C 10.023438 -7.09375 9.664062 -7.210938 9.28125 -7.328125 C 8.894531 -7.441406 8.492188 -7.550781 8.078125 -7.65625 C 7.285156 -7.84375 6.546875 -8.113281 5.859375 -8.46875 C 5.054688 -8.851562 4.488281 -9.367188 4.15625 -10.015625 C 3.851562 -10.628906 3.773438 -11.359375 3.921875 -12.203125 C 4.234375 -13.867188 5.082031 -15.140625 6.46875 -16.015625 C 7.800781 -16.890625 9.289062 -17.328125 10.9375 -17.328125 C 11.757812 -17.328125 12.492188 -17.25 13.140625 -17.09375 C 13.796875 -16.9375 14.367188 -16.679688 14.859375 -16.328125 C 15.785156 -15.679688 16.273438 -14.488281 16.328125 -12.75 L 13.4375 -12.75 C 13.332031 -13.695312 13.007812 -14.320312 12.46875 -14.625 C 11.9375 -14.9375 11.257812 -15.09375 10.4375 -15.09375 C 9.582031 -15.09375 8.820312 -14.910156 8.15625 -14.546875 C 7.488281 -14.191406 7.082031 -13.628906 6.9375 -12.859375 C 6.78125 -12.085938 6.921875 -11.523438 7.359375 -11.171875 C 7.796875 -10.804688 8.359375 -10.507812 9.046875 -10.28125 C 9.410156 -10.175781 9.78125 -10.070312 10.15625 -9.96875 C 10.539062 -9.863281 10.941406 -9.757812 11.359375 -9.65625 C 11.765625 -9.5625 12.15625 -9.441406 12.53125 -9.296875 C 12.90625 -9.160156 13.257812 -9 13.59375 -8.8125 C 15.15625 -7.96875 15.769531 -6.644531 15.4375 -4.84375 C 15.101562 -3.050781 14.191406 -1.707031 12.703125 -0.8125 C 11.929688 -0.375 11.132812 -0.0390625 10.3125 0.1875 C 9.90625 0.289062 9.484375 0.367188 9.046875 0.421875 C 8.609375 0.472656 8.160156 0.5 7.703125 0.5 C 3.796875 0.5 1.882812 -1.242188 1.96875 -4.734375 L 4.8125 -4.734375 C 4.882812 -3.679688 5.21875 -2.910156 5.8125 -2.421875 Z M 5.8125 -2.421875 "/></g></g></g><g fill="#110e60" fill-opacity="1"><g transform="translate(370.645474, 36.118473)"><g><path d="M 24.375 -0.078125 L 26.453125 -10.671875 C 26.785156 -12.410156 26.460938 -13.640625 25.484375 -14.359375 C 25.148438 -14.585938 24.585938 -14.703125 23.796875 -14.703125 C 22.992188 -14.703125 22.207031 -14.472656 21.4375 -14.015625 C 21.050781 -13.785156 20.691406 -13.519531 20.359375 -13.21875 C 20.023438 -12.925781 19.71875 -12.601562 19.4375 -12.25 C 19.332031 -12.09375 19.226562 -11.941406 19.125 -11.796875 C 19.03125 -11.660156 18.929688 -11.5 18.828125 -11.3125 C 18.796875 -11.21875 18.773438 -11.117188 18.765625 -11.015625 C 18.753906 -10.910156 18.738281 -10.796875 18.71875 -10.671875 L 16.625 -0.078125 L 13.9375 -0.078125 L 16.015625 -10.671875 C 16.347656 -12.410156 16.023438 -13.640625 15.046875 -14.359375 C 14.710938 -14.585938 14.148438 -14.703125 13.359375 -14.703125 C 12.566406 -14.703125 11.785156 -14.472656 11.015625 -14.015625 C 10.628906 -13.785156 10.269531 -13.519531 9.9375 -13.21875 C 9.601562 -12.925781 9.296875 -12.601562 9.015625 -12.25 C 8.265625 -11.269531 7.6875 -10.097656 7.28125 -8.734375 L 5.578125 -0.078125 L 2.890625 -0.078125 L 6.203125 -17.015625 L 8.890625 -17.015625 L 8.359375 -14.328125 C 8.710938 -14.753906 9.082031 -15.144531 9.46875 -15.5 C 9.851562 -15.863281 10.265625 -16.175781 10.703125 -16.4375 C 11.679688 -17.082031 12.769531 -17.40625 13.96875 -17.40625 C 15.175781 -17.40625 16.085938 -17.222656 16.703125 -16.859375 C 17.367188 -16.472656 17.867188 -15.972656 18.203125 -15.359375 C 18.304688 -15.179688 18.40625 -14.988281 18.5 -14.78125 C 18.59375 -14.570312 18.664062 -14.367188 18.71875 -14.171875 C 19.070312 -14.628906 19.441406 -15.050781 19.828125 -15.4375 C 20.210938 -15.820312 20.632812 -16.15625 21.09375 -16.4375 C 22.070312 -17.082031 23.175781 -17.40625 24.40625 -17.40625 C 25.613281 -17.40625 26.523438 -17.222656 27.140625 -16.859375 C 27.804688 -16.472656 28.304688 -15.972656 28.640625 -15.359375 C 29.359375 -14.097656 29.523438 -12.535156 29.140625 -10.671875 L 27.0625 -0.078125 Z M 24.375 -0.078125 "/></g></g></g></g></g></g></g></svg>